<svg width="140" height="140" viewBox="0 0 140 140" fill="none" xmlns="http://www.w3.org/2000/svg">
<g clip-path="url(#clip0_202_3299)">
<path d="M51.9089 86.1977C51.8043 86.0603 51.607 86.0358 51.4724 86.1427C49.1075 88.0367 47.2508 89.4418 45.454 90.6912C45.3134 90.789 45.2746 90.9875 45.3732 91.1311C45.433 91.2227 45.5317 91.2686 45.6303 91.2686C45.6901 91.2686 45.7529 91.2502 45.8038 91.2136C47.6126 89.955 49.4782 88.5437 51.8551 86.6407C51.9927 86.5368 52.0136 86.3352 51.9089 86.1977Z" fill="#767676"/>
<path d="M42.3476 93.6933C42.4104 93.6933 42.4732 93.6749 42.53 93.6322L43.3582 93.0213C43.4958 92.9175 43.5287 92.722 43.427 92.5785C43.3253 92.4349 43.131 92.4044 42.9934 92.5083L42.1652 93.1191C42.0277 93.2229 41.9948 93.4184 42.0964 93.5619C42.1562 93.6474 42.2519 93.6933 42.3476 93.6933Z" fill="#767676"/>
<path d="M61.4699 86.335L59.4009 89.6248C59.3082 89.7715 59.3501 89.97 59.4936 90.0647C59.5444 90.0983 59.6042 90.1166 59.661 90.1166C59.7627 90.1166 59.8643 90.0647 59.9212 89.97L61.9902 86.6802C62.0829 86.5336 62.041 86.335 61.8975 86.2403C61.757 86.1456 61.5626 86.1884 61.4699 86.335Z" fill="#767676"/>
<path d="M51.3816 101.672C51.4773 101.672 51.57 101.626 51.6328 101.541L58.7905 91.5459C58.8922 91.4054 58.8623 91.2068 58.7217 91.103C58.5842 90.9991 58.3899 91.0297 58.2882 91.1733L51.1305 101.168C51.0288 101.309 51.0587 101.507 51.1993 101.611C51.2531 101.654 51.3188 101.672 51.3816 101.672Z" fill="#767676"/>
<path d="M67.3391 86.4113C66.6066 89.2368 65.7784 92.0868 64.9771 94.8421C63.9516 98.3732 62.8902 102.024 62.0172 105.668C61.9754 105.839 62.077 106.01 62.2445 106.053C62.2684 106.059 62.2953 106.062 62.3192 106.062C62.4597 106.062 62.5853 105.964 62.6212 105.82C63.4882 102.192 64.5466 98.5474 65.5721 95.0254C66.3734 92.264 67.2045 89.4079 67.94 86.5762C67.9849 86.4082 67.8862 86.2341 67.7188 86.1883C67.5573 86.1425 67.3839 86.2433 67.3391 86.4113Z" fill="#767676"/>
<path d="M46.8404 98.4554C46.9241 98.4554 47.0048 98.4218 47.0676 98.3546L53.2835 91.6377C53.4001 91.5094 53.3971 91.3109 53.2716 91.1887C53.146 91.0696 52.9517 91.0757 52.8321 91.2009L46.6162 97.9178C46.4996 98.0461 46.5026 98.2447 46.6281 98.3669C46.6879 98.428 46.7627 98.4554 46.8404 98.4554Z" fill="#767676"/>
<path d="M42.1854 86.0878L38.9444 87.7524C38.7919 87.8319 38.7291 88.0212 38.8069 88.177C38.8607 88.2869 38.9713 88.3511 39.0849 88.3511C39.1328 88.3511 39.1806 88.3389 39.2254 88.3175L42.4664 86.6529C42.6189 86.5735 42.6817 86.3841 42.6039 86.2284C42.5232 86.0726 42.3378 86.0084 42.1854 86.0878Z" fill="#767676"/>
<path d="M54.6138 89.9394L57.5587 86.6833C57.6753 86.555 57.6664 86.3534 57.5408 86.2343C57.4152 86.1152 57.2179 86.1243 57.1013 86.2526L54.1563 89.5087C54.0397 89.637 54.0487 89.8386 54.1743 89.9578C54.2341 90.0127 54.3088 90.0433 54.3836 90.0433C54.4673 90.0402 54.551 90.0066 54.6138 89.9394Z" fill="#767676"/>
<path d="M65.0326 86.6528C65.1043 86.494 65.0356 86.3046 64.8771 86.2313C64.7216 86.161 64.5363 86.2283 64.4645 86.3901C63.448 88.678 62.3417 90.9721 61.2714 93.1897C59.6868 96.4765 58.0483 99.8732 56.6641 103.328C56.5983 103.49 56.676 103.676 56.8345 103.74C56.8733 103.756 56.9122 103.765 56.9511 103.765C57.0736 103.765 57.1903 103.691 57.2381 103.566C58.6134 100.13 60.2488 96.7422 61.8275 93.4677C62.9038 91.247 64.0131 88.9468 65.0326 86.6528Z" fill="#767676"/>
<path d="M75.5839 107.158C75.6048 107.317 75.7394 107.433 75.8919 107.433C75.9038 107.433 75.9188 107.433 75.9337 107.43C76.1042 107.409 76.2237 107.247 76.2028 107.076C75.7693 103.682 75.4583 100.212 75.1564 96.8578C74.8484 93.4152 74.5285 89.8565 74.074 86.3681C74.0501 86.194 73.8976 86.0748 73.7242 86.0962C73.5538 86.1207 73.4342 86.2795 73.4581 86.4536C73.9096 89.9298 74.2295 93.4824 74.5375 96.9189C74.8364 100.279 75.1504 103.752 75.5839 107.158Z" fill="#767676"/>
<path d="M78.8549 95.0072C80.0329 98.6391 81.2498 102.396 82.2544 106.147C82.2932 106.288 82.4158 106.382 82.5534 106.382C82.5803 106.382 82.6072 106.379 82.6341 106.37C82.7985 106.324 82.8972 106.15 82.8523 105.982C81.8448 102.213 80.6249 98.4497 79.4439 94.8086C78.55 92.0503 77.6261 89.1973 76.8009 86.3688C76.7531 86.2008 76.5797 86.1061 76.4152 86.1549C76.2508 86.2038 76.1581 86.381 76.2059 86.549C77.0341 89.3867 77.961 92.2428 78.8549 95.0072Z" fill="#767676"/>
<path d="M89.9828 103.398C90.0396 103.502 90.1443 103.56 90.2519 103.56C90.3027 103.56 90.3565 103.548 90.4044 103.521C90.5539 103.435 90.6077 103.239 90.521 103.09C89.4327 101.123 88.3444 99.1126 87.292 97.1668C85.3636 93.602 83.3694 89.918 81.2974 86.3562C81.2107 86.2066 81.0194 86.1577 80.8729 86.2463C80.7264 86.3349 80.6755 86.5304 80.7652 86.68C82.8342 90.2326 84.8254 93.9135 86.7508 97.4722C87.8062 99.415 88.8945 101.428 89.9828 103.398Z" fill="#767676"/>
<path d="M94.4913 90.7275C94.5511 90.7794 94.6228 90.8039 94.6946 90.8039C94.7813 90.8039 94.868 90.7672 94.9308 90.6939C95.0414 90.5595 95.0265 90.3609 94.8979 90.2479L90.165 86.1026C90.0364 85.9896 89.8391 86.0049 89.7284 86.1362C89.6178 86.2706 89.6328 86.4692 89.7613 86.5822L94.4913 90.7275Z" fill="#767676"/>
<path d="M99.1215 95.169C99.1813 95.2271 99.259 95.2546 99.3338 95.2546C99.4175 95.2546 99.4982 95.221 99.561 95.1538C99.6776 95.0255 99.6716 94.8239 99.5461 94.7048L98.3023 93.5106C98.1767 93.3915 97.9794 93.3976 97.8628 93.5259C97.7462 93.6541 97.7522 93.8557 97.8778 93.9748L99.1215 95.169Z" fill="#767676"/>
<path d="M70.3799 86.1454C70.2125 86.1332 70.057 86.2553 70.0421 86.4325C69.6145 91.0115 69.172 95.9753 68.6457 102.048C68.6308 102.222 68.7564 102.378 68.9268 102.393C68.9358 102.393 68.9447 102.393 68.9537 102.393C69.1122 102.393 69.2497 102.268 69.2617 102.103C69.7849 96.0303 70.2274 91.0695 70.655 86.4906C70.6759 86.3195 70.5533 86.1637 70.3799 86.1454Z" fill="#767676"/>
<path d="M68.9388 102.519C68.7744 102.507 68.6159 102.632 68.601 102.806L68.2063 107.125C68.1913 107.299 68.3169 107.455 68.4873 107.47C68.4963 107.47 68.5083 107.473 68.5172 107.473C68.6757 107.473 68.8103 107.351 68.8252 107.186L69.2199 102.867C69.2348 102.69 69.1092 102.534 68.9388 102.519Z" fill="#767676"/>
<path d="M95.1966 100.035C95.2654 100.035 95.3341 100.011 95.3909 99.9648C95.5255 99.8548 95.5464 99.6563 95.4388 99.5188C91.8958 94.9827 88.3887 90.5352 85.0132 86.2984C84.9056 86.1609 84.7083 86.1426 84.5767 86.2526C84.4452 86.3625 84.4242 86.5642 84.5318 86.6986C87.9044 90.9353 91.4115 95.3798 94.9514 99.9159C95.0172 99.9954 95.1069 100.035 95.1966 100.035Z" fill="#767676"/>
<path d="M99.224 88.2748C99.3286 88.2748 99.4273 88.2229 99.4871 88.1251C99.5768 87.9754 99.5349 87.7799 99.3884 87.6883L97.0175 86.173C96.874 86.0814 96.6797 86.1241 96.59 86.2738C96.5003 86.4235 96.5421 86.619 96.6886 86.7107L99.0596 88.2259C99.1104 88.2565 99.1672 88.2748 99.224 88.2748Z" fill="#767676"/>
<path d="M88.6619 57.273C88.7217 57.3555 88.8144 57.3982 88.9071 57.3982C88.9728 57.3982 89.0386 57.3769 89.0954 57.3341L98.1995 50.2076C98.337 50.1007 98.3609 49.9021 98.2563 49.7616C98.1516 49.6242 97.9573 49.5967 97.8198 49.7036L88.7157 56.8301C88.5842 56.9339 88.5572 57.1355 88.6619 57.273Z" fill="#767676"/>
<path d="M84.1462 50.8468C84.0027 50.7521 83.8114 50.7949 83.7157 50.9415L79.9575 56.9192C79.8648 57.0658 79.9067 57.2613 80.0502 57.3591C80.101 57.3927 80.1608 57.4079 80.2176 57.4079C80.3193 57.4079 80.4209 57.356 80.4778 57.2613L84.2359 51.2836C84.3316 51.137 84.2898 50.9415 84.1462 50.8468Z" fill="#767676"/>
<path d="M92.0069 39.3668L84.8492 49.3617C84.7476 49.5022 84.7775 49.7008 84.918 49.8046C84.9718 49.8474 85.0376 49.8657 85.1004 49.8657C85.1961 49.8657 85.2918 49.8199 85.3515 49.7344L92.5093 39.7395C92.6109 39.599 92.581 39.4005 92.4405 39.2966C92.3029 39.1958 92.1086 39.2263 92.0069 39.3668Z" fill="#767676"/>
<path d="M81.6234 35.2459C81.6653 35.0749 81.5666 34.9038 81.4022 34.858C81.2377 34.8152 81.0673 34.916 81.0225 35.084C80.5411 36.9779 80.0329 38.8902 79.5156 40.7963C79.71 40.8788 79.8983 40.9765 80.0807 41.0896C80.6069 39.1437 81.1271 37.1857 81.6234 35.2459Z" fill="#767676"/>
<path d="M75.1141 57.0227C75.0693 57.1907 75.171 57.3648 75.3354 57.4107C75.3623 57.4168 75.3892 57.4198 75.4131 57.4198C75.5507 57.4198 75.6762 57.3251 75.7121 57.1816C75.9872 56.1033 76.2742 55.0189 76.5613 53.9346H75.9184C75.6463 54.967 75.3772 55.9964 75.1141 57.0227Z" fill="#767676"/>
<path d="M94.4915 45.7265L97.0239 42.9897C97.1405 42.8614 97.1375 42.6629 97.0119 42.5407C96.8863 42.4216 96.692 42.4277 96.5724 42.5529L94.04 45.2897C93.9234 45.418 93.9264 45.6165 94.052 45.7387C94.1118 45.7967 94.1895 45.8242 94.2642 45.8242C94.348 45.8273 94.4317 45.7937 94.4915 45.7265Z" fill="#767676"/>
<path d="M86.8008 37.1672C86.6424 37.1031 86.46 37.1825 86.3972 37.3444C86.1102 38.0867 85.7724 38.7984 85.4136 39.5529C85.1565 40.0966 84.8904 40.6587 84.6452 41.2299C84.5765 41.3918 84.6482 41.5781 84.8067 41.6484C84.8485 41.6667 84.8904 41.6759 84.9322 41.6759C85.0518 41.6759 85.1655 41.6056 85.2163 41.4865C85.4555 40.9275 85.7185 40.3716 85.9727 39.834C86.3195 39.1008 86.6783 38.3464 86.9743 37.5827C87.037 37.4177 86.9593 37.2314 86.8008 37.1672Z" fill="#767676"/>
<path d="M96.0944 57.2212C96.1483 57.3311 96.2589 57.3953 96.3725 57.3953C96.4203 57.3953 96.4682 57.3831 96.513 57.3617L103.997 53.5192C104.149 53.4397 104.212 53.2504 104.134 53.0946C104.056 52.9388 103.871 52.8746 103.719 52.9541L96.2349 56.7966C96.0765 56.876 96.0167 57.0654 96.0944 57.2212Z" fill="#767676"/>
<path d="M83.6747 57.3561C83.7345 57.4141 83.8093 57.4416 83.884 57.4416C83.9677 57.4416 84.0515 57.408 84.1113 57.3408L91.9715 48.6565C92.0881 48.5282 92.0791 48.3266 91.9536 48.2074C91.828 48.0883 91.6307 48.0975 91.5141 48.2258L83.6538 56.9101C83.5402 57.0354 83.5492 57.237 83.6747 57.3561Z" fill="#767676"/>
<path d="M77.5456 56.9888C77.4769 57.1507 77.5486 57.3371 77.7071 57.4074C77.7489 57.4257 77.7908 57.4349 77.8327 57.4349C77.9523 57.4349 78.0659 57.3646 78.1167 57.2455C78.6609 55.9747 79.2379 54.7161 79.818 53.4697C79.5519 53.6102 79.2678 53.7233 78.9748 53.8027C78.4875 54.8536 78.0061 55.9166 77.5456 56.9888Z" fill="#767676"/>
<path d="M84.4811 43.1148C84.5439 42.9529 84.4661 42.7665 84.3077 42.7024C84.1492 42.6383 83.9668 42.7177 83.9041 42.8796C83.4018 44.1716 82.8457 45.4667 82.2656 46.7526V48.2554C83.049 46.5571 83.8114 44.8375 84.4811 43.1148Z" fill="#767676"/>
<path d="M68.0562 33.7554C68.0382 33.5813 67.8858 33.4592 67.7124 33.4744C67.5419 33.4928 67.4194 33.6516 67.4373 33.8257C67.6795 36.025 67.9037 38.2732 68.122 40.4725H68.7468C68.5286 38.2549 68.3013 35.9792 68.0562 33.7554Z" fill="#767676"/>
<path d="M70.0283 57.1298C70.0522 57.2886 70.1838 57.3986 70.3363 57.3986C70.3512 57.3986 70.3662 57.3986 70.3841 57.3955C70.5545 57.3711 70.6711 57.2092 70.6442 57.0351C70.4947 56.0117 70.3542 54.9761 70.2197 53.9375H69.5918C69.7293 55.0067 69.8729 56.0728 70.0283 57.1298Z" fill="#767676"/>
<path d="M67.4524 57.0409C67.4942 57.1784 67.6168 57.2639 67.7484 57.2639C67.7783 57.2639 67.8082 57.2608 67.8411 57.2486C68.0055 57.1967 68.0982 57.0195 68.0474 56.8515L67.1683 53.9346H66.5195L67.4524 57.0409Z" fill="#767676"/>
<path d="M62.4625 39.7272C62.4924 39.7272 62.5223 39.7241 62.5552 39.7119C62.7196 39.66 62.8123 39.4828 62.7615 39.3148L61.3862 34.7512C61.3354 34.5832 61.165 34.4916 60.9976 34.5405C60.8331 34.5924 60.7404 34.7695 60.7913 34.9375L62.1665 39.5011C62.2084 39.6386 62.331 39.7272 62.4625 39.7272Z" fill="#767676"/>
<path d="M64.0294 57.2336C64.0862 57.3374 64.1909 57.3955 64.3015 57.3955C64.3523 57.3955 64.4031 57.3833 64.454 57.3558C64.6035 57.2702 64.6573 57.0778 64.5736 56.925C64.0264 55.92 63.4823 54.9242 62.9381 53.9375H62.2266C62.8215 55.025 63.4225 56.1216 64.0294 57.2336Z" fill="#767676"/>
<path d="M57.6483 44.4624C56.288 42.0644 54.9545 39.7428 53.6509 37.5067C53.5642 37.357 53.3729 37.3081 53.2264 37.3967C53.0799 37.4853 53.029 37.6808 53.1187 37.8305C54.5718 40.3232 56.0637 42.9289 57.5885 45.6263V45.2261C57.5885 44.9664 57.6124 44.7129 57.6483 44.4624Z" fill="#767676"/>
<path d="M48.7128 50.2166C48.6022 50.351 48.6172 50.5496 48.7457 50.6626L56.3727 57.3432C56.4325 57.3951 56.5043 57.4196 56.576 57.4196C56.6627 57.4196 56.7494 57.3829 56.8122 57.3096C56.9228 57.1752 56.9079 56.9767 56.7793 56.8636L49.1523 50.183C49.0208 50.0669 48.8234 50.0822 48.7128 50.2166Z" fill="#767676"/>
<path d="M43.064 44.4222C42.9385 44.3031 42.7411 44.3092 42.6245 44.4375C42.5079 44.5658 42.5139 44.7674 42.6395 44.8866L46.598 48.6837C46.6578 48.7417 46.7355 48.7692 46.8103 48.7692C46.894 48.7692 46.9747 48.7356 47.0375 48.6684C47.1541 48.5401 47.1481 48.3385 47.0226 48.2193L43.064 44.4222Z" fill="#767676"/>
<path d="M37.1994 54.7561C37.0409 54.6859 36.8585 54.7592 36.7898 54.9211C36.721 55.083 36.7928 55.2694 36.9512 55.3396L41.6692 57.4321C41.7081 57.4504 41.7499 57.4596 41.7918 57.4596C41.9114 57.4596 42.025 57.3894 42.0758 57.2672C42.1446 57.1053 42.0728 56.9189 41.9144 56.8487L37.1994 54.7561Z" fill="#767676"/>
<path d="M72.6574 57.0777C72.6335 57.2518 72.7501 57.4106 72.9205 57.4351C72.9354 57.4381 72.9504 57.4381 72.9653 57.4381C73.1178 57.4381 73.2494 57.3251 73.2733 57.1663C73.4228 56.0911 73.5394 55.0128 73.641 53.9346H73.0162C72.9175 54.9853 72.8009 56.0361 72.6574 57.0777Z" fill="#767676"/>
<path d="M75.1556 33.4413C74.9912 33.429 74.8327 33.5543 74.8178 33.7284L74.4231 38.0471C74.4081 38.2212 74.5337 38.377 74.7041 38.3923C74.7131 38.3923 74.7251 38.3923 74.734 38.3923C74.8925 38.3923 75.027 38.2701 75.042 38.1052L75.4367 33.7864C75.4516 33.6123 75.326 33.4565 75.1556 33.4413Z" fill="#767676"/>
<path d="M48.2457 40.4239L47.9437 40.039C47.8361 39.9015 47.6417 39.8802 47.5072 39.9901C47.3726 40.1001 47.3517 40.2986 47.4593 40.4361L47.7613 40.821C48.2546 41.4472 48.7659 42.0948 49.2742 42.7118C49.3369 42.7852 49.4236 42.8249 49.5133 42.8249C49.5851 42.8249 49.6539 42.8004 49.7137 42.7516C49.8452 42.6385 49.8632 42.44 49.7525 42.3056C49.2473 41.6916 48.739 41.0471 48.2457 40.4239Z" fill="#767676"/>
<path d="M60.9326 57.3188C60.9954 57.3921 61.0821 57.4318 61.1718 57.4318C61.2436 57.4318 61.3123 57.4073 61.3721 57.3585C61.5037 57.2455 61.5216 57.0469 61.411 56.9125C58.9533 53.922 56.4748 50.7819 54.0769 47.7456L52.6507 45.9404C52.5431 45.8029 52.3488 45.7815 52.2142 45.8915C52.0797 46.0015 52.0587 46.2 52.1664 46.3375L53.5925 48.1427C55.9904 51.179 58.469 54.3222 60.9326 57.3188Z" fill="#767676"/>
<path d="M44.1525 52.786C44.0628 52.9356 44.1046 53.1311 44.2511 53.2227L50.7929 57.3979C50.8437 57.4315 50.9005 57.4468 50.9573 57.4468C51.0619 57.4468 51.1606 57.3948 51.2204 57.2971C51.3101 57.1474 51.2682 56.952 51.1217 56.8603L44.583 52.6852C44.4365 52.5936 44.2451 52.6363 44.1525 52.786Z" fill="#767676"/>
<path d="M11.4013 66.5044C11.4611 66.2569 11.7362 65.8812 12.3102 65.591C12.959 65.1939 13.8709 64.974 14.8725 64.974C15.1176 64.974 15.3658 64.9862 15.608 65.0137C17.4557 65.1817 18.7802 66.0553 19.2197 66.7823L19.2705 66.8556L23.4652 64.0362L23.4443 64.0057C22.0152 61.7544 19.2615 60.227 16.0834 59.9185C15.6977 59.888 15.297 59.8574 14.9024 59.8574C13.0906 59.8574 11.3684 60.282 9.92133 61.0823C7.89123 62.1942 6.61159 64.0148 6.40529 66.0737C6.0196 70.228 9.34728 73.3865 14.6841 73.9363C16.2089 74.0891 17.3122 74.4526 17.9819 75.033C18.4663 75.5278 18.4663 75.9952 18.4393 76.1937C18.4154 76.5084 18.0537 76.9116 17.5424 77.1896C16.8637 77.5622 15.9578 77.77 14.9951 77.77C14.7499 77.77 14.4988 77.7577 14.2566 77.7302C12.4388 77.5653 11.0904 76.6947 10.603 75.9433L10.5761 75.8975L6.3754 78.6741L6.42025 78.7383C7.84939 80.9896 10.603 82.5169 13.7842 82.8254C14.1519 82.856 14.5466 82.8865 14.9622 82.8865C16.7381 82.8865 18.4962 82.4619 19.9074 81.6952C21.9674 80.5344 23.25 78.7169 23.4264 76.7008C23.8121 72.4426 20.5741 69.3574 15.1775 68.8381C13.8171 68.6854 11.2757 68.0164 11.3953 66.5532L11.3983 66.5288L11.4013 66.5044ZM10.6778 69.3605C11.6823 70.1944 13.1743 70.729 14.9921 70.9092C18.3048 71.2391 21.7312 72.8733 21.3993 76.4748C21.2707 77.7974 20.4067 78.9918 18.9626 79.8349C17.8563 80.4489 16.4362 80.7849 14.9652 80.7849C14.6243 80.7849 14.3014 80.7849 13.9785 80.7513C12.4388 80.5863 10.9977 80.0884 9.92432 79.3462L9.55658 79.0926L10.3668 78.5397L10.5313 78.6466C11.482 79.2667 12.7407 79.673 14.0742 79.7982C14.3493 79.8288 14.6423 79.8593 14.9682 79.8593C16.2538 79.8593 17.5215 79.5569 18.5201 79.0162C19.707 78.3198 20.3917 77.4064 20.4993 76.3862C20.586 75.369 20.1794 74.3213 19.3901 73.5148C18.4334 72.5984 16.9564 72.0455 14.8785 71.8317C12.4746 71.6087 10.4745 70.7137 9.38616 69.3788C8.6686 68.496 8.36064 67.4513 8.46828 66.2753C8.56694 64.9495 9.45492 63.7338 10.902 62.9426C12.0082 62.2981 13.3925 61.956 14.9084 61.956C15.2492 61.956 15.5721 61.956 15.895 61.9896C17.4019 62.1545 18.84 62.6524 19.9462 63.3947L20.3439 63.6605L19.4708 64.1981L19.3154 64.0973C18.3556 63.4864 17.1089 63.0648 15.8023 62.9121C15.5093 62.8815 15.2163 62.8815 14.9054 62.8815C13.5031 62.8815 12.2773 63.1839 11.3385 63.7613C10.1545 64.3814 9.45493 65.3008 9.37121 66.3547C9.25461 67.5185 9.70906 68.5571 10.6778 69.3605Z" fill="#767676"/>
<path d="M31.6131 82.8831H36.7527V65.1386H42.3049V59.854H26.0879V65.1386H31.6102V82.8831H31.6131ZM28.1778 62.9759V62.0503H40.1911V62.9759H34.6389V80.7204H33.733V62.9759H28.1778Z" fill="#767676"/>
<path d="M48.5039 75.9799H57.3569L53.1143 64.0361L48.5039 75.9799ZM50.4922 74.5747L53.0784 67.9522L55.4015 74.5747H50.4922Z" fill="#767676"/>
<path d="M54.8286 59.854H51.48L42.6152 82.8831H48.1135L49.5935 79.0678H56.2398L57.5673 82.8831H63.0387L54.8286 59.854ZM57.6989 76.9051H48.1464L46.6664 80.7204H45.6828L52.9211 61.9862H53.3636L60.0279 80.7204H59.0532L57.6989 76.9051Z" fill="#767676"/>
<path d="M73.5007 82.8831V65.1386H79.0528V59.854H62.8359V65.1386H68.3581V82.8831H73.5007ZM64.9228 62.9759V62.0503H76.936V62.9759H71.3839V80.7204H70.4779V62.9759H64.9228Z" fill="#767676"/>
<path d="M81.9941 82.8831H87.1038V59.854H81.9941V82.8831ZM84.0811 61.9862H85.0169V80.754H84.0811V61.9862Z" fill="#767676"/>
<path d="M112.497 71.337C112.497 64.9865 107.426 59.8242 101.196 59.8242C94.9796 59.8242 89.9238 64.9895 89.9238 71.337C89.9238 77.7028 94.9796 82.8834 101.196 82.8834C107.426 82.8834 112.497 77.7058 112.497 71.337ZM92.0107 71.337C92.0107 66.1625 96.1307 61.9533 101.196 61.9533C106.275 61.9533 110.41 66.1625 110.41 71.337C110.41 76.5298 106.275 80.7513 101.196 80.7513C96.1307 80.7513 92.0107 76.5298 92.0107 71.337Z" fill="#767676"/>
<path d="M109.532 71.3364C109.532 66.6568 105.792 62.8477 101.194 62.8477C96.6131 62.8477 92.8848 66.6568 92.8848 71.3364C92.8848 76.0344 96.6131 79.8557 101.194 79.8557C105.792 79.8588 109.532 76.0344 109.532 71.3364ZM101.194 78.4812C97.3546 78.4812 94.2302 75.2769 94.2302 71.3364C94.2302 67.4143 97.3546 64.2222 101.194 64.2222C105.05 64.2222 108.187 67.4143 108.187 71.3364C108.187 75.2769 105.05 78.4812 101.194 78.4812Z" fill="#767676"/>
<path d="M129.475 59.8242V72.3786L120.233 59.8242H115.961V82.8834H121.1V69.7639L130.802 82.8834H134.644V59.8242H129.475ZM132.501 80.6902H131.837L119.02 63.3309V80.6902H118.084V61.9869H119.181L131.598 78.8116V61.9869H132.504V80.6902H132.501Z" fill="#767676"/>
<path d="M33.8606 89.4171L33.6543 88.9772C33.6125 88.8887 33.5138 88.852 33.4271 88.8948L31.9621 89.6157L31.6212 88.8917L33.0863 88.1708C33.173 88.128 33.2059 88.0272 33.167 87.9386L32.9607 87.4988C32.9188 87.4102 32.8202 87.3735 32.7334 87.4163L28.733 89.3866C28.6462 89.4293 28.6104 89.5301 28.6522 89.6187L28.8585 90.0586C28.9004 90.1472 28.9991 90.1838 29.0858 90.1411L30.9246 89.2369L31.2654 89.9608L29.4266 90.865C29.3399 90.9078 29.307 91.0086 29.3459 91.0972L29.5522 91.5371C29.5911 91.6195 29.6927 91.6623 29.7794 91.6195L33.7799 89.6493C33.8666 89.6065 33.8965 89.4965 33.8606 89.4171Z" fill="#767676"/>
<path d="M34.6556 90.9017L34.4224 90.474C34.3745 90.3884 34.2669 90.361 34.1832 90.4098L30.3113 92.6154C30.2275 92.6643 30.1977 92.7682 30.2455 92.8537L30.4787 93.2814C30.5265 93.3669 30.6282 93.3975 30.7119 93.3486L34.5838 91.143C34.6676 91.0941 34.7005 90.9872 34.6556 90.9017Z" fill="#767676"/>
<path d="M34.7964 94.9827C34.8772 94.9308 34.9011 94.8239 34.8473 94.7414L34.339 93.9289C34.2882 93.8464 34.1835 93.8219 34.1028 93.8769L33.747 94.1091C33.6663 94.161 33.6364 94.271 33.6902 94.3535L33.8487 94.607L32.7992 95.2912C32.7185 95.3432 32.6109 95.3157 32.5601 95.2332L32.285 94.7933C32.2372 94.717 32.2551 94.6039 32.3358 94.552L34.7546 92.9758C34.8293 92.9269 34.9429 92.9514 34.9908 93.0277L35.2658 93.4676C35.3167 93.5501 35.2927 93.6661 35.218 93.715L34.9878 93.8647C34.9071 93.9166 34.8831 94.0235 34.9369 94.106L35.1941 94.5184C35.2449 94.6009 35.3495 94.6253 35.4303 94.5703L35.7233 94.3779C36.1329 94.1121 36.2465 93.5562 35.9894 93.1438L35.5857 92.4962C35.3256 92.0777 34.7875 91.9586 34.3779 92.2244L31.8216 93.8922C31.418 94.1549 31.2984 94.7139 31.5555 95.1263L31.9591 95.7739C32.2162 96.1862 32.7634 96.3084 33.167 96.0457L34.7964 94.9827Z" fill="#767676"/>
<path d="M38.2322 96.3453L37.9452 95.9543C37.8884 95.8749 37.7837 95.8627 37.706 95.9207L36.4084 96.9226L35.936 96.2811L37.2336 95.2793C37.3083 95.2213 37.3233 95.1144 37.2665 95.0349L36.9795 94.644C36.9226 94.5646 36.818 94.5524 36.7403 94.6104L33.1943 97.3441C33.1196 97.4021 33.1047 97.509 33.1615 97.5884L33.4485 97.9794C33.5053 98.0588 33.6099 98.0741 33.6877 98.013L35.3171 96.7576L35.7895 97.399L34.1601 98.6575C34.0823 98.7155 34.0704 98.8255 34.1272 98.9018L34.4142 99.2928C34.468 99.3661 34.5756 99.3875 34.6534 99.3264L38.1993 96.5927C38.277 96.5316 38.286 96.4186 38.2322 96.3453Z" fill="#767676"/>
<path d="M39.3996 102.721L41.0888 101.044C41.4715 100.665 41.4805 100.042 41.1098 99.6507L40.7091 99.2292C40.3384 98.8382 39.7285 98.829 39.3458 99.2078L37.2917 101.245C36.915 101.621 36.9061 102.241 37.2768 102.632L38.2186 103.622C38.2844 103.692 38.395 103.698 38.4638 103.631L38.7837 103.316C38.8525 103.249 38.8495 103.136 38.7926 103.075L38.6013 102.873C38.8674 102.983 39.1843 102.935 39.3996 102.721ZM38.3412 102.602L37.8658 102.101C37.8 102.03 37.8 101.911 37.8628 101.85L39.9168 99.8126C39.9856 99.7454 40.1022 99.7454 40.168 99.8157L40.5208 100.185C40.5865 100.256 40.5865 100.375 40.5178 100.442L38.3412 102.602Z" fill="#767676"/>
<path d="M44.1067 102.488L43.748 102.164C43.6762 102.1 43.5656 102.112 43.5028 102.185L41.096 104.987C41.0332 105.06 40.9226 105.063 40.8508 104.999L40.4711 104.657C40.3994 104.593 40.3874 104.48 40.4502 104.406L42.857 101.608C42.9198 101.535 42.9168 101.422 42.845 101.358L42.4862 101.034C42.4145 100.97 42.3039 100.982 42.2411 101.055L39.7805 103.918C39.4636 104.284 39.4994 104.855 39.8612 105.179L40.4263 105.686C40.7851 106.01 41.3442 105.97 41.6611 105.604L44.1217 102.741C44.1785 102.665 44.1785 102.552 44.1067 102.488Z" fill="#767676"/>
<path d="M46.1817 104.132L45.3625 103.502C45.2907 103.447 45.195 103.453 45.1293 103.518L42.3936 106.236C42.3637 106.267 42.3517 106.282 42.3338 106.303L41.972 106.795C41.9152 106.875 41.9301 106.982 42.0049 107.04L42.3876 107.333C42.4653 107.391 42.57 107.376 42.6268 107.299L43.0005 106.792L43.733 107.354L43.3593 107.861C43.3025 107.941 43.3174 108.048 43.3892 108.103L43.7779 108.399C43.8556 108.457 43.9603 108.442 44.0171 108.365L44.3788 107.874C44.3968 107.852 44.4087 107.834 44.4267 107.797L46.2265 104.361C46.2624 104.29 46.2534 104.187 46.1817 104.132ZM44.1247 106.664L43.5447 106.218L45.2817 104.471L44.1247 106.664Z" fill="#767676"/>
<path d="M46.6563 109.397L45.855 108.863L47.9449 105.579C47.9957 105.497 47.9748 105.39 47.8941 105.338L47.4934 105.072C47.4127 105.02 47.3081 105.042 47.2572 105.124L44.8355 108.93C44.7817 109.012 44.8056 109.119 44.8863 109.171L46.2317 110.066C46.3125 110.118 46.4171 110.097 46.4679 110.014L46.7071 109.639C46.758 109.556 46.737 109.449 46.6563 109.397Z" fill="#767676"/>
<path d="M50.1379 106.749L49.7253 106.505C49.6416 106.456 49.537 106.489 49.4891 106.575L47.2677 110.494C47.2199 110.579 47.2468 110.683 47.3305 110.732L47.7431 110.976C47.8268 111.025 47.9285 110.998 47.9763 110.912L50.1977 106.993C50.2426 106.908 50.2186 106.798 50.1379 106.749Z" fill="#767676"/>
<path d="M52.6739 108.833L52.8772 108.424C52.919 108.335 52.8802 108.231 52.8024 108.188L51.0295 107.269C50.9457 107.223 50.8441 107.26 50.7993 107.345L50.596 107.755C50.5541 107.843 50.587 107.944 50.6707 107.99L51.1879 108.259L49.4598 111.738C49.415 111.823 49.4568 111.93 49.5345 111.973L49.9621 112.193C50.0488 112.236 50.1475 112.202 50.1923 112.116L51.9204 108.637L52.4437 108.909C52.5244 108.949 52.632 108.918 52.6739 108.833Z" fill="#767676"/>
<path d="M55.4978 110.323L55.7609 109.685C55.7968 109.596 55.7579 109.495 55.6683 109.455L55.2287 109.266C55.1391 109.229 55.0434 109.269 55.0045 109.361L54.8042 109.849C54.7832 109.901 54.7504 109.947 54.7115 109.984L53.9012 110.711L53.8414 109.611C53.8355 109.556 53.8444 109.498 53.8654 109.446L54.0657 108.957C54.1016 108.866 54.0627 108.768 53.973 108.728L53.5305 108.539C53.4408 108.502 53.3451 108.542 53.3062 108.631L53.0431 109.269C53.0132 109.339 53.0043 109.419 53.0013 109.495L53.1179 111.52L52.4332 113.182C52.3973 113.274 52.4362 113.372 52.5259 113.411L52.9654 113.601C53.0551 113.637 53.1508 113.598 53.1896 113.506L53.8713 111.844L55.3633 110.509C55.4261 110.457 55.4679 110.393 55.4978 110.323Z" fill="#767676"/>
<path d="M55.6926 113.793L55.2621 113.637C55.1724 113.604 55.0797 113.647 55.0468 113.738L54.8913 114.184C54.8585 114.276 54.9063 114.368 54.999 114.401L55.1216 114.447L54.99 114.575C54.9601 114.603 54.9332 114.636 54.9182 114.676L54.8764 114.801C54.8584 114.853 54.8883 114.917 54.9332 114.933L55.1515 115.012C55.1963 115.027 55.2561 115 55.277 114.945L55.289 114.911C55.3009 114.878 55.3308 114.853 55.3428 114.841L55.5401 114.646C55.5641 114.618 55.582 114.587 55.594 114.554L55.7853 114.001C55.8122 113.909 55.7704 113.821 55.6926 113.793Z" fill="#767676"/>
<path d="M60.4639 115.214L59.5371 114.979L60.4639 111.179C60.4878 111.084 60.431 110.989 60.3383 110.968L59.8749 110.849C59.7822 110.824 59.6925 110.882 59.6686 110.977L58.5953 115.382C58.5714 115.477 58.6282 115.568 58.7209 115.593L60.2785 115.99C60.3712 116.014 60.4609 115.956 60.4848 115.861L60.5895 115.428C60.6104 115.33 60.5566 115.238 60.4639 115.214Z" fill="#767676"/>
<path d="M63.8295 111.716L63.0911 111.585C62.6127 111.499 62.1612 111.832 62.0775 112.318L61.5603 115.363C61.4766 115.852 61.7935 116.31 62.2719 116.396L63.0103 116.527C63.4827 116.61 63.9372 116.289 64.0209 115.8L64.5381 112.755C64.6218 112.266 64.2989 111.799 63.8295 111.716ZM63.2286 115.568C63.2136 115.666 63.118 115.733 63.0223 115.715L62.523 115.626C62.4273 115.611 62.3615 115.513 62.3795 115.415L62.8698 112.529C62.8878 112.431 62.9804 112.379 63.0731 112.394L63.5724 112.483C63.6681 112.498 63.7368 112.584 63.7189 112.678L63.2286 115.568Z" fill="#767676"/>
<path d="M68.7913 112.266L68.1934 112.214C68.1306 112.208 68.0797 112.253 68.0768 112.314L68.0289 112.919C68.0259 112.968 68.0229 112.996 68.011 113.051L67.6701 114.801L67.4728 112.25C67.4638 112.192 67.419 112.146 67.3652 112.143L66.8479 112.101C66.7941 112.095 66.7433 112.134 66.7313 112.189L66.1274 114.673L66.0646 112.889C66.0616 112.834 66.0646 112.806 66.0676 112.757L66.1154 112.153C66.1214 112.091 66.0765 112.036 66.0167 112.033L65.4188 111.982C65.359 111.975 65.3052 112.021 65.3022 112.082L65.2484 112.751C65.2454 112.785 65.2424 112.828 65.2454 112.892L65.4696 116.735C65.4756 116.826 65.5384 116.894 65.6281 116.903L66.1603 116.949C66.241 116.955 66.3217 116.9 66.3367 116.808L66.9645 113.955L67.126 116.875C67.132 116.967 67.1947 117.034 67.2844 117.043L67.8077 117.089C67.8974 117.095 67.9691 117.04 67.9901 116.952L68.8272 113.197C68.8392 113.136 68.8422 113.093 68.8451 113.06L68.899 112.391C68.896 112.324 68.8511 112.272 68.7913 112.266Z" fill="#767676"/>
<path d="M72.7157 112.208L71.5407 112.266C71.445 112.272 71.3733 112.351 71.3793 112.449L71.5975 116.982C71.6035 117.08 71.6812 117.153 71.7769 117.147L72.2553 117.123C72.351 117.117 72.4227 117.037 72.4167 116.939L72.3181 114.911L72.8443 114.884C73.4393 114.853 73.9057 114.328 73.8758 113.714L73.8549 113.268C73.825 112.654 73.3077 112.177 72.7157 112.208ZM72.8024 114.041L72.2762 114.068L72.2254 113.036L72.7516 113.008C72.9011 113.002 73.0237 113.121 73.0297 113.274L73.0536 113.754C73.0625 113.903 72.9519 114.032 72.8024 114.041Z" fill="#767676"/>
<path d="M77.2762 115.537L76.5228 114.45C76.8965 114.233 77.1327 113.796 77.0729 113.326L77.0191 112.889C76.9443 112.278 76.4032 111.841 75.8052 111.918L74.6332 112.068C74.5435 112.08 74.4718 112.165 74.4837 112.263L75.0309 116.765C75.0428 116.863 75.1325 116.927 75.2222 116.918L75.6976 116.857C75.7933 116.844 75.859 116.759 75.8471 116.661L75.59 114.563L76.4839 115.843C76.5288 115.922 76.5497 115.995 76.5587 116.072L76.6185 116.557C76.6304 116.655 76.7201 116.719 76.8158 116.707L77.2912 116.646C77.3868 116.634 77.4436 116.548 77.4317 116.454L77.348 115.76C77.342 115.684 77.3181 115.601 77.2762 115.537ZM76.0324 113.747L75.5033 113.815L75.3777 112.782L75.9069 112.715C76.0504 112.697 76.1849 112.797 76.2029 112.95L76.2597 113.43C76.2806 113.589 76.176 113.729 76.0324 113.747Z" fill="#767676"/>
<path d="M78.2205 111.527L77.751 111.615C77.6583 111.634 77.5985 111.728 77.6165 111.826L78.4178 116.283C78.4358 116.381 78.5225 116.442 78.6181 116.424L79.0876 116.335C79.1803 116.317 79.2431 116.228 79.2251 116.133L78.4238 111.677C78.4058 111.579 78.3161 111.509 78.2205 111.527Z" fill="#767676"/>
<path d="M82.2313 113.472C82.2074 113.378 82.1147 113.314 82.022 113.338L81.5586 113.454C81.4659 113.479 81.4121 113.576 81.436 113.671L81.6902 114.737C81.7141 114.832 81.6513 114.926 81.5646 114.948L81.0653 115.073C80.9726 115.098 80.8739 115.043 80.853 114.948L80.1713 112.101C80.1474 112.006 80.2102 111.912 80.3029 111.887L80.8022 111.762C80.8889 111.74 80.9845 111.795 81.0085 111.89L81.1699 112.562C81.1938 112.657 81.2865 112.721 81.3792 112.697L81.8426 112.581C81.9353 112.556 81.9891 112.458 81.9652 112.364L81.7858 111.618C81.6692 111.136 81.1998 110.845 80.7274 110.962L79.9979 111.145C79.5255 111.264 79.2415 111.744 79.3551 112.226L80.0756 115.238C80.1892 115.711 80.6676 116.011 81.134 115.895L81.8636 115.711C82.336 115.592 82.62 115.107 82.5064 114.63L82.2313 113.472Z" fill="#767676"/>
<path d="M85.4211 113.982C85.3912 113.891 85.2985 113.839 85.2058 113.869L84.3029 114.166L83.8634 112.764L84.4344 112.574C84.5241 112.544 84.5749 112.449 84.545 112.354L84.4165 111.942C84.3866 111.85 84.2939 111.798 84.2012 111.829L83.6302 112.015L83.3192 111.026L84.2221 110.729C84.3118 110.699 84.3627 110.604 84.3328 110.509L84.1982 110.085C84.1683 109.993 84.0756 109.941 83.983 109.972L82.4552 110.473C82.3655 110.503 82.3146 110.598 82.3445 110.693L83.7019 115.012C83.7318 115.103 83.8245 115.155 83.9172 115.125L85.445 114.624C85.5347 114.593 85.5855 114.499 85.5556 114.404L85.4211 113.982Z" fill="#767676"/>
<path d="M87.279 113.989C87.279 113.952 87.273 113.915 87.261 113.885L87.0577 113.338C87.0248 113.246 86.9351 113.207 86.8604 113.237L86.4328 113.402C86.3431 113.436 86.2982 113.53 86.3311 113.622L86.4955 114.065C86.5284 114.157 86.6241 114.193 86.7138 114.16L86.8364 114.114L86.8185 114.3C86.8125 114.34 86.8125 114.383 86.8275 114.422L86.8723 114.547C86.8902 114.599 86.953 114.627 86.9979 114.612L87.2162 114.526C87.261 114.508 87.2879 114.447 87.27 114.395L87.258 114.361C87.2461 114.328 87.2521 114.288 87.2551 114.273L87.279 113.989Z" fill="#767676"/>
<path d="M91.6012 109.779C91.4727 109.517 91.2574 109.33 91.0033 109.236C91.0362 109.022 91.0003 108.808 90.8986 108.603L90.6983 108.197C90.4292 107.647 89.7744 107.421 89.2363 107.699L88.1748 108.246C88.0881 108.289 88.0553 108.393 88.1001 108.481L90.0973 112.535C90.1392 112.623 90.2408 112.657 90.3275 112.611L91.4876 112.015C92.0258 111.74 92.2381 111.068 91.966 110.519L91.6012 109.779ZM89.1077 108.661L89.5891 108.414C89.7176 108.347 89.8821 108.405 89.9508 108.539L90.1631 108.97C90.2289 109.101 90.1721 109.269 90.0435 109.336L89.5621 109.584L89.1077 108.661ZM91.1288 111.288L90.5488 111.588L89.909 110.289L90.489 109.99C90.6176 109.923 90.782 109.981 90.8508 110.118L91.2395 110.91C91.3112 111.053 91.2574 111.221 91.1288 111.288Z" fill="#767676"/>
<path d="M94.7616 109.407C94.7137 109.324 94.6091 109.297 94.5284 109.346L93.7151 109.844L92.9737 108.579L93.4909 108.264C93.5716 108.215 93.5985 108.108 93.5507 108.026L93.3325 107.653C93.2816 107.571 93.18 107.543 93.0993 107.592L92.582 107.907L92.0588 107.015L92.875 106.517C92.9558 106.468 92.9827 106.361 92.9348 106.279L92.7106 105.897C92.6628 105.814 92.5581 105.787 92.4774 105.836L91.0991 106.679C91.0184 106.728 90.9915 106.835 91.0393 106.917L93.3205 110.809C93.3683 110.891 93.473 110.919 93.5537 110.87L94.932 110.027C95.0127 109.978 95.0396 109.871 94.9918 109.789L94.7616 109.407Z" fill="#767676"/>
<path d="M96.867 106.3C96.5172 105.789 95.8415 105.67 95.3451 106.025L95.088 106.208C94.9624 106.29 94.795 106.266 94.7083 106.141L94.4691 105.792C94.3824 105.667 94.4183 105.496 94.5408 105.411L94.798 105.227C94.9206 105.139 95.088 105.163 95.1747 105.291L95.2584 105.411C95.3122 105.49 95.4169 105.508 95.4976 105.453L95.8893 105.172C95.967 105.117 95.985 105.01 95.9311 104.928L95.8654 104.83C95.5215 104.326 94.8398 104.201 94.3435 104.555L94.0864 104.739C93.593 105.09 93.4734 105.792 93.8173 106.293L94.0415 106.62C94.3854 107.124 95.0641 107.234 95.5604 106.889L95.8175 106.706C95.9401 106.617 96.1075 106.645 96.1943 106.77L96.7025 107.512C96.7893 107.638 96.7594 107.812 96.6368 107.9L96.3796 108.084C96.257 108.172 96.0866 108.142 95.9999 108.016L95.6591 107.518C95.6052 107.439 95.5006 107.421 95.4199 107.476L95.0282 107.757C94.9505 107.812 94.9325 107.919 94.9863 108.001L95.3093 108.469C95.6531 108.973 96.3408 109.095 96.8311 108.743L97.0882 108.56C97.5816 108.209 97.7012 107.506 97.3573 107.005L96.867 106.3Z" fill="#767676"/>
<path d="M97.3997 103.178L97.8541 102.799C97.9229 102.741 97.9378 102.628 97.878 102.555L97.594 102.198C97.5342 102.121 97.4236 102.115 97.3548 102.173L95.8151 103.456C95.7404 103.517 95.7314 103.627 95.7912 103.7L96.0752 104.058C96.135 104.134 96.2426 104.143 96.3144 104.082L96.7629 103.707L99.1756 106.728C99.2354 106.804 99.346 106.81 99.4148 106.752L99.7855 106.444C99.8602 106.383 99.8692 106.273 99.8094 106.199L97.3997 103.178Z" fill="#767676"/>
<path d="M102.979 100.511C102.91 100.444 102.799 100.441 102.734 100.511L102.402 100.863C102.336 100.933 102.342 101.046 102.411 101.113L103.182 101.877C103.251 101.944 103.248 102.06 103.185 102.124L102.829 102.5C102.764 102.57 102.653 102.576 102.584 102.509L100.521 100.469C100.453 100.401 100.456 100.285 100.521 100.218L100.877 99.8424C100.94 99.7782 101.051 99.7691 101.119 99.8394L101.607 100.319C101.675 100.386 101.786 100.389 101.852 100.319L102.184 99.9676C102.249 99.8974 102.243 99.7844 102.175 99.7172L101.633 99.1826C101.284 98.8374 100.734 98.8466 100.396 99.204L99.8725 99.7569C99.5347 100.114 99.5437 100.676 99.8935 101.022L102.073 103.178C102.417 103.517 102.976 103.508 103.311 103.157L103.834 102.604C104.172 102.246 104.157 101.681 103.813 101.339L102.979 100.511Z" fill="#767676"/>
<path d="M103.164 96.211C103.089 96.1499 102.981 96.1652 102.924 96.2354L102.619 96.6112C102.56 96.6875 102.569 96.7945 102.643 96.8586L103.896 97.9186L103.394 98.5356L102.141 97.4756C102.066 97.4145 101.962 97.4237 101.899 97.5001L101.594 97.8758C101.534 97.9522 101.543 98.0591 101.618 98.1202L105.038 101.013C105.113 101.074 105.218 101.065 105.28 100.989L105.585 100.613C105.645 100.536 105.636 100.43 105.562 100.368L103.989 99.0366L104.491 98.4195L106.064 99.7514C106.139 99.8125 106.243 99.8033 106.303 99.727L106.608 99.3512C106.665 99.281 106.659 99.1679 106.584 99.1069L103.164 96.211Z" fill="#767676"/>
<path d="M108.149 95.649L105.656 93.8956C105.255 93.6146 104.705 93.7185 104.433 94.1217L104.005 94.754C103.73 95.1633 103.835 95.7192 104.235 96.0003L106.729 97.7536C107.13 98.0346 107.671 97.9338 107.946 97.5245L108.373 96.8922C108.645 96.489 108.55 95.93 108.149 95.649ZM107.656 96.5379L107.369 96.9625C107.315 97.0419 107.201 97.0633 107.121 97.0083L104.756 95.3466C104.678 95.2916 104.666 95.1816 104.72 95.1022L105.007 94.6776C105.061 94.5982 105.165 94.5677 105.243 94.6226L107.608 96.2843C107.692 96.3424 107.713 96.4585 107.656 96.5379Z" fill="#767676"/>
<path d="M109.751 94.4082L105.981 92.0223C105.901 91.9704 105.79 91.9917 105.739 92.0742L105.488 92.4897C105.437 92.5722 105.467 92.6822 105.548 92.7341L109.318 95.12C109.399 95.1719 109.503 95.1475 109.554 95.0619L109.805 94.6465C109.859 94.564 109.835 94.457 109.751 94.4082Z" fill="#767676"/>
<path d="M110.871 90.905L109.848 90.3399C109.764 90.294 109.657 90.3215 109.612 90.4071L109.385 90.8378C109.34 90.9233 109.376 91.0302 109.459 91.0761L110.404 91.5984C110.488 91.6442 110.515 91.7542 110.473 91.8337L110.231 92.2949C110.186 92.3805 110.081 92.4171 109.995 92.3713L107.471 90.9753C107.388 90.9294 107.361 90.8195 107.405 90.7339L107.651 90.2727C107.692 90.1932 107.797 90.1566 107.881 90.2024L108.476 90.5323C108.56 90.5781 108.667 90.5506 108.712 90.4651L108.939 90.0344C108.984 89.9488 108.948 89.8419 108.865 89.7931L108.204 89.4265C107.776 89.1913 107.25 89.3501 107.02 89.7869L106.661 90.4621C106.431 90.8989 106.586 91.4365 107.014 91.6717L109.684 93.1472C110.105 93.3794 110.64 93.2175 110.868 92.7867L111.226 92.1116C111.457 91.6778 111.292 91.1372 110.871 90.905Z" fill="#767676"/>
<path d="M112.754 88.4549L112.356 88.2716C112.269 88.2319 112.171 88.2686 112.129 88.3572L111.737 89.24L110.424 88.6321L110.673 88.0731C110.711 87.9845 110.676 87.8837 110.589 87.8409L110.203 87.6637C110.117 87.624 110.018 87.6607 109.976 87.7493L109.728 88.3083L108.801 87.8806L109.193 86.9978C109.232 86.9092 109.196 86.8084 109.106 86.7656L108.708 86.5824C108.622 86.5426 108.523 86.5793 108.481 86.6679L107.82 88.1616C107.781 88.2502 107.817 88.351 107.904 88.3938L111.949 90.2633C112.036 90.303 112.135 90.2664 112.177 90.1747L112.837 88.681C112.879 88.5954 112.84 88.4946 112.754 88.4549Z" fill="#767676"/>
<path d="M28.8517 49.8841L32.7982 51.9611C32.8819 52.0069 32.9836 51.9733 33.0285 51.8847L33.2467 51.451C33.2916 51.3624 33.2587 51.2616 33.172 51.2158L31.405 50.2873L31.6442 49.8108C31.9162 49.2702 31.704 48.5952 31.1688 48.3142L30.7801 48.1095C30.2449 47.8285 29.5842 48.0454 29.3121 48.586L28.7739 49.652C28.7321 49.7375 28.765 49.8413 28.8517 49.8841ZM30.0117 48.9495C30.0805 48.812 30.2419 48.7662 30.3765 48.8365L30.795 49.0564C30.9236 49.1236 30.9774 49.2854 30.9117 49.4229L30.6695 49.8994L29.7695 49.4259L30.0117 48.9495Z" fill="#767676"/>
<path d="M30.6585 46.4411L34.4227 48.8452C34.5034 48.8971 34.6111 48.8665 34.6589 48.7902L34.9131 48.3747C34.9639 48.2922 34.94 48.1853 34.8592 48.1334L33.1042 47.0123L34.638 47.1101C34.7247 47.1253 34.7965 47.1528 34.8592 47.1956L35.2659 47.4552C35.3466 47.5072 35.4542 47.4766 35.5051 47.3942L35.7592 46.9787C35.81 46.8962 35.7831 46.7954 35.7024 46.7435L35.1224 46.3739C35.0596 46.3342 34.9818 46.3006 34.9071 46.2944L33.6065 46.2059C33.6782 45.7752 33.4929 45.3108 33.1012 45.0603L32.7364 44.8282C32.2252 44.5013 31.5524 44.6571 31.2325 45.1764L30.6076 46.1998C30.5568 46.2761 30.5777 46.3892 30.6585 46.4411ZM31.8963 45.601C31.971 45.4758 32.1355 45.433 32.264 45.5155L32.6647 45.769C32.7962 45.8546 32.8381 46.0287 32.7604 46.1509L32.4793 46.6122L31.6152 46.0623L31.8963 45.601Z" fill="#767676"/>
<path d="M36.3062 45.8671C36.3839 45.9251 36.4886 45.9098 36.5454 45.8304L37.4962 44.5108C37.553 44.4314 37.538 44.3245 37.4603 44.2664L37.1075 44.0006C37.0297 43.9426 36.9251 43.9579 36.8683 44.0373L36.3062 44.8193L35.1461 43.9457L35.5019 43.4508C35.5587 43.3714 35.5438 43.2645 35.466 43.2064L35.1252 42.9498C35.0475 42.8918 34.9428 42.9071 34.886 42.9865L34.5302 43.4814L33.711 42.8643L34.2731 42.0823C34.3299 42.0029 34.315 41.896 34.2372 41.8379L33.8844 41.5722C33.8067 41.5141 33.7021 41.5294 33.6452 41.6088L32.6945 42.9285C32.6377 43.0079 32.6526 43.1148 32.7304 43.1728L36.3062 45.8671Z" fill="#767676"/>
<path d="M37.4659 42.9745C37.5018 43.0172 37.5377 43.0478 37.5526 43.0631L38.025 43.4999C38.0968 43.564 38.2014 43.5579 38.2672 43.4846L38.5841 43.1181C38.6469 43.0447 38.6409 42.9378 38.5692 42.8706L38.1715 42.5102C38.1416 42.4827 38.1147 42.4582 38.0908 42.4277L36.6347 40.769L38.3659 41.9328C38.4376 41.9787 38.5333 41.9634 38.5871 41.8992L38.9309 41.5021C38.9848 41.441 38.9848 41.3463 38.9309 41.2791L37.5915 39.6662L39.3824 40.9401C39.4183 40.9614 39.4422 40.9859 39.4751 41.0134L39.8727 41.3738C39.9445 41.438 40.0521 41.4319 40.1149 41.3585L40.4318 40.992C40.4916 40.9248 40.4886 40.8087 40.4169 40.7445L39.9355 40.3199C39.9206 40.3047 39.8847 40.2741 39.8399 40.2405L36.7005 38.145C36.6287 38.0992 36.539 38.1114 36.4793 38.1786L36.1354 38.5757C36.0816 38.6399 36.0816 38.7315 36.1354 38.7987L37.6931 40.7384L35.6242 39.3883C35.5524 39.3424 35.4627 39.3547 35.4029 39.4219L35.0621 39.8129C35.0023 39.8801 35.0052 39.9748 35.0561 40.042L37.4659 42.9745Z" fill="#767676"/>
<path d="M41.1671 40.0174C41.2329 40.0877 41.3405 40.0907 41.4093 40.0205L41.7531 39.6814C41.8219 39.6142 41.8249 39.5042 41.7561 39.434L38.6707 36.1808C38.6049 36.1105 38.4943 36.1044 38.4255 36.1716L38.0817 36.5107C38.0129 36.5779 38.0159 36.6909 38.0817 36.7612L41.1671 40.0174Z" fill="#767676"/>
<path d="M42.162 38.05C42.47 38.4227 43.0291 38.4716 43.3939 38.1569L43.9679 37.6621C44.3327 37.3475 44.3806 36.7763 44.0726 36.4036L41.6657 33.4927C41.6029 33.4193 41.4923 33.4041 41.4205 33.4652L41.0558 33.7798C40.984 33.8439 40.978 33.9569 41.0408 34.0303L43.3969 36.8771C43.4597 36.9504 43.4447 37.0634 43.37 37.1275L42.9843 37.4605C42.9125 37.5246 42.7989 37.5185 42.7391 37.4452L40.383 34.5984C40.3202 34.5251 40.2096 34.5098 40.1378 34.5709L39.7731 34.8855C39.7013 34.9497 39.6953 35.0627 39.7581 35.136L42.162 38.05Z" fill="#767676"/>
<path d="M44.8857 35.6648C44.9126 35.7137 44.9366 35.7534 44.9515 35.7717L45.3073 36.3093C45.3611 36.3887 45.4658 36.4101 45.5465 36.3551L45.9382 36.0772C46.0159 36.0222 46.0368 35.9153 45.983 35.8359L45.681 35.3868C45.6571 35.3532 45.6392 35.3227 45.6212 35.286L44.5987 33.3188L46.0039 34.8706C46.0607 34.9317 46.1594 34.9409 46.2252 34.892L46.6527 34.5896C46.7215 34.5407 46.7424 34.4521 46.7065 34.3727L45.7827 32.4788L47.2208 34.1527C47.2507 34.1833 47.2686 34.2108 47.2925 34.2474L47.5945 34.6965C47.6483 34.7759 47.753 34.7973 47.8307 34.7423L48.2254 34.4643C48.2971 34.4124 48.324 34.3024 48.2672 34.223L47.8995 33.6946C47.8875 33.6762 47.8606 33.6365 47.8247 33.5938L45.2684 30.7957C45.2116 30.7346 45.1189 30.7224 45.0472 30.7743L44.6196 31.0767C44.5509 31.1256 44.5299 31.2172 44.5658 31.2936L45.6242 33.5571L43.932 31.7426C43.8752 31.6816 43.7825 31.6693 43.7107 31.7213L43.2892 32.0176C43.2174 32.0695 43.1935 32.1611 43.2294 32.2375L44.8857 35.6648Z" fill="#767676"/>
<path d="M50.6595 32.0021C50.8718 32.442 51.401 32.6253 51.8316 32.4114L52.5073 32.0724C52.9378 31.8555 53.1172 31.3148 52.908 30.875L52.0558 29.1002C52.014 29.0117 51.9123 28.9781 51.8256 29.0208L50.9795 29.4454C50.8928 29.4882 50.8599 29.592 50.9017 29.6776L51.0901 30.0655C51.1319 30.1541 51.2366 30.1938 51.3203 30.151L51.5834 30.0197L52.1336 31.159C52.1754 31.2476 52.1336 31.3515 52.0499 31.3943L51.5894 31.6264C51.5087 31.6661 51.404 31.6356 51.3622 31.547L50.0974 28.9139C50.0586 28.8314 50.0944 28.7215 50.1752 28.6818L50.6356 28.4496C50.7223 28.4069 50.83 28.4435 50.8688 28.526L50.9884 28.7765C51.0303 28.865 51.1319 28.8986 51.2187 28.8559L51.6492 28.639C51.7359 28.5962 51.7688 28.4924 51.7269 28.4068L51.5715 28.0861C51.3562 27.6401 50.83 27.463 50.3994 27.6768L49.7237 28.0159C49.2872 28.2358 49.1108 28.7673 49.3261 29.2133L50.6595 32.0021Z" fill="#767676"/>
<path d="M53.836 30.4682C53.845 30.511 53.851 30.5293 53.8629 30.5537L54.0812 31.1249C54.1171 31.2166 54.2127 31.2593 54.3024 31.2227L54.7479 31.0455C54.8376 31.0089 54.8794 30.9111 54.8436 30.8195L54.6163 30.2269L55.4684 29.8848L55.6957 30.4774C55.7315 30.569 55.8272 30.6118 55.9109 30.5782L56.3624 30.3979C56.452 30.3613 56.4939 30.2635 56.458 30.1719L56.2398 29.6007C56.2308 29.5732 56.2218 29.5549 56.2009 29.5182L54.2845 26.1459C54.2456 26.0787 54.153 26.0329 54.0692 26.0665L53.1155 26.4483C53.0318 26.4819 52.984 26.5674 53.0049 26.656L53.836 30.4682ZM55.0977 29.1914L54.422 29.4602L53.8809 27.0317L55.0977 29.1914Z" fill="#767676"/>
<path d="M56.4693 26.7968C56.6397 27.3863 57.2496 27.71 57.8266 27.542L58.1286 27.4504C58.2721 27.4076 58.4246 27.484 58.4664 27.6306L58.7206 28.5012C58.7624 28.6478 58.6817 28.8035 58.5352 28.8494L58.2332 28.941C58.0897 28.9838 57.9373 28.9013 57.8924 28.7516L57.722 28.1682C57.6951 28.0735 57.6024 28.0216 57.5097 28.0491L57.0523 28.1896C56.9596 28.2171 56.9088 28.3118 56.9387 28.4065L57.0971 28.9563C57.2676 29.5458 57.8805 29.8848 58.4575 29.7077L58.7594 29.616C59.3365 29.4419 59.6653 28.8158 59.4949 28.2262L59.2557 27.4015C59.0823 26.8059 58.4784 26.473 57.8954 26.6501L57.5934 26.7418C57.4469 26.7784 57.2974 26.7021 57.2526 26.5524L57.133 26.1431C57.0912 25.9965 57.1749 25.8468 57.3184 25.801L57.6204 25.7094C57.7639 25.6666 57.9163 25.743 57.9582 25.8896L58 26.0301C58.0269 26.1248 58.1196 26.1767 58.2123 26.1492L58.6697 26.0087C58.7624 25.9812 58.8132 25.8865 58.7833 25.7918L58.7505 25.6788C58.5801 25.0893 57.9731 24.7503 57.3901 24.9274L57.0882 25.019C56.5111 25.1931 56.1793 25.8193 56.3527 26.4088L56.4693 26.7968Z" fill="#767676"/>
<path d="M60.6707 28.1593C60.7693 28.645 61.2298 28.9536 61.7022 28.8528L62.4377 28.697C62.9071 28.5992 63.2151 28.1257 63.1164 27.6431L62.5065 24.6159C62.4078 24.1302 61.9414 23.8156 61.4719 23.9133L60.7364 24.0691C60.2611 24.1699 59.9591 24.6464 60.0577 25.1321L60.6707 28.1593ZM61.0175 24.8297L61.5138 24.7259C61.6065 24.7075 61.7022 24.7564 61.7201 24.8542L62.3002 27.7256C62.3181 27.8203 62.2553 27.9211 62.1626 27.9394L61.6663 28.0433C61.5736 28.0616 61.4749 27.9974 61.457 27.9027L60.88 25.0313C60.859 24.9366 60.9248 24.8511 61.0175 24.8297Z" fill="#767676"/>
<path d="M64.5964 28.3179L66.19 28.1132C66.2857 28.101 66.3515 28.0155 66.3395 27.9177L66.2857 27.4748C66.2737 27.3771 66.19 27.3129 66.0943 27.3251L65.1466 27.4473L64.6682 23.5618C64.6562 23.4641 64.5725 23.3999 64.4769 23.4121L64.0015 23.4732C63.9058 23.4854 63.843 23.571 63.855 23.6687L64.4111 28.1713C64.4171 28.266 64.5038 28.3301 64.5964 28.3179Z" fill="#767676"/>
<path d="M67.5656 27.9973L68.0439 27.9637C68.1396 27.9576 68.2083 27.8751 68.2024 27.7774L67.9094 23.2596C67.9034 23.1618 67.8227 23.0824 67.727 23.0915L67.2486 23.1251C67.153 23.1313 67.0842 23.2198 67.0902 23.3176L67.3832 27.8354C67.3892 27.9332 67.4699 28.0034 67.5656 27.9973Z" fill="#767676"/>
<path d="M69.5582 27.8843H70.0007C70.0964 27.8843 70.1711 27.8079 70.1711 27.7102L70.1741 24.8358L71.0651 27.7621C71.086 27.8385 71.1548 27.8874 71.2295 27.8874H71.7348C71.8305 27.8874 71.9052 27.811 71.9052 27.7132L71.9112 23.1772C71.9112 23.0794 71.8365 23.0031 71.7408 23.0031H71.2833C71.1877 23.0031 71.1129 23.0794 71.1129 23.1772L71.1099 25.627L70.3146 23.1191C70.2877 23.0489 70.2249 23 70.1502 23H69.5612C69.4655 23 69.3908 23.0764 69.3908 23.1741L69.3848 27.7102C69.3878 27.8079 69.4625 27.8843 69.5582 27.8843Z" fill="#767676"/>
<path d="M73.232 27.9639L74.8315 28.0983C74.9272 28.1074 75.008 28.0372 75.0169 27.9394L75.0528 27.4934C75.0618 27.3957 74.993 27.3132 74.8973 27.304L73.9495 27.2246L74.0661 25.7553L74.6641 25.8042C74.7598 25.8134 74.8405 25.7431 74.8495 25.6454L74.8854 25.2146C74.8943 25.1169 74.8256 25.0344 74.7299 25.0252L74.1289 24.9764L74.2126 23.9408L75.1604 24.0203C75.2561 24.0294 75.3368 23.9592 75.3458 23.8614L75.3817 23.4154C75.3906 23.3177 75.3219 23.2352 75.2262 23.226L73.6266 23.0916C73.531 23.0825 73.4502 23.1527 73.4413 23.2505L73.0795 27.7745C73.0675 27.8722 73.1363 27.9547 73.232 27.9639Z" fill="#767676"/>
<path d="M76.2534 28.2813L76.382 28.2996L76.2773 28.4523C76.2534 28.4829 76.2325 28.5226 76.2265 28.5654L76.2086 28.6967C76.1996 28.7517 76.2415 28.8067 76.2893 28.8128L76.5195 28.8464C76.5673 28.8525 76.6211 28.8128 76.6271 28.7578L76.6331 28.7242C76.639 28.6906 76.663 28.657 76.6719 28.6448L76.8274 28.4126C76.8453 28.379 76.8573 28.3454 76.8633 28.3118L76.944 27.7314C76.9559 27.6337 76.8991 27.5543 76.8184 27.5451L76.364 27.4779C76.2684 27.4626 76.1847 27.5237 76.1727 27.6184L76.1069 28.0888C76.095 28.1866 76.1577 28.266 76.2534 28.2813Z" fill="#767676"/>
<path d="M78.1574 28.5804L79.3204 28.8309C79.9093 28.9592 80.4924 28.5682 80.6149 27.9695L81.1501 25.3822C81.2757 24.7743 80.896 24.1787 80.307 24.0504L79.144 23.7999C79.0513 23.7785 78.9586 23.8457 78.9407 23.9404L78.0258 28.3727C78.0049 28.4705 78.0617 28.559 78.1574 28.5804ZM79.6193 24.7071L80.1485 24.8201C80.295 24.8507 80.3907 25.0004 80.3608 25.15L79.8077 27.8259C79.7778 27.9756 79.6313 28.0734 79.4848 28.0428L78.9556 27.9298L79.6193 24.7071Z" fill="#767676"/>
<path d="M81.6187 29.4085L82.0791 29.5399C82.1718 29.5674 82.2645 29.5124 82.2884 29.4207L83.4933 25.0587C83.5202 24.964 83.4694 24.8632 83.3767 24.8357L82.9163 24.7044C82.8236 24.6769 82.7279 24.738 82.704 24.8327L81.4991 29.1947C81.4722 29.2863 81.526 29.381 81.6187 29.4085Z" fill="#767676"/>
<path d="M83.5533 29.9978L85.0692 30.5385C85.1589 30.5721 85.2545 30.5232 85.2874 30.4316L85.4309 30.01C85.4638 29.9184 85.416 29.8207 85.3263 29.7871L84.4293 29.4664L84.9047 28.0766L85.4728 28.2782C85.5625 28.3118 85.6582 28.2629 85.691 28.1713L85.8316 27.762C85.8645 27.6704 85.8166 27.5726 85.7269 27.539L85.1589 27.3374L85.4967 26.3569L86.3937 26.6777C86.4834 26.7113 86.579 26.6624 86.6119 26.5708L86.7554 26.1492C86.7883 26.0576 86.7405 25.9599 86.6508 25.9263L85.1349 25.3856C85.0452 25.352 84.9496 25.4009 84.9167 25.4925L83.4487 29.7749C83.4188 29.8695 83.4636 29.9673 83.5533 29.9978Z" fill="#767676"/>
<path d="M87.176 31.4189L87.4631 31.5472C88.0132 31.7946 88.6619 31.538 88.9041 30.9759L89.242 30.1907C89.4871 29.6225 89.239 28.9687 88.6829 28.7182L88.3959 28.5899C88.2613 28.5227 88.1955 28.3639 88.2553 28.2203L88.4228 27.8323C88.4826 27.6918 88.644 27.6337 88.7815 27.6948L89.0686 27.8231C89.2061 27.8842 89.2719 28.0431 89.2121 28.1836L89.1553 28.318C89.1164 28.4066 89.1553 28.5074 89.242 28.5472L89.6785 28.7457C89.7652 28.7854 89.8639 28.7457 89.9027 28.6571L89.9506 28.5472C90.1927 27.985 89.9476 27.3252 89.3915 27.0746L89.1045 26.9463C88.5543 26.6989 87.9055 26.9555 87.6634 27.5176L87.5049 27.8812C87.2627 28.4433 87.5198 29.094 88.067 29.3476L88.354 29.4759C88.4915 29.537 88.5573 29.6958 88.4975 29.8364L88.1387 30.6673C88.0789 30.8079 87.9175 30.872 87.777 30.8109L87.49 30.6826C87.3524 30.6215 87.2896 30.4565 87.3494 30.3129L87.5886 29.7569C87.6275 29.6683 87.5886 29.5675 87.5019 29.5278L87.0654 29.3292C86.9787 29.2895 86.88 29.3292 86.8412 29.4178L86.6139 29.9402C86.3748 30.5085 86.6259 31.1714 87.176 31.4189Z" fill="#767676"/>
<path d="M89.5817 32.5793L90.9959 33.3582C91.0796 33.4041 91.1812 33.3735 91.2261 33.288L91.4324 32.8939C91.4772 32.8084 91.4473 32.7046 91.3636 32.6587L90.5265 32.1975L91.2111 30.9023L91.7403 31.1925C91.824 31.2384 91.9257 31.2078 91.9705 31.1223L92.1709 30.7404C92.2157 30.6549 92.1858 30.5511 92.1021 30.5052L91.5729 30.2151L92.0543 29.2987L92.8914 29.7599C92.9751 29.8057 93.0768 29.7752 93.1246 29.6897L93.3309 29.2956C93.3757 29.2101 93.3458 29.1062 93.2621 29.0604L91.848 28.2815C91.7642 28.2357 91.6626 28.2662 91.6177 28.3517L89.513 32.3441C89.4651 32.4296 89.495 32.5335 89.5817 32.5793Z" fill="#767676"/>
<path d="M92.2426 34.1066L93.597 34.9863C93.6777 35.0383 93.7824 35.0138 93.8332 34.9313L94.0664 34.5556C94.1172 34.4732 94.0933 34.3663 94.0156 34.3143L93.2083 33.792L95.2623 30.4839C95.3132 30.4014 95.2892 30.2945 95.2085 30.2426L94.8049 29.9799C94.7242 29.928 94.6195 29.9524 94.5687 30.0349L92.1888 33.8653C92.138 33.9478 92.1619 34.0547 92.2426 34.1066Z" fill="#767676"/>
<path d="M94.9199 35.1422L94.6478 35.527C94.591 35.6065 94.612 35.7073 94.6897 35.7653L94.7943 35.8417L94.6329 35.9272C94.597 35.9424 94.5611 35.9699 94.5372 36.0035L94.4624 36.1105C94.4296 36.1563 94.4415 36.2235 94.4804 36.254L94.6688 36.3915C94.7076 36.4189 94.7734 36.4098 94.8063 36.364L94.8273 36.3365C94.8482 36.309 94.8841 36.2907 94.899 36.2846L95.1412 36.1532C95.1711 36.1318 95.198 36.1074 95.219 36.0799L95.5539 35.6034C95.6107 35.524 95.5957 35.4262 95.5269 35.3774L95.1562 35.1055C95.0754 35.0505 94.9738 35.0628 94.9199 35.1422Z" fill="#767676"/>
<path d="M96.6245 37.262C96.6992 37.3231 96.8039 37.3109 96.8637 37.2376L98.1553 35.6124L98.6277 36.0034C98.7024 36.0645 98.8071 36.0523 98.8669 35.979L99.139 35.6369C99.1988 35.5605 99.1898 35.4536 99.115 35.3925L98.6426 35.0015L99.2795 34.2011L100.021 34.8182C100.096 34.8793 100.2 34.8701 100.26 34.7938L100.535 34.4455C100.595 34.3692 100.583 34.2622 100.511 34.2011L99.2645 33.1656C99.1898 33.1045 99.0851 33.1137 99.0253 33.19L96.2238 36.7121C96.164 36.7885 96.176 36.8954 96.2477 36.9565L96.6245 37.262Z" fill="#767676"/>
<path d="M99.0092 39.3698L99.5534 39.8983C99.9002 40.2343 100.459 40.2221 100.791 39.8678L103.362 37.1064C103.428 37.0361 103.431 36.9231 103.359 36.8559L103.013 36.5199C102.944 36.4527 102.833 36.4618 102.767 36.5321L100.253 39.2324C100.187 39.3026 100.077 39.3026 100.008 39.2324L99.6401 38.875C99.5713 38.8078 99.5623 38.6948 99.6281 38.6245L102.143 35.9242C102.208 35.854 102.211 35.741 102.14 35.6738L101.793 35.3377C101.724 35.2705 101.613 35.2797 101.548 35.35L98.9763 38.1113C98.6504 38.4626 98.6624 39.0338 99.0092 39.3698Z" fill="#767676"/>
<path d="M101.098 41.499L102.168 42.7207C102.231 42.7941 102.338 42.8002 102.41 42.733L102.736 42.4336C102.808 42.3695 102.814 42.2595 102.748 42.1862L102.114 41.4623L103.188 40.4788L103.588 40.9369C103.651 41.0102 103.759 41.0163 103.83 40.9491L104.144 40.659C104.216 40.5948 104.222 40.4849 104.156 40.4116L103.756 39.9534L104.512 39.26L105.146 39.9809C105.209 40.0542 105.316 40.0603 105.388 39.9931L105.714 39.6938C105.786 39.6296 105.792 39.5197 105.726 39.4463L104.655 38.2245C104.593 38.1512 104.485 38.1451 104.413 38.2123L101.107 41.2393C101.038 41.3187 101.035 41.4256 101.098 41.499Z" fill="#767676"/>
<path d="M103.081 43.8506L104.064 45.1457C104.124 45.222 104.229 45.2373 104.303 45.1762L104.65 44.9013C104.725 44.8402 104.74 44.7333 104.68 44.657L104.094 43.8842L107.123 41.4865C107.198 41.4254 107.213 41.3185 107.153 41.2422L106.86 40.8573C106.8 40.7809 106.695 40.7657 106.621 40.8268L103.11 43.6032C103.036 43.6643 103.024 43.7712 103.081 43.8506Z" fill="#767676"/>
<path d="M106.382 48.7202L106.759 49.3831C106.998 49.8046 107.536 49.9543 107.955 49.7069L110.571 48.1521C110.99 47.9016 111.133 47.3487 110.894 46.9272L110.517 46.2643C110.272 45.8367 109.734 45.6962 109.315 45.9436L106.699 47.4984C106.278 47.7489 106.137 48.2926 106.382 48.7202ZM107.186 48.1765L109.665 46.7012C109.749 46.6523 109.847 46.6889 109.895 46.7745L110.149 47.2204C110.197 47.306 110.179 47.4129 110.096 47.4617L107.614 48.9371C107.53 48.986 107.42 48.9554 107.372 48.873L107.118 48.427C107.076 48.3415 107.106 48.2254 107.186 48.1765Z" fill="#767676"/>
<path d="M107.812 51.3866L108.025 51.8234C108.067 51.912 108.168 51.9456 108.252 51.9029L112.228 49.896C112.315 49.8533 112.354 49.7463 112.312 49.6578L112.1 49.221C112.058 49.1324 111.95 49.1018 111.864 49.1446L107.887 51.1514C107.803 51.1973 107.768 51.3011 107.812 51.3866Z" fill="#767676"/>
<path d="M113.08 51.3504C113.044 51.2588 112.945 51.2191 112.856 51.2557L108.762 53.0152C108.676 53.0519 108.634 53.1527 108.673 53.2443L109.295 54.7564C109.331 54.845 109.429 54.8877 109.519 54.848L109.923 54.6739C110.012 54.6372 110.051 54.5364 110.015 54.4448L109.644 53.5437L113.178 52.0255C113.265 51.9889 113.307 51.8881 113.271 51.7964L113.08 51.3504Z" fill="#767676"/>
</g>
<defs>
<clipPath id="clip0_202_3299">
<rect width="140" height="140" fill="white"/>
</clipPath>
</defs>
</svg>
