<svg width="140" height="140" viewBox="0 0 140 140" fill="none" xmlns="http://www.w3.org/2000/svg">
<g clip-path="url(#clip0_202_3021)">
<path d="M62.2653 101.315C62.2946 102.886 60.4674 104.543 58.5229 104.633C58.7829 105.849 59.1015 107.035 58.5815 108.277C57.8271 110.234 55.7984 111.3 53.7954 111.034C50.5766 110.589 49.7051 106.055 52.8103 104.693C53.9126 104.218 55.5641 105.314 54.3483 106.41C53.6819 107.031 52.5796 107.211 53.0703 108.513C53.3596 109.224 54.1433 109.373 54.7804 109.254C55.8827 109.048 56.4905 108.098 56.5491 107.031C56.6956 106.111 56.3477 105.165 56.1134 104.214C54.6633 103.503 53.561 101.872 53.9675 100.215C54.2861 98.7633 56.0548 99.3544 55.359 100.275C55.0404 100.896 55.5055 101.786 56.0255 102.261C56.172 101.58 56.4027 100.929 56.7798 100.305C58.2336 98.0262 62.2068 97.9065 62.2653 101.315ZM60.0902 100.249C58.8122 100.013 58.2922 101.73 58.2629 102.65C58.2629 102.71 58.2629 102.77 58.2629 102.83C58.6987 102.77 59.1344 102.624 59.4823 102.385C60.3795 101.76 61.0496 100.574 60.0902 100.249Z" fill="#767676"/>
<path d="M66.066 101.049C65.7767 101.404 65.2237 102.115 64.6159 103.006C64.8173 103.006 64.9931 103.036 65.0809 103.036C65.546 103.066 65.0516 104.311 64.5024 104.311C64.301 104.311 64.008 104.281 63.7187 104.281C62.3565 106.268 60.9943 108.401 61.1957 108.58C61.5729 108.996 63.4001 106.893 64.1545 106.002C64.6781 105.411 65.3446 106.092 64.7917 106.713C63.488 108.105 61.5436 110.833 59.9763 110.537C58.8155 110.357 58.3504 109.025 59.3098 107.694C59.7163 107.102 60.5878 105.677 61.485 104.225C61.3385 104.225 61.1957 104.225 61.0492 104.225C60.5256 104.225 61.0785 102.95 61.6022 102.92C61.7486 102.92 62.0086 102.92 62.2979 102.92C63.2244 101.438 64.0373 100.162 64.301 99.9265C64.766 99.4813 65.3153 99.1259 65.7803 99.2456C66.2381 99.3878 66.9339 100.043 66.066 101.049Z" fill="#767676"/>
<path d="M72.2443 106.74C70.9663 108.131 69.0548 110.829 67.4876 110.563C66.909 110.444 66.6746 109.912 66.7332 109.258C66.2388 109.819 65.5724 110.324 64.8473 110.324C62.4415 110.324 63.1372 107.211 64.558 105.524C65.9789 103.833 67.7768 102.65 68.9084 103.122C69.2855 103.271 69.5162 103.567 69.6334 103.892C69.692 103.803 69.7213 103.743 69.7799 103.687C70.245 103.242 70.8235 102.886 71.2593 103.036C71.7536 103.155 72.4201 103.836 71.5779 104.843C70.5928 105.969 68.7363 108.221 69.0255 108.517C69.2855 108.782 70.9114 106.886 71.6658 105.999C72.1857 105.404 72.7936 106.145 72.2443 106.74ZM67.3997 106.74C68.3005 105.614 68.8498 104.667 68.6484 104.487C68.4763 104.308 67.5754 105.138 66.5904 106.354C65.6346 107.54 65.1403 108.696 65.2574 108.812C65.5138 109.078 66.4988 107.866 67.3997 106.74Z" fill="#767676"/>
<path d="M77.3492 101.049C77.0599 101.404 76.507 102.115 75.8991 103.006C76.1005 103.006 76.2763 103.036 76.3642 103.036C76.8292 103.066 76.3349 104.311 75.7856 104.311C75.5842 104.311 75.2912 104.281 75.002 104.281C73.6397 106.268 72.2775 108.401 72.4789 108.58C72.8561 108.996 74.6834 106.893 75.4377 106.002C75.9614 105.411 76.6278 106.092 76.0749 106.713C74.7713 108.105 72.8268 110.833 71.2595 110.537C70.0987 110.357 69.6336 109.025 70.593 107.694C70.9995 107.102 71.871 105.677 72.7682 104.225C72.6217 104.225 72.4789 104.225 72.3324 104.225C71.8088 104.225 72.3617 102.95 72.8854 102.92C73.0318 102.92 73.2918 102.92 73.5811 102.92C74.5076 101.438 75.3205 100.162 75.5842 99.9265C76.0492 99.4813 76.5985 99.1259 77.0636 99.2456C77.5213 99.3878 78.2171 100.043 77.3492 101.049Z" fill="#767676"/>
<path d="M79.4928 106.74C78.1855 108.131 76.3033 110.829 74.7067 110.563C73.5751 110.358 73.458 109.022 74.3881 107.69C75.3731 106.328 76.4754 104.222 76.999 103.691C77.4641 103.245 78.0427 102.89 78.4784 103.04C78.9728 103.159 79.6686 103.84 78.797 104.847C77.812 105.973 75.9554 108.225 76.2447 108.521C76.5047 108.786 78.1599 106.889 78.9142 106.003C79.4049 105.404 80.0421 106.145 79.4928 106.74ZM79.5514 102.235C78.1599 102.235 79.5221 99.0925 81.1187 99.4479C82.5944 99.7734 80.6536 102.591 79.5514 102.235Z" fill="#767676"/>
<path d="M86.4558 106.739C86.02 107.185 85.5586 107.776 85.0642 108.341C83.962 109.556 83.6141 110.002 82.5412 109.792C82.3654 109.762 82.2519 109.702 82.1347 109.613C81.439 110.118 80.7432 110.383 80.161 110.383C78.1872 110.383 77.55 108.337 78.7401 106.294C79.9303 104.221 81.8711 102.886 83.2662 102.886C84.7456 102.886 85.8772 104.132 84.7164 106.47C84.3392 107.211 83.9034 107.862 83.4384 108.427C83.6398 108.337 83.9877 108.071 84.3392 107.686C84.8885 107.121 85.4707 106.44 85.8479 105.995C86.3679 105.404 87.005 106.144 86.4558 106.739ZM83.1784 104.633C82.3361 104.633 79.4945 108.722 80.3074 108.722C80.9153 108.722 84.0206 104.633 83.1784 104.633Z" fill="#767676"/>
<path d="M93.2403 106.74C91.9366 108.132 90.0508 110.829 88.4542 110.563C86.8576 110.268 87.2641 108.696 88.2235 107.365C89.1499 106.033 90.3401 105.023 90.1386 104.757C89.9629 104.491 88.2235 106.298 87.6742 106.889C87.037 107.866 86.3962 108.816 85.9934 109.377C85.3855 110.238 85.1219 110.563 84.4261 110.563C83.3532 110.563 83.6425 109.112 84.9498 107.365C85.9055 106.033 86.7477 104.637 86.8942 104.342C87.33 103.451 87.4728 103.01 88.0843 103.01C88.5494 103.01 89.128 103.365 89.2158 103.986C89.9116 103.425 90.6367 103.01 91.3617 103.01C92.0575 103.01 93.0425 103.84 92.1161 105.202C91.1896 106.564 89.7102 108.225 89.9995 108.521C90.2595 108.786 91.8854 106.889 92.6397 106.003C93.1524 105.404 93.7932 106.145 93.2403 106.74Z" fill="#767676"/>
<path d="M18.8141 64.085L19.8101 65.9781C21.1797 68.5821 20.2203 71.8558 17.7009 73.2401L15.4708 74.4672L20.0042 83.0723C20.2239 83.4876 20.0738 83.9852 19.671 84.2097L17.646 85.3246C17.2395 85.5491 16.7524 85.3957 16.5327 84.9841L6.40394 65.7649C6.18423 65.3496 6.33435 64.852 6.73716 64.6275L11.7137 61.8889C14.2367 60.5008 17.4446 61.4848 18.8141 64.085ZM15.2621 65.8472C14.9178 65.1962 14.1488 64.9343 13.5117 65.286L11.2816 66.5131L13.5886 70.8905L15.8187 69.6633C16.4559 69.3117 16.6682 68.511 16.3387 67.89L15.2621 65.8472Z" fill="#767676"/>
<path d="M25.4712 59.8126L27.163 64.5079L29.8765 63.4865C30.3086 63.3256 30.7736 63.5426 30.9311 63.9841L31.6342 65.937C31.7916 66.3785 31.5793 66.8537 31.1472 67.0145L28.4337 68.0359L30.8286 74.6841L35.1166 73.0716C35.5487 72.9108 36.0138 73.1278 36.1713 73.5692L36.8963 75.5858C37.0538 76.0273 36.8414 76.5024 36.4093 76.6633L29.1588 79.3907C28.7267 79.5515 28.2616 79.3345 28.1041 78.8931L20.7218 58.4096C20.5643 57.9681 20.7767 57.493 21.2088 57.3321L28.4557 54.6047C28.8878 54.4438 29.3528 54.6608 29.5103 55.1023L30.2354 57.1189C30.3928 57.5603 30.1804 58.0355 29.7483 58.1963L25.4712 59.8126Z" fill="#767676"/>
<path d="M43.5545 51.3348L44.0782 53.486C44.188 53.9425 43.8914 54.3989 43.4776 54.5037L40.7349 55.1995L45.1584 73.4196C45.2683 73.876 45.0046 74.3249 44.5579 74.4372L42.3241 75.0021C41.9103 75.1069 41.4379 74.845 41.3281 74.3886L36.9045 56.1685L34.1911 56.8569C33.7443 56.9692 33.3049 56.6998 33.195 56.2433L32.6714 54.0921C32.5615 53.6357 32.8252 53.1867 33.2719 53.0745L42.5548 50.7212C42.9759 50.6165 43.4447 50.8784 43.5545 51.3348Z" fill="#767676"/>
<path d="M56.9921 61.0399L60.6833 66.2103C60.8921 66.5209 61.0093 66.9099 61.0605 67.2766L61.5146 70.6026C61.5769 71.0665 61.3022 71.4818 60.8481 71.5454L58.5704 71.8709C58.1164 71.9345 57.6733 71.6239 57.611 71.16L57.2924 68.833C57.2412 68.4663 57.1276 68.1109 56.9116 67.733L52.5283 61.6423L53.9015 71.7212C53.9638 72.1851 53.6562 72.6041 53.2021 72.6677L50.9244 72.9932C50.4996 73.0531 50.0602 72.7426 49.9979 72.2787L47.0464 50.6579C46.9842 50.194 47.3247 49.7712 47.7458 49.7114L53.3778 48.9108C56.2415 48.503 58.8817 50.5681 59.2808 53.4938L59.5665 55.5889C59.8741 57.8486 58.7718 59.9737 56.9921 61.0399ZM53.8979 52.7343L51.3602 53.0972L52.0376 58.0544L54.5753 57.6915C55.2601 57.5942 55.7618 56.9133 55.6592 56.1463L55.3443 53.853C55.2454 53.1197 54.5826 52.637 53.8979 52.7343Z" fill="#767676"/>
<path d="M74.5109 51.7652L75.0052 66.6369C75.0858 69.0202 73.2439 70.9993 70.9442 71.0779L67.3299 71.2013C64.9973 71.2836 63.0602 69.4354 62.9833 67.0522L62.4889 52.1805C62.4084 49.7973 64.2173 47.7845 66.55 47.7059L70.1642 47.5825C72.4602 47.5039 74.4303 49.3858 74.5109 51.7652ZM70.578 52.2404C70.5634 51.769 70.1569 51.4472 69.6955 51.4659L67.264 51.552C66.8026 51.5669 66.4218 51.9186 66.4364 52.3863L66.9051 66.4836C66.9198 66.955 67.3299 67.3441 67.7877 67.3253L70.2192 67.2393C70.6806 67.2243 71.0614 66.8053 71.0431 66.3376L70.578 52.2404Z" fill="#767676"/>
<path d="M82.5015 48.6404L81.4323 67.4478L86.0243 67.721C86.482 67.7472 86.8225 68.14 86.7969 68.6076L86.6761 70.7514C86.6504 71.2191 86.2659 71.567 85.8082 71.5408L78.0963 71.0844C77.6385 71.0582 77.298 70.6654 77.3236 70.1977L78.5613 48.4085C78.587 47.9408 78.9715 47.5929 79.4292 47.6191L81.7252 47.7537C82.1866 47.7837 82.5272 48.1728 82.5015 48.6404Z" fill="#767676"/>
<path d="M94.6489 52.854L93.9495 57.8074L96.8131 58.2302C97.2671 58.2975 97.5747 58.7165 97.5088 59.1805L97.2195 61.2419C97.1536 61.7058 96.7435 62.0201 96.2894 61.9527L93.4258 61.53L92.4371 68.5448L96.9595 69.2107C97.4136 69.2781 97.7212 69.6971 97.6553 70.161L97.355 72.2898C97.2891 72.7537 96.879 73.068 96.4249 73.0006L88.7789 71.8745C88.3248 71.8072 88.0172 71.3881 88.0831 70.9242L91.1298 49.3185C91.1957 48.8546 91.6058 48.5404 92.0599 48.6077L99.7059 49.7338C100.16 49.8012 100.468 50.2202 100.402 50.6841L100.101 52.8129C100.036 53.2768 99.6254 53.591 99.1713 53.5237L94.6489 52.854Z" fill="#767676"/>
<path d="M113.253 52.8539L115.483 53.4338C115.93 53.5498 116.183 54.0324 116.069 54.4889L111.631 72.2563C111.063 74.5348 108.742 75.9378 106.515 75.3579L103.011 74.445C100.781 73.8651 99.4038 71.4931 99.975 69.2184L104.413 51.4509C104.527 50.9945 104.973 50.6952 105.42 50.8112L107.65 51.3911C108.097 51.5071 108.35 51.9897 108.236 52.4461L103.893 69.8245C103.78 70.2809 104.073 70.7373 104.519 70.8533L106.878 71.4669C107.324 71.5829 107.797 71.3247 107.91 70.8683L112.253 53.4899C112.36 53.0372 112.806 52.7379 113.253 52.8539Z" fill="#767676"/>
<path d="M129.123 79.9523L127.933 82.8293C127.749 83.2596 127.244 83.4392 126.852 83.2633L124.743 82.3243C124.322 82.1372 124.135 81.6508 124.318 81.2206L125.34 78.8186C125.42 78.6353 125.483 78.4782 125.534 78.2836L128.577 68.0287L123.348 76.6898C123.132 77.034 122.711 77.1762 122.348 77.0153L120.056 75.9977C119.693 75.8368 119.481 75.414 119.576 75.0175L122.216 65.204L116.943 74.4675C116.833 74.6396 116.767 74.793 116.691 74.9763L115.669 77.3782C115.486 77.8085 115.01 77.9993 114.589 77.8122L112.479 76.8731C112.058 76.6861 111.871 76.1997 112.055 75.7695L113.303 72.9186C113.344 72.825 113.435 72.6118 113.571 72.3761L123.102 56.7299C123.319 56.3857 123.74 56.2435 124.131 56.4193L126.391 57.4257C126.783 57.6016 126.966 58.0094 126.871 58.406L123.901 70.0864L130.276 59.9175C130.492 59.5733 130.913 59.4311 131.276 59.592L133.568 60.6096C133.96 60.7855 134.143 61.1933 134.048 61.5898L129.339 79.3798C129.254 79.6417 129.163 79.8587 129.123 79.9523Z" fill="#767676"/>
<path d="M72.7886 78.2129C72.774 78.2129 72.7557 78.2129 72.741 78.2129C72.7337 78.2129 72.7264 78.2129 72.7154 78.2129C72.7081 78.2129 72.7008 78.2129 72.6898 78.2129C72.6751 78.2129 72.6568 78.2129 72.6422 78.2129C49.4148 78.2129 28.9045 84.8648 16.5273 95.0336L22.379 98.0154L23.0858 104.94C25.1657 103.044 27.6998 101.218 30.6732 99.5119C41.7212 93.163 56.6251 89.6649 72.6385 89.6649C72.6532 89.6649 72.6715 89.6649 72.6861 89.6649C72.6934 89.6649 72.7008 89.6649 72.7118 89.6649C72.7191 89.6649 72.7264 89.6649 72.7374 89.6649C72.752 89.6649 72.7704 89.6649 72.785 89.6649C88.8021 89.6649 103.706 93.163 114.75 99.5119C117.724 101.222 120.258 103.044 122.338 104.94L123.044 98.0154L128.896 95.0336C116.526 84.8648 96.016 78.2129 72.7886 78.2129Z" fill="#767676"/>
<path d="M47.7599 107.518C48.9866 107.518 48.9866 105.576 47.7599 105.576C46.5332 105.576 46.5332 107.518 47.7599 107.518Z" fill="#767676"/>
<path d="M96.2833 107.518C97.5101 107.518 97.5101 105.576 96.2833 105.576C95.0566 105.576 95.0566 107.518 96.2833 107.518Z" fill="#767676"/>
<path d="M29.5214 94.5546C29.8619 95.1345 29.6788 95.8827 29.1112 96.2306C28.551 96.5747 27.8112 96.3914 27.4707 95.8116C27.1338 95.2392 27.3205 94.4798 27.8808 94.1356C28.4484 93.7877 29.1845 93.9822 29.5214 94.5546Z" fill="white"/>
<path d="M35.6419 92.1112L36.074 93.0503C36.3963 93.7499 36.107 94.588 35.4222 94.921L33.9428 95.6318C33.8329 95.6842 33.7084 95.6393 33.6572 95.5271L31.2733 90.3565C31.222 90.2442 31.266 90.117 31.3758 90.0646L32.7307 89.4136C33.4155 89.0844 34.2321 89.3912 34.5543 90.0908L34.7924 90.6071C34.9132 90.869 34.9535 91.1422 34.9059 91.4078C35.2245 91.5313 35.4881 91.7745 35.6419 92.1112ZM33.0822 91.7969L33.6974 91.5013C33.8622 91.4228 33.9355 91.2132 33.8586 91.0449L33.6059 90.4949C33.5253 90.3191 33.3203 90.2442 33.1555 90.3228L32.5403 90.6184L33.0822 91.7969ZM34.6862 92.5115C34.6056 92.3357 34.4005 92.2608 34.2358 92.3394L33.496 92.6948L34.2577 94.3485L34.9974 93.9931C35.1622 93.9145 35.2355 93.705 35.1512 93.5217L34.6862 92.5115Z" fill="white"/>
<path d="M36.5378 88.8005L37.0212 90.0164L37.7243 89.7246C37.8378 89.6797 37.9586 89.7321 38.0063 89.8443L38.2077 90.3494C38.2516 90.4653 38.2003 90.5888 38.0905 90.6374L37.3874 90.9292L38.0685 92.6502L39.1781 92.19C39.2879 92.1451 39.4124 92.1975 39.4564 92.3097L39.6651 92.8298C39.709 92.9457 39.6578 93.0692 39.5479 93.1178L37.673 93.8923C37.5595 93.9372 37.4387 93.8848 37.3911 93.7726L35.2891 88.475C35.2452 88.3628 35.2965 88.2356 35.4063 88.1869L37.2812 87.4125C37.3911 87.3676 37.5156 87.42 37.5595 87.5322L37.7646 88.0523C37.8085 88.1645 37.7572 88.2917 37.6474 88.3403L36.5378 88.8005Z" fill="white"/>
<path d="M40.9866 87.6927L40.928 87.5168C40.8657 87.3335 40.6717 87.2437 40.4922 87.3073L40.1187 87.442C39.9393 87.5056 39.8404 87.7002 39.9027 87.8835L40.0748 88.3885C40.137 88.5719 40.3311 88.6617 40.5142 88.6055L40.8877 88.4709C41.6128 88.2127 42.3891 88.5981 42.6418 89.3388L42.9897 90.3602C43.2387 91.0898 42.8578 91.8979 42.1438 92.1523L41.7703 92.287C41.0562 92.5414 40.2652 92.1523 40.0162 91.419L39.7855 90.7381C39.7452 90.6221 39.8038 90.4986 39.9173 90.4575L40.4849 90.2554C40.5984 90.2143 40.7193 90.2741 40.7596 90.3901L41.0049 91.1122C41.0672 91.2955 41.2649 91.3928 41.4443 91.3292L41.8179 91.1945C41.9973 91.1309 42.0925 90.9289 42.0302 90.7456L41.6604 89.6643C41.5981 89.481 41.404 89.3912 41.2246 89.4548L40.8511 89.5895C40.1334 89.8364 39.3497 89.4623 39.1007 88.7328L38.9396 88.2576C38.6906 87.5281 39.0714 86.7199 39.7855 86.4655L40.159 86.3309C40.8841 86.0727 41.664 86.4655 41.9131 87.1988L41.9607 87.341C42.0009 87.457 41.9424 87.5804 41.8288 87.6216L41.2612 87.8236C41.1477 87.8685 41.0269 87.8087 40.9866 87.6927Z" fill="white"/>
<path d="M45.2506 84.9395L45.4117 85.4969C45.4446 85.6166 45.375 85.7363 45.2652 85.77L44.5548 85.9833L45.9207 90.697C45.9536 90.8167 45.8914 90.9364 45.7742 90.9701L45.1956 91.1459C45.0894 91.1796 44.9613 91.116 44.9283 90.9963L43.5624 86.2825L42.863 86.4958C42.7458 86.5294 42.6286 86.4659 42.5957 86.3461L42.4346 85.7887C42.4016 85.669 42.4638 85.5493 42.581 85.5156L44.9832 84.7899C45.0931 84.7599 45.2176 84.8198 45.2506 84.9395Z" fill="white"/>
<path d="M52.0693 88.3139L52.4062 88.2391C52.5051 88.2166 52.6296 88.2877 52.6552 88.4075L52.7761 88.9649C52.8017 89.0847 52.7211 89.2006 52.604 89.2306L50.9415 89.6085C50.286 89.7581 49.6378 89.3353 49.495 88.6731L48.715 85.0776C48.5685 84.4078 48.9823 83.7456 49.6378 83.5997L50.3446 83.4388C51.0001 83.2891 51.6482 83.7119 51.791 84.3816L52.4319 87.3449C52.5124 87.719 52.3586 88.0969 52.0693 88.3139ZM50.7803 84.6061C50.7547 84.4864 50.6302 84.4041 50.513 84.434L49.8905 84.5762C49.7733 84.6024 49.6928 84.7296 49.722 84.8493L50.502 88.4486C50.5277 88.5609 50.6485 88.6394 50.7657 88.6132L51.6043 88.4224L50.7803 84.6061Z" fill="white"/>
<path d="M55.0481 82.515L55.6413 82.4102C55.7585 82.3877 55.872 82.4775 55.8903 82.5973L56.6996 87.3264C56.8021 87.9326 56.3956 88.5237 55.8024 88.6285L54.8686 88.7931C54.2754 88.8979 53.6968 88.4826 53.5943 87.8764L52.785 83.1473C52.763 83.0275 52.8399 82.9041 52.9571 82.8854L53.5503 82.7806C53.6675 82.7581 53.781 82.8479 53.7994 82.9677L54.5903 87.5921C54.6123 87.7118 54.7295 87.7904 54.8467 87.7679L55.4729 87.6557C55.59 87.6332 55.6779 87.521 55.6559 87.4013L54.865 82.7768C54.854 82.6571 54.9309 82.5337 55.0481 82.515Z" fill="white"/>
<path d="M60.7549 86.8925L60.8538 87.6594C60.8685 87.7829 60.7879 87.8914 60.6671 87.9064L60.0592 87.9887C59.9493 88.0036 59.8431 87.9213 59.8248 87.7979L59.7223 87.0047L58.5798 87.1581L58.6823 87.9513C58.697 88.0747 58.6164 88.1832 58.4956 88.1982L57.8987 88.2805C57.7778 88.2954 57.6716 88.2131 57.657 88.0897L57.5581 87.3227C57.5545 87.289 57.5508 87.2629 57.5508 87.2067L57.6643 82.2944C57.668 82.1785 57.7522 82.0887 57.8621 82.0737L59.1437 81.9016C59.2536 81.8866 59.3524 81.9727 59.3817 82.0662L60.7293 86.784C60.744 86.8326 60.7476 86.8588 60.7549 86.8925ZM59.4769 86.0357L58.6274 83.0165L58.5725 86.1554L59.4769 86.0357Z" fill="white"/>
<path d="M62.1432 81.7813L62.6046 86.6936L63.8058 86.5739C63.9266 86.5627 64.0291 86.6487 64.0401 86.7722L64.0914 87.3334C64.1024 87.4568 64.0181 87.5616 63.8973 87.5728L61.8833 87.7711C61.7624 87.7823 61.6599 87.6963 61.6489 87.5728L61.1142 81.8823C61.1033 81.7589 61.1875 81.6541 61.3083 81.6429L61.9089 81.583C62.0297 81.5718 62.1323 81.6578 62.1432 81.7813Z" fill="white"/>
<path d="M65.7098 87.4384L65.1093 87.4833C64.9884 87.4908 64.8896 87.401 64.8786 87.2776L64.4868 81.5834C64.4794 81.4599 64.5673 81.3477 64.6845 81.3402L65.2851 81.2953C65.4059 81.2878 65.5084 81.3851 65.5158 81.5086L65.9076 87.2027C65.9186 87.3262 65.8307 87.431 65.7098 87.4384Z" fill="white"/>
<path d="M69.3847 81.3056L69.4103 81.8856C69.414 82.009 69.3151 82.11 69.2053 82.1138L68.4656 82.1475L68.6743 87.0599C68.678 87.1834 68.5901 87.2844 68.4692 87.2881L67.8687 87.3143C67.7552 87.3181 67.649 87.2283 67.6453 87.1048L67.4366 82.1923L66.7042 82.226C66.5834 82.2298 66.4845 82.14 66.4808 82.0165L66.4552 81.4366C66.4515 81.3131 66.5394 81.2121 66.6603 81.2084L69.165 81.0961C69.2712 81.0886 69.3774 81.1822 69.3847 81.3056Z" fill="white"/>
<path d="M72.6632 81.0412L73.2674 81.0337C73.3883 81.0337 73.4835 81.1272 73.4835 81.2507L73.4908 82.1223C73.4908 82.2196 73.4761 82.3169 73.4322 82.4029L72.3593 84.7074L72.3812 86.9744C72.3812 87.0979 72.2897 87.1951 72.1688 87.1951L71.5646 87.2026C71.4438 87.2026 71.3486 87.1091 71.3486 86.9856L71.3266 84.7186L70.2024 82.4328C70.1658 82.3468 70.1401 82.2495 70.1401 82.1523L70.1328 81.2806C70.1328 81.1571 70.2244 81.0599 70.3452 81.0599L70.9494 81.0524C71.0703 81.0524 71.1655 81.1459 71.1655 81.2694L71.1728 81.939C71.1728 82.0101 71.1911 82.0812 71.2277 82.141L71.8319 83.383L72.4142 82.1298C72.4398 82.07 72.4545 81.9989 72.4545 81.9278L72.4471 81.2582C72.4508 81.1422 72.5424 81.0449 72.6632 81.0412Z" fill="white"/>
<path d="M78.9572 84.2998C78.9279 84.9771 78.3676 85.4973 77.7048 85.4636C77.0493 85.4336 76.533 84.8611 76.5659 84.1838C76.5952 83.514 77.1629 82.9864 77.8183 83.0201C78.4811 83.0538 78.9865 83.6338 78.9572 84.2998Z" fill="white"/>
<path d="M85.3647 85.5119L85.2585 86.5445C85.1816 87.3152 84.5078 87.8801 83.7535 87.7978L82.1276 87.6257C82.0068 87.6145 81.9226 87.506 81.9372 87.3825L82.5194 81.6996C82.5304 81.5762 82.6366 81.4901 82.7575 81.5051L84.2479 81.6622C85.0022 81.7408 85.5442 82.4367 85.4673 83.2073L85.4087 83.776C85.3794 84.0641 85.2768 84.3185 85.0974 84.5205C85.3025 84.8011 85.405 85.1453 85.3647 85.5119ZM84.343 85.351C84.3614 85.1602 84.2259 84.9844 84.0464 84.9657L83.2335 84.8797L83.0467 86.6979L83.8597 86.7839C84.0391 86.8026 84.2112 86.6605 84.2295 86.4622L84.343 85.351ZM83.3324 83.892L84.0098 83.9631C84.1893 83.9818 84.3614 83.8396 84.3797 83.6563L84.4419 83.054C84.4602 82.8632 84.3247 82.6873 84.1453 82.6686L83.4679 82.5975L83.3324 83.892Z" fill="white"/>
<path d="M87.7446 83.1135L87.5615 84.4118L88.3122 84.5203C88.433 84.539 88.5136 84.6475 88.4953 84.7673L88.4184 85.3061C88.4001 85.4295 88.2939 85.5118 88.1767 85.4931L87.426 85.3846L87.1697 87.2217L88.3525 87.3938C88.4733 87.4125 88.5539 87.521 88.5356 87.6407L88.4587 88.1982C88.4404 88.3217 88.3341 88.404 88.2133 88.3853L86.2103 88.0935C86.0894 88.0747 86.0125 87.9663 86.0272 87.8465L86.8181 82.1894C86.8364 82.0659 86.9426 81.9873 87.0635 82.0023L89.0665 82.2941C89.1874 82.3129 89.2643 82.4214 89.2496 82.5411L89.1727 83.0986C89.1544 83.222 89.0482 83.3006 88.9274 83.2856L87.7446 83.1135Z" fill="white"/>
<path d="M92.1152 84.4081L92.1481 84.2248C92.1811 84.034 92.0566 83.8582 91.8699 83.8245L91.4817 83.7534C91.295 83.7197 91.1155 83.8357 91.0826 84.0265L90.9873 84.554C90.9544 84.7448 91.0789 84.9206 91.2656 84.9618L91.6538 85.0329C92.4082 85.175 92.8988 85.9008 92.7597 86.6678L92.5693 87.7303C92.4338 88.4935 91.7124 89.0023 90.969 88.8638L90.5809 88.7928C89.8375 88.6543 89.3358 87.9173 89.4713 87.1579L89.5995 86.447C89.6215 86.3273 89.7313 86.2488 89.8485 86.2712L90.4417 86.3834C90.5589 86.4059 90.6358 86.5181 90.6138 86.6378L90.4783 87.3898C90.4454 87.5806 90.5699 87.7639 90.7566 87.7976L91.1448 87.8687C91.3316 87.9024 91.511 87.7752 91.544 87.5844L91.7454 86.4583C91.7783 86.2675 91.6538 86.0916 91.467 86.058L91.0789 85.9869C90.3355 85.841 89.8339 85.1189 89.9694 84.3595L90.0572 83.8656C90.1927 83.1062 90.9141 82.5936 91.6575 82.7321L92.0456 82.8031C92.8 82.9416 93.2907 83.6786 93.1515 84.438L93.1259 84.5839C93.1039 84.7037 92.9941 84.7822 92.8769 84.7598L92.2837 84.6475C92.1701 84.6438 92.0932 84.5316 92.1152 84.4081Z" fill="white"/>
<path d="M97.1191 84.1275L96.9946 84.6925C96.969 84.8122 96.8482 84.8833 96.7383 84.8571L96.0169 84.6925L94.9623 89.4887C94.9367 89.6085 94.8232 89.6833 94.706 89.6534L94.1164 89.5187C94.0066 89.4925 93.926 89.3765 93.9553 89.2568L95.0099 84.4605L94.2959 84.2959C94.1787 84.2697 94.1054 84.1537 94.1347 84.034L94.2592 83.4691C94.2849 83.3493 94.3984 83.2745 94.5156 83.3045L96.958 83.8656C97.0642 83.8918 97.1448 84.0078 97.1191 84.1275Z" fill="white"/>
<path d="M102.97 87.0272L102.813 87.566C102.597 88.3068 101.824 88.7333 101.106 88.5125L100.473 88.318L99.755 90.7687C99.7221 90.8884 99.6013 90.952 99.4877 90.9183L98.9091 90.7425C98.792 90.7088 98.7297 90.5853 98.7663 90.4693L100.367 84.9918C100.4 84.8758 100.52 84.8085 100.634 84.8422L102.051 85.2762C102.769 85.4969 103.186 86.2864 102.97 87.0272ZM101.992 86.683C102.047 86.4959 101.952 86.3051 101.769 86.249L101.136 86.0544L100.773 87.3003L101.407 87.4949C101.59 87.551 101.773 87.4425 101.824 87.2629L101.992 86.683Z" fill="white"/>
<path d="M105.419 89.8705L105.668 91.5279C105.679 91.6251 105.66 91.7299 105.631 91.8234L105.346 92.654C105.305 92.7699 105.192 92.8335 105.078 92.7924L104.511 92.5866C104.397 92.5455 104.331 92.4183 104.371 92.3023L104.573 91.7224C104.606 91.6326 104.62 91.5353 104.613 91.4194L104.313 89.4627L103.445 91.9768C103.405 92.0928 103.284 92.1526 103.17 92.1115L102.603 91.9057C102.497 91.8683 102.431 91.7411 102.471 91.6251L104.335 86.2341C104.375 86.1181 104.503 86.062 104.609 86.0994L106.016 86.6045C106.73 86.8626 107.1 87.667 106.847 88.3965L106.667 88.9203C106.466 89.4814 105.961 89.8406 105.419 89.8705ZM105.679 87.5585L105.045 87.3303L104.617 88.5648L105.25 88.7931C105.422 88.8529 105.62 88.7594 105.686 88.5686L105.884 87.9962C105.95 87.8129 105.851 87.6183 105.679 87.5585Z" fill="white"/>
<path d="M106.806 93.4956L106.246 93.2674C106.132 93.2225 106.081 93.0953 106.125 92.9831L108.198 87.6815C108.242 87.5656 108.37 87.5057 108.48 87.5506L109.04 87.7788C109.153 87.8237 109.201 87.9584 109.157 88.0744L107.084 93.3759C107.04 93.4882 106.92 93.5443 106.806 93.4956Z" fill="white"/>
<path d="M111.098 92.2875L111.647 92.5419C111.757 92.5943 111.801 92.729 111.749 92.8412L111.149 94.2031C110.9 94.7643 110.248 95.0224 109.691 94.768L108.827 94.3715C108.278 94.117 108.029 93.4436 108.274 92.8824L109.845 89.3244C110.098 88.7557 110.746 88.5051 111.303 88.7595L112.167 89.1561C112.723 89.4142 112.969 90.0764 112.72 90.6451L112.332 91.5281C112.284 91.6403 112.152 91.6964 112.042 91.6478L111.493 91.3934C111.383 91.341 111.339 91.2063 111.391 91.0941L111.742 90.3009C111.79 90.1887 111.735 90.0577 111.636 90.0091L111.046 89.7397C110.936 89.6873 110.805 89.7322 110.753 89.8445L109.27 93.2116C109.223 93.3239 109.278 93.4548 109.387 93.5072L109.977 93.7766C110.08 93.8252 110.211 93.7803 110.263 93.6681L110.819 92.411C110.86 92.295 110.988 92.2389 111.098 92.2875Z" fill="white"/>
<path d="M114.73 91.5466L114.136 92.7102L114.807 93.0694C114.913 93.1255 114.953 93.2564 114.898 93.3649L114.649 93.8475C114.594 93.956 114.466 93.9972 114.36 93.9411L113.69 93.5819L112.847 95.2281L113.909 95.7931C114.016 95.8492 114.056 95.9801 114.001 96.0886L113.745 96.5862C113.69 96.6947 113.561 96.7359 113.455 96.6798L111.661 95.722C111.555 95.6659 111.515 95.5349 111.569 95.4264L114.162 90.3569C114.217 90.2484 114.345 90.2072 114.451 90.2633L116.246 91.2211C116.352 91.2772 116.392 91.4082 116.337 91.5167L116.081 92.0143C116.026 92.1228 115.898 92.1639 115.792 92.1078L114.73 91.5466Z" fill="white"/>
<path d="M117.922 95.7857C117.582 96.3657 116.849 96.5565 116.282 96.2085C115.721 95.8643 115.527 95.1122 115.868 94.5322C116.205 93.9597 116.948 93.7689 117.508 94.1094C118.08 94.4574 118.259 95.2132 117.922 95.7857Z" fill="white"/>
<path d="M75.3552 34.8174C75.3552 38.2443 72.6344 41.0241 69.2802 41.0241C65.9259 41.0241 63.2051 38.2443 63.2051 34.8174C63.2051 31.3904 69.2802 22.0859 69.2802 22.0859C69.2802 22.0859 75.3552 31.3904 75.3552 34.8174Z" fill="#767676"/>
<path d="M56.478 43.3064C54.1344 43.3064 52.2266 41.3572 52.2266 38.9628C52.2266 36.7741 55.6175 31.5176 56.0056 30.9265L56.4817 30.2007L56.9577 30.9265C57.3459 31.5176 60.7368 36.7741 60.7368 38.9628C60.7295 41.3572 58.8216 43.3064 56.478 43.3064ZM56.478 32.3183C55.3099 34.2001 53.3654 37.6122 53.3654 38.9628C53.3654 40.7137 54.7606 42.1429 56.478 42.1429C58.1918 42.1429 59.5906 40.7174 59.5906 38.9628C59.5906 37.6122 57.6462 34.1964 56.478 32.3183Z" fill="#767676"/>
<path d="M83.4448 42.5544C81.1012 42.5544 79.1934 40.6052 79.1934 38.2108C79.1934 36.0222 82.5842 30.7657 82.9724 30.1745L83.4485 29.4487L83.9245 30.1745C84.3127 30.7657 87.7036 36.0222 87.7036 38.2108C87.6962 40.6052 85.7884 42.5544 83.4448 42.5544ZM83.4448 31.5663C82.2767 33.4482 80.3322 36.8602 80.3322 38.2108C80.3322 39.9655 81.7274 41.3909 83.4448 41.3909C85.1586 41.3909 86.5574 39.9655 86.5574 38.2108C86.5574 36.8602 84.6129 33.4482 83.4448 31.5663Z" fill="#767676"/>
</g>
<defs>
<clipPath id="clip0_202_3021">
<rect width="140" height="140" fill="white"/>
</clipPath>
</defs>
</svg>
