<svg width="140" height="140" viewBox="0 0 140 140" fill="none" xmlns="http://www.w3.org/2000/svg">
<g clip-path="url(#clip0_202_3157)">
<path d="M28.2563 56.929C28.2732 57.6382 28.192 58.3716 28.0091 59.1292C27.8262 59.8869 27.5689 60.6203 27.2404 61.3295C26.8206 62.2255 26.3126 63.0351 25.7167 63.7547C25.1207 64.4742 24.4773 65.0935 23.7832 65.6194C23.1432 66.0864 22.4727 66.4427 21.7684 66.6849C21.0641 66.9271 20.3834 67.0482 19.7265 67.0482H19.6182C18.7953 67.0309 18.0537 66.8371 17.3968 66.4739C16.7399 66.1106 16.1913 65.5813 15.7511 64.8894C15.4599 65.3945 15.2026 65.8477 14.9825 66.249C14.7624 66.6503 14.5795 66.9651 14.4339 67.1865C13.0794 69.4456 11.8029 71.1373 10.594 72.2582C9.89983 72.874 9.20566 73.3376 8.50811 73.6455C7.81394 73.9534 7.09269 74.1091 6.34096 74.1091C5.26077 74.1091 4.44808 73.8185 3.89952 73.2407C3.38821 72.6803 3.13086 71.9607 3.13086 71.082C3.13086 70.3174 3.31033 69.4975 3.66588 68.6292C4.02142 67.7608 4.51242 66.934 5.13209 66.1487C5.80932 65.2907 6.54074 64.6265 7.32633 64.1594C8.11192 63.6924 8.89075 63.4571 9.65602 63.4571C10.296 63.4571 10.8175 63.6439 11.2204 64.0176C11.5692 64.3532 11.7419 64.8133 11.7419 65.391C11.7419 65.8753 11.62 66.3908 11.3728 66.9305C11.1256 67.4737 10.7938 67.9753 10.3705 68.4423C9.9303 68.9301 9.44608 69.3107 8.91784 69.5909C8.29478 69.9092 7.69204 70.0683 7.10623 70.0683C6.96062 70.0683 6.84211 70.0234 6.75068 69.9265C6.65925 69.8331 6.61524 69.712 6.61524 69.5632C6.61524 69.4145 6.65925 69.2969 6.75068 69.2138C6.84211 69.1308 6.96062 69.0893 7.10623 69.0893C7.54643 69.0893 7.98664 68.9786 8.437 68.7537C8.88398 68.5288 9.30047 68.2036 9.68311 67.7747C10.0116 67.401 10.2757 66.9997 10.4789 66.5707C10.6786 66.1417 10.7802 65.7508 10.7802 65.3945C10.7802 65.3011 10.7701 65.1973 10.7531 65.0866C10.7362 64.9759 10.6854 64.8721 10.6008 64.7787C10.5195 64.6853 10.4044 64.6057 10.2588 64.54C10.1132 64.4742 9.90999 64.4431 9.65602 64.4431C9.03297 64.4431 8.39298 64.6437 7.73606 65.0451C7.07914 65.4464 6.45609 66.0207 5.87028 66.7679C5.32172 67.4598 4.88828 68.1863 4.5666 68.9544C4.24491 69.7189 4.08576 70.4316 4.08576 71.0854C4.08576 71.722 4.25168 72.2064 4.58014 72.5419C4.92553 72.9329 5.51134 73.13 6.33418 73.13C7.55998 73.13 8.7553 72.5869 9.92692 71.5041C11.0782 70.4593 12.304 68.8506 13.6009 66.6849C13.7465 66.4427 13.9429 66.1106 14.1901 65.6885C14.4373 65.2699 14.7116 64.7891 15.013 64.2459C15.3143 63.7028 15.6259 63.1215 15.9442 62.4954C16.2625 61.8692 16.5706 61.2292 16.8618 60.5753C17.302 59.6239 17.644 58.7971 17.8912 58.0948C18.1384 57.396 18.3111 56.7906 18.4127 56.2889C18.5143 55.7838 18.5583 55.3756 18.5481 55.0573C18.538 54.739 18.5075 54.4865 18.4533 54.2997C18.345 53.9641 18.1418 53.7392 17.8506 53.6285C17.4307 53.459 17.0142 53.4002 16.6045 53.4452C16.1913 53.4936 15.7985 53.6043 15.4261 53.7807C15.0502 53.9572 14.7048 54.1959 14.3831 54.4969C14.0614 54.7944 13.7838 55.1127 13.5467 55.4483C13.1641 56.0468 12.9237 56.6245 12.8323 57.185C12.795 57.3718 12.7916 57.5759 12.8187 57.8007C12.8458 58.0256 12.9406 58.2401 13.1065 58.4442C13.4722 58.894 13.9192 58.9286 14.4508 58.5549C14.8335 58.3128 15.1281 57.9668 15.3279 57.5171C15.5277 57.1261 15.5649 56.7975 15.4362 56.538C15.3076 56.2405 15.3888 56.026 15.6834 55.8946C15.7918 55.8392 15.9103 55.8288 16.039 55.8669C16.1676 55.9049 16.2591 55.9879 16.3132 56.1194C16.4419 56.3823 16.4927 56.666 16.4656 56.9739C16.4385 57.2818 16.3573 57.5863 16.2184 57.8838C16.083 58.1813 15.9069 58.4685 15.697 58.7383C15.487 59.0081 15.2534 59.2296 14.996 59.3956C14.5931 59.6585 14.1563 59.7866 13.6788 59.7866C13.2047 59.7693 12.7645 59.534 12.3616 59.0877C11.9214 58.5446 11.7588 57.863 11.8672 57.0431C11.9756 56.3131 12.2701 55.597 12.7442 54.8843C13.0354 54.4727 13.3842 54.0852 13.7872 53.7219C14.1901 53.3587 14.6269 53.0681 15.1044 52.8536C15.5784 52.6391 16.0796 52.5076 16.5977 52.4627C17.1192 52.4177 17.644 52.4938 18.1756 52.7014C18.7242 52.9262 19.117 53.3449 19.354 53.9607C19.4455 54.2789 19.4963 54.6387 19.5064 55.04C19.5166 55.4413 19.4658 55.8945 19.354 56.3996C19.8484 55.8565 20.3428 55.3894 20.8338 54.9985C21.511 54.4208 22.1883 53.9606 22.8621 53.6251C23.5393 53.2895 24.1692 53.075 24.755 52.9816C25.7979 52.8328 26.6106 53.075 27.1964 53.7116C27.9075 54.4173 28.2563 55.4898 28.2563 56.929ZM26.3634 60.9074C27.0203 59.5824 27.3319 58.2643 27.2946 56.9566C27.2946 56.3789 27.2303 55.8703 27.1016 55.431C26.9729 54.9916 26.7799 54.6526 26.526 54.4069C26.1772 53.9952 25.6388 53.8465 24.9074 53.9572C24.413 54.0333 23.8644 54.2236 23.2617 54.5315C22.6589 54.8394 22.0562 55.2476 21.4501 55.7492C20.827 56.2543 20.2649 56.8079 19.7638 57.4167C19.2592 58.0256 18.8359 58.6449 18.4872 59.2814C18.4872 59.2987 18.4838 59.3091 18.4736 59.3091C18.4635 59.3091 18.4601 59.3195 18.4601 59.3368C18.3517 59.5997 18.24 59.8661 18.1316 60.1359C18.0233 60.4058 17.8946 60.6929 17.749 60.9905C17.2749 62.018 16.7907 62.9797 16.2963 63.8757C16.6248 64.5849 17.0785 65.1212 17.6542 65.4879C18.2298 65.8511 18.8935 66.0449 19.6419 66.0622C20.2277 66.0795 20.827 65.9826 21.4399 65.7681C22.0528 65.5536 22.6522 65.2319 23.238 64.8029C23.878 64.3359 24.4638 63.7754 24.992 63.1215C25.5203 62.4677 25.9774 61.7308 26.3634 60.9074Z" fill="#767676"/>
<path d="M34.0127 68.6952C34.1041 68.7886 34.1549 68.8993 34.1651 69.0307C34.1752 69.1622 34.1312 69.2729 34.0432 69.3663C34.0262 69.4044 33.8231 69.6292 33.4404 70.0375C33.0578 70.4492 32.5431 70.9058 31.9031 71.4109C30.1287 72.774 28.5203 73.4556 27.0778 73.4556C26.3091 73.4556 25.7301 73.3172 25.3373 73.037C24.9445 72.7567 24.6567 72.4661 24.4738 72.1686C24.1251 71.5528 24.0269 70.7813 24.1725 69.8576C24.3181 68.9339 24.7109 67.9098 25.3509 66.7889C26.2448 65.1629 27.22 63.8379 28.2731 62.8104C29.3228 61.7828 30.315 61.1843 31.2496 61.0183C31.9641 60.9076 32.5566 61.0459 33.0307 61.4403C33.3964 61.7586 33.5962 62.1876 33.6334 62.7308C33.6504 63.2912 33.4777 63.914 33.112 64.5955C32.7463 65.277 32.2146 65.9724 31.5205 66.6817C30.7518 67.4843 29.9391 68.0724 29.079 68.4461C28.3646 68.7643 27.6805 68.9235 27.0236 68.9235C26.6952 68.9235 26.4006 68.8958 26.1466 68.8405C25.8893 68.7851 25.6793 68.7194 25.5168 68.6433C25.4253 68.8854 25.3475 69.1138 25.2831 69.3282C25.2188 69.5427 25.168 69.7538 25.1307 69.9579C25.0224 70.7052 25.0833 71.276 25.3238 71.6669C25.615 72.2101 26.2008 72.4799 27.0778 72.4799C27.8261 72.4799 28.5711 72.2897 29.3127 71.9057C30.0543 71.5216 30.7213 71.0996 31.3139 70.6325C31.9065 70.1655 32.3907 69.7365 32.7666 69.3421C33.1424 68.9512 33.3287 68.7436 33.3287 68.7263C33.4201 68.6329 33.5285 68.581 33.6571 68.5706C33.7858 68.5602 33.9043 68.6017 34.0127 68.6952ZM26.1703 67.2663C26.1331 67.3597 26.089 67.4428 26.0349 67.5189C25.9807 67.595 25.9333 67.678 25.896 67.7714C26.0416 67.8095 26.2109 67.8475 26.404 67.8821C26.597 67.9202 26.8205 67.9375 27.0744 67.9375C28.3375 67.9202 29.5971 67.2732 30.8602 66.0036C31.446 65.4051 31.8963 64.8238 32.218 64.253C32.5363 63.6822 32.6887 63.1944 32.6718 62.7827C32.6345 62.5405 32.5533 62.3433 32.4246 62.1945C32.1672 61.9697 31.8286 61.9039 31.4087 61.9973C31.043 62.0527 30.6502 62.2188 30.2303 62.4886C29.8105 62.7585 29.3804 63.1113 28.9402 63.5403C27.9514 64.5125 27.0304 65.7545 26.1703 67.2663Z" fill="#767676"/>
<path d="M40.65 61.5787C40.9615 61.6167 41.1173 61.7932 41.1173 62.1115C41.1003 62.2602 41.0394 62.3779 40.9378 62.4609C40.8362 62.5439 40.7245 62.5785 40.5958 62.5577C40.1928 62.5197 39.7188 62.5024 39.1702 62.5024C38.6217 62.5024 38.0731 62.5128 37.5245 62.5301C37.1216 63.2012 36.7322 63.8793 36.3597 64.5609C35.9838 65.2424 35.6622 65.8651 35.3879 66.4256C34.8562 67.4704 34.4702 68.3457 34.223 69.0445C33.9758 69.7434 33.8065 70.3108 33.7151 70.7398C33.6237 71.1687 33.5966 71.4974 33.6338 71.7188C33.6711 71.9437 33.7151 72.0925 33.7727 72.1686C33.7896 72.2066 33.837 72.2585 33.9081 72.3243C33.9826 72.39 34.135 72.4211 34.3754 72.4211C34.6869 72.4211 35.0662 72.3139 35.5132 72.0994C35.9601 71.8849 36.4511 71.5804 36.9794 71.1895C37.4196 70.8539 37.8598 70.4734 38.3101 70.0548C38.7571 69.6327 39.1465 69.2175 39.475 68.8093C39.5664 68.7159 39.6748 68.6605 39.8034 68.6398C39.9321 68.6225 40.0506 68.6571 40.159 68.7505C40.2504 68.8439 40.3046 68.9546 40.3249 69.086C40.3418 69.2175 40.308 69.3386 40.2165 69.4493C39.8508 69.8783 39.4343 70.3142 38.9704 70.7536C38.5031 71.193 38.0257 71.5977 37.5313 71.9714C36.2886 72.9228 35.2355 73.4002 34.3788 73.4002C33.9589 73.4002 33.6372 73.3206 33.4205 73.1615C33.2004 73.0023 33.0446 72.8397 32.9532 72.6702C32.6044 72.1098 32.5977 71.2137 32.9261 69.9786C33.2004 68.9338 33.7388 67.5984 34.5447 65.9724C34.8021 65.4673 35.0831 64.9207 35.3946 64.3325C35.7062 63.7444 36.0448 63.1424 36.4105 62.5266C36.1531 62.5439 35.9195 62.5578 35.7096 62.5681C35.4996 62.5785 35.3201 62.582 35.1745 62.582C34.9917 62.5993 34.8258 62.6096 34.6802 62.6096H34.6531C34.3619 62.6096 34.1959 62.4505 34.1587 62.1322C34.1587 61.9835 34.1993 61.8624 34.2806 61.769C34.3619 61.6756 34.477 61.6271 34.6226 61.6271C34.6598 61.6271 34.9003 61.6167 35.3506 61.5994C35.7976 61.5821 36.3428 61.5614 36.9828 61.5441C37.3112 60.9836 37.6261 60.4508 37.9275 59.9457C38.2289 59.4406 38.493 58.9943 38.7232 58.5999C38.9501 58.209 39.2109 57.78 39.5055 57.3095C39.58 57.1988 39.6782 57.1227 39.8068 57.0846C39.9355 57.0466 40.054 57.0673 40.1624 57.14C40.4366 57.3268 40.4908 57.5621 40.3283 57.8423C40.0709 58.2332 39.8441 58.6 39.6443 58.9355C39.4445 59.2711 39.2109 59.6586 38.9434 60.098C38.6792 60.5373 38.3982 61.0079 38.107 61.513C38.581 61.513 39.0449 61.513 39.4919 61.513C39.9321 61.5233 40.3215 61.5406 40.65 61.5787Z" fill="#767676"/>
<path d="M48.9864 68.7539C49.0779 68.8473 49.132 68.958 49.1524 69.0895C49.1693 69.2209 49.1354 69.342 49.044 69.4527C49.0068 69.4908 48.9627 69.5357 48.9086 69.5911C48.8544 69.6465 48.807 69.7018 48.7731 69.7606C47.9333 70.8054 47.1647 71.6772 46.4705 72.3656C45.7763 73.0576 45.1364 73.4035 44.5505 73.4035C44.0392 73.4035 43.6634 73.1994 43.4263 72.7877C43.1893 72.338 43.1893 71.6876 43.4263 70.8262C43.6634 69.9855 44.1747 68.8646 44.9637 67.4635C45.1093 67.2006 45.1194 66.7785 44.9907 66.1904C44.8621 65.6023 44.6081 64.9069 44.2221 64.1043C43.7277 64.8135 43.1554 65.6092 42.5087 66.4844C41.8585 67.3632 41.1068 68.3422 40.2467 69.425C40.1553 69.5358 40.0469 69.6015 39.9182 69.6222C39.7896 69.6395 39.6812 69.6049 39.5898 69.5115C39.4814 69.4181 39.4171 69.3074 39.3968 69.1759C39.3798 69.0445 39.4137 68.9234 39.5051 68.8127C41.3337 66.4775 42.7322 64.5921 43.7006 63.1529C43.5347 62.8 43.4907 62.3745 43.5652 61.8798C43.6363 61.3851 43.7209 60.9803 43.8124 60.6621C43.8496 60.5686 43.9004 60.4233 43.9647 60.2262C44.0291 60.029 44.1171 59.8214 44.2255 59.5965C44.3338 59.3716 44.4591 59.1468 44.5946 58.9254C44.7334 58.7005 44.8925 58.5137 45.0754 58.3649C45.2752 58.1954 45.4851 58.1089 45.7052 58.0986C45.9253 58.0882 46.1251 58.1677 46.308 58.3373C46.6906 58.6728 46.7753 59.2264 46.5552 59.9909C46.3554 60.5894 45.9795 61.347 45.431 62.2604C45.3395 62.4091 45.2447 62.5648 45.1431 62.7239C45.0415 62.8831 44.9366 63.0457 44.8282 63.2152C46.0168 65.4397 46.3351 67.0241 45.7865 67.979C45.3124 68.8196 44.9603 69.5115 44.73 70.0512C44.4998 70.5944 44.3508 71.0268 44.2763 71.3554C44.2018 71.6841 44.1747 71.9159 44.195 72.0543C44.2119 72.1961 44.2322 72.2826 44.2492 72.3207C44.2661 72.338 44.2932 72.3622 44.3304 72.3899C44.3677 72.4175 44.4388 72.4314 44.5505 72.4314C44.642 72.4314 44.8079 72.3691 45.0449 72.248C45.282 72.1269 45.6206 71.8433 46.0608 71.3935C46.4096 71.0752 46.7448 70.7155 47.0766 70.3141C47.4051 69.9128 47.7268 69.5254 48.0349 69.1517C48.0722 69.0964 48.1162 69.041 48.1704 68.9822C48.2245 68.9269 48.272 68.8715 48.3058 68.8127C48.3972 68.7193 48.5056 68.6639 48.6343 68.6432C48.7596 68.6224 48.8781 68.6605 48.9864 68.7539ZM44.5438 61.8591C44.5607 61.821 44.5742 61.8002 44.5844 61.7899C44.5946 61.7795 44.6081 61.7587 44.625 61.7207C44.9163 61.2363 45.1364 60.835 45.282 60.5168C45.4276 60.1985 45.5393 59.939 45.6104 59.7314C45.6849 59.5273 45.7188 59.3786 45.7188 59.2817C45.7188 59.1883 45.7086 59.1226 45.6917 59.0845C45.6172 59.1399 45.5122 59.2609 45.3768 59.4478C45.2379 59.6346 45.0991 59.9148 44.9501 60.2884C44.8418 60.5686 44.7537 60.8454 44.6894 61.1153C44.6318 61.3886 44.581 61.6342 44.5438 61.8591Z" fill="#767676"/>
<path d="M56.3377 68.8922C56.1007 69.3212 55.7993 69.7986 55.4336 70.321C55.0679 70.8434 54.648 71.345 54.1705 71.819C53.6965 72.2964 53.1682 72.6908 52.5926 73.0091C52.0169 73.3274 51.4006 73.4865 50.7403 73.4865C50.0834 73.4865 49.5755 73.355 49.2165 73.0956C48.861 72.8327 48.6003 72.5628 48.4343 72.2826C48.0314 71.5907 47.9298 70.6947 48.133 69.5911C48.3327 68.5463 48.7628 67.4254 49.4231 66.2284C49.6804 65.7786 50.0258 65.2493 50.466 64.6301C50.9062 64.0143 51.4176 63.4158 52.0034 62.838C52.2235 62.6132 52.4741 62.3848 52.7585 62.153C53.0429 61.9212 53.3341 61.7102 53.6355 61.5234C53.9369 61.3366 54.2484 61.1844 54.5667 61.0598C54.885 60.9387 55.2033 60.8765 55.5115 60.8765C55.6571 60.8765 55.7756 60.9249 55.867 61.0183C55.9584 61.1117 56.0025 61.2328 56.0025 61.3816C56.0025 61.5303 55.9584 61.648 55.867 61.731C55.7756 61.814 55.6571 61.8555 55.5115 61.8555C55.1458 61.8555 54.7157 62.0008 54.2213 62.2914C53.7269 62.582 53.2156 62.9972 52.684 63.5369C52.1354 64.08 51.6512 64.6404 51.2313 65.2182C50.8114 65.7959 50.483 66.2941 50.2426 66.7023C49.6398 67.7852 49.2538 68.8023 49.0912 69.7571C48.9253 70.5978 48.9897 71.2689 49.2843 71.774C49.5213 72.2618 50.0055 72.504 50.7369 72.504C51.1196 72.504 51.4853 72.4244 51.8341 72.2653C52.1828 72.1061 52.5147 71.9055 52.8364 71.6633C53.1547 71.4212 53.4527 71.1513 53.7269 70.8503C54.0012 70.5528 54.2484 70.2622 54.4685 69.982C54.6141 69.7952 54.7428 69.6118 54.8512 69.4354C54.9595 69.2589 55.0713 69.086 55.1796 68.9164C54.797 68.8784 54.4888 68.785 54.262 68.6362C54.0317 68.4875 53.8556 68.3387 53.7269 68.1865C53.3443 67.7367 53.1513 67.159 53.1513 66.4498C53.1513 66.0208 53.2156 65.5814 53.3443 65.1317C53.473 64.682 53.6626 64.2737 53.92 63.9001C54.5227 63.0041 55.2101 62.5544 55.9754 62.5544C56.5612 62.5544 57.0082 62.8069 57.3197 63.312C57.6109 63.779 57.7362 64.3879 57.6888 65.1317C57.6414 65.879 57.401 66.7196 56.9607 67.6537C56.8151 67.9512 56.6966 68.19 56.6052 68.3698C56.5205 68.5532 56.4291 68.7262 56.3377 68.8922ZM55.9821 63.5403C55.762 63.5403 55.5419 63.6233 55.3252 63.7929C55.1051 63.9624 54.9053 64.1838 54.7225 64.464C54.5396 64.7442 54.394 65.0556 54.2823 65.4016C54.1739 65.7475 54.1163 66.0969 54.1163 66.4532C54.1163 66.602 54.1333 66.7819 54.1705 66.986C54.2078 67.1901 54.2992 67.377 54.4448 67.5465C54.6818 67.8267 55.0645 67.9685 55.5961 67.9685H55.735C55.8264 67.7817 55.9009 67.6364 55.9551 67.5326C56.0092 67.4288 56.0465 67.37 56.0634 67.3493C56.3208 66.7715 56.4934 66.2768 56.5849 65.8651C56.6763 65.4534 56.7203 65.1075 56.7203 64.8273C56.7203 64.547 56.6966 64.3291 56.6526 64.17C56.6086 64.0108 56.5646 63.9036 56.5307 63.8482C56.3817 63.6441 56.2022 63.5403 55.9821 63.5403Z" fill="#767676"/>
<path d="M59.4102 74.9156C58.8786 74.9156 58.479 74.8049 58.2047 74.58C57.9305 74.3551 57.7205 74.1302 57.5749 73.9088C57.155 73.1616 57.1279 72.0683 57.4936 70.6291C57.6596 69.958 57.9135 69.2245 58.2623 68.4288C58.6111 67.6366 59.031 66.8097 59.5254 65.9483C59.7624 65.5366 60.0502 65.0384 60.3888 64.4503C60.7275 63.8622 61.0796 63.2498 61.4453 62.6132C61.811 61.9801 62.1767 61.347 62.5425 60.7208C62.9082 60.0946 63.2332 59.5307 63.5143 59.0256C63.7987 58.5205 64.0324 58.1157 64.2152 57.8078C64.3981 57.4999 64.4895 57.3373 64.4895 57.3166C64.6554 57.0537 64.8722 56.9983 65.1464 57.1471C65.4038 57.3166 65.458 57.538 65.3124 57.8182C65.3124 57.8355 65.2209 58.0016 65.0381 58.3095C64.8552 58.6174 64.6216 59.0187 64.3371 59.5134C64.0527 60.0081 63.7276 60.5755 63.3653 61.2086C62.9996 61.8452 62.6339 62.4783 62.2682 63.1149C61.9025 63.7515 61.5503 64.3603 61.2117 64.9519C60.8731 65.5401 60.5852 66.0417 60.3482 66.4499C59.8741 67.2733 59.4712 68.0552 59.1427 68.8025C58.8143 69.5497 58.5671 70.2417 58.4012 70.8748C58.1099 72.0337 58.1167 72.8848 58.4282 73.4245C58.6111 73.7601 58.9396 73.9296 59.417 73.9296C59.7624 73.9296 60.0875 73.8189 60.3888 73.594C60.6902 73.3691 60.9611 73.0993 61.1981 72.781C61.4352 72.4627 61.6417 72.1375 61.8144 71.8019C61.9871 71.4664 62.1293 71.1861 62.2411 70.9613L62.2953 70.9059C62.4239 70.6257 62.6339 70.5496 62.9251 70.681C63.0538 70.7364 63.135 70.8298 63.1723 70.9613C63.2095 71.0927 63.1994 71.2138 63.1452 71.3245L63.1181 71.4075C62.9894 71.6705 62.8167 71.9957 62.5966 72.3866C62.3765 72.7776 62.1158 73.1616 61.8144 73.5352C61.5131 73.9088 61.1609 74.2306 60.7579 74.5004C60.3516 74.7807 59.9046 74.9156 59.4102 74.9156Z" fill="#767676"/>
<path d="M75.4542 61.6656C74.7973 62.7312 74.2149 63.7795 73.7137 64.8173C73.2092 65.8552 72.813 66.8482 72.5218 67.803C72.2306 68.7544 72.0646 69.5951 72.0274 70.3251C71.9901 71.0551 72.0917 71.6328 72.3288 72.0618C72.62 72.6396 73.1889 72.9302 74.0286 72.9302C75.2544 72.9302 76.6902 71.92 78.3359 69.903C79.0503 69.007 79.7073 68.0832 80.31 67.1284C80.9127 66.177 81.4241 65.3432 81.8473 64.634C81.9557 64.4472 82.0573 64.2742 82.1487 64.115C82.2401 63.9559 82.3316 63.8106 82.423 63.6791C82.423 63.6618 82.4264 63.6515 82.4365 63.6515C82.4467 63.6515 82.4501 63.6411 82.4501 63.6238C82.7989 62.9872 83.1307 62.3783 83.4524 61.7867C83.7707 61.1986 84.0788 60.6623 84.3701 60.1745C84.4242 60.0431 84.5157 59.96 84.6443 59.922C84.773 59.8839 84.9017 59.9047 85.027 59.9773C85.1353 60.0534 85.2098 60.1538 85.2471 60.2852C85.2843 60.4167 85.264 60.5378 85.1929 60.6485C84.7899 61.3404 84.3667 62.105 83.9163 62.9457C83.4693 63.7864 83.0122 64.6444 82.5449 65.5231C82.0776 66.4019 81.6171 67.2806 81.1599 68.1559C80.7028 69.0346 80.2762 69.8546 79.8834 70.6226C79.4906 71.3872 79.1418 72.0756 78.8404 72.6811C78.539 73.29 78.3054 73.7501 78.1395 74.0684C78.3392 73.9577 78.5458 73.8401 78.7557 73.719C78.9657 73.5979 79.1824 73.463 79.3991 73.3142C80.0933 72.8644 80.862 72.2867 81.7017 71.5775C82.5415 70.8682 83.3847 69.9445 84.2244 68.8028C84.3159 68.6921 84.4242 68.6264 84.5529 68.6056C84.6816 68.5883 84.8001 68.616 84.9085 68.6887C84.9999 68.7821 85.0608 68.8928 85.0879 69.0242C85.115 69.1557 85.0845 69.2768 84.9931 69.3875C84.0958 70.5846 83.2052 71.5498 82.318 72.2867C81.4308 73.0236 80.6317 73.6359 79.9172 74.1237C79.4431 74.442 78.9894 74.7153 78.5594 74.9506C78.1293 75.1859 77.723 75.3761 77.3403 75.5249C76.7545 76.4763 76.1518 77.2513 75.5287 77.8498C74.6517 78.6905 73.8729 79.1194 73.199 79.1402H73.1177C72.5861 79.1402 72.2035 78.9361 71.9664 78.5244C71.7836 78.2442 71.7463 77.9086 71.8581 77.5142C71.9664 77.1406 72.2001 76.7842 72.559 76.4486C72.9146 76.113 73.348 75.8501 73.8627 75.6633C73.9711 75.6252 74.0997 75.5837 74.2453 75.5387C74.3909 75.4903 74.5467 75.4419 74.7126 75.383C74.97 75.3069 75.2612 75.2205 75.5897 75.1167C75.9181 75.0129 76.2838 74.8883 76.6868 74.7396C76.741 74.6462 76.8019 74.5424 76.8663 74.4317C76.9306 74.3209 76.9882 74.2068 77.0457 74.0961C77.083 74.058 77.2387 73.764 77.513 73.2139C77.7873 72.6638 78.1361 71.9684 78.556 71.1277C77.9329 71.8369 77.3132 72.4251 76.6902 72.8921C75.759 73.5633 74.8718 73.9023 74.0286 73.9023C73.2769 73.9023 72.708 73.7536 72.3152 73.4526C71.9224 73.1551 71.6448 72.8471 71.4788 72.5289C70.8761 71.4079 70.9133 69.7369 71.5872 67.5124C71.8987 66.5229 72.3152 65.4816 72.8333 64.3884C73.3548 63.2951 73.9609 62.2088 74.6585 61.1225C75.0987 60.4305 75.6472 59.6936 76.3042 58.9083C76.1585 58.7215 76.0299 58.5347 75.9215 58.3478C75.4474 57.4137 75.3357 56.2755 75.593 54.9297C75.7014 54.3312 75.8843 53.7258 76.1416 53.1099C76.399 52.4941 76.7071 51.9129 77.0728 51.3732C77.2726 51.1103 77.5029 51.0653 77.7568 51.2314C77.8652 51.3248 77.9363 51.4355 77.9634 51.567C77.9905 51.6984 77.96 51.8195 77.8686 51.9302C77.5401 52.4146 77.2557 52.9335 77.0186 53.4871C76.7816 54.0371 76.6157 54.5838 76.5243 55.1269C76.4328 55.6701 76.4057 56.1717 76.443 56.6388C76.4802 57.1058 76.5987 57.5244 76.7985 57.8981C76.8155 57.9361 76.8392 57.9811 76.8663 58.0399C76.8933 58.0953 76.9272 58.1437 76.9611 58.1818C77.8008 57.2684 78.688 56.4174 79.6226 55.632C79.9138 55.3899 80.2728 55.1131 80.6926 54.8052C81.1125 54.4973 81.5561 54.2032 82.0234 53.923C82.4907 53.6427 82.9614 53.4109 83.4355 53.2241C83.9095 53.0373 84.3599 52.9335 84.7798 52.9162C85.1997 52.8782 85.5281 52.9335 85.7685 53.0857C86.0056 53.2345 86.1783 53.3833 86.29 53.5355C86.4898 53.7984 86.5812 54.1236 86.5643 54.5146C86.5474 54.9055 86.4288 55.3449 86.2087 55.8327C85.9514 56.3551 85.606 56.874 85.1658 57.3895C84.7256 57.905 84.2244 58.3651 83.6589 58.7768C83.1849 59.1124 82.5889 59.4445 81.8778 59.7697C81.1633 60.0984 80.3405 60.261 79.4093 60.261C78.6034 60.261 77.8821 60.0846 77.2421 59.7282C77.2049 59.7109 77.1676 59.6902 77.1338 59.6729C77.0965 59.6556 77.0593 59.6279 77.0254 59.5899C76.4328 60.2645 75.9113 60.9529 75.4542 61.6656ZM74.8786 77.1578C75.207 76.8223 75.5084 76.4763 75.7827 76.12C75.6371 76.158 75.4948 76.1961 75.356 76.2307C75.2172 76.2687 75.0851 76.3068 74.9598 76.3414C74.8142 76.3794 74.672 76.4175 74.5332 76.4521C74.3943 76.4901 74.2826 76.5282 74.1912 76.5628C73.7882 76.7323 73.4631 76.933 73.2159 77.1648C72.9688 77.3966 72.8198 77.6076 72.7622 77.7944C72.7453 77.9051 72.7453 77.9709 72.7622 77.9916C72.7994 78.0297 72.8435 78.0712 72.8976 78.1162C72.9518 78.1611 73.0365 78.175 73.1448 78.1577C73.6087 78.13 74.1844 77.7944 74.8786 77.1578ZM80.2254 56.4243C79.3111 57.1543 78.4611 57.9638 77.6756 58.8633C78.1158 59.1435 78.6914 59.2819 79.4025 59.2819C80.0967 59.2819 80.7604 59.1574 81.3902 58.9048C82.02 58.6523 82.5957 58.334 83.1172 57.9534C83.6386 57.5694 84.0856 57.1508 84.4615 56.6941C84.8373 56.2375 85.1252 55.8015 85.3249 55.3899C85.4909 55.0716 85.5823 54.8052 85.5992 54.5907C85.6162 54.3762 85.5992 54.2309 85.5451 54.1548C85.5078 54.1167 85.4435 54.0614 85.352 53.9852C85.2606 53.9091 85.0879 53.8815 84.8306 53.9022C84.2989 53.9195 83.6319 54.1513 82.8293 54.5872C82.0268 55.0266 81.1599 55.6389 80.2254 56.4243Z" fill="#767676"/>
<path d="M96.0217 68.7542C96.1131 68.8476 96.1673 68.9583 96.1876 69.0898C96.2045 69.2213 96.1707 69.3424 96.0792 69.4531C96.042 69.4911 96.0014 69.5361 95.9573 69.5915C95.9099 69.6468 95.8625 69.7022 95.805 69.761C94.9652 70.8058 94.1965 71.6776 93.5024 72.3661C92.8082 73.058 92.1682 73.404 91.5824 73.404C91.1625 73.404 90.8476 73.3244 90.6376 73.1653C90.4277 73.0061 90.2753 72.8435 90.1839 72.674C89.9841 72.3004 89.9096 71.8437 89.9638 71.3005C88.7007 72.7951 87.4851 73.5424 86.3168 73.5424C85.6769 73.5424 85.1926 73.4109 84.8642 73.1514C84.5357 72.8885 84.2987 72.629 84.1497 72.3661C83.767 71.6569 83.7027 70.7677 83.9567 69.7056C84.065 69.1832 84.2411 68.647 84.4781 68.0934C84.7152 67.5434 85.0098 66.9864 85.3552 66.4259C86.3439 64.8552 87.458 63.6132 88.7007 62.6999C89.2493 62.309 89.7809 62.0045 90.2922 61.79C90.8036 61.5755 91.2709 61.4683 91.6907 61.4683C92.1648 61.4683 92.5373 61.5513 92.8014 61.7208C93.0655 61.8903 93.2619 62.0668 93.3906 62.2536C93.5904 62.5165 93.7191 62.8244 93.7732 63.1773C93.9189 62.9524 94.0374 62.7552 94.1288 62.5892C94.2202 62.4197 94.3116 62.2709 94.4031 62.1394C94.4776 61.9907 94.5588 61.8592 94.6503 61.7485C94.7248 61.6378 94.823 61.5651 94.9516 61.5375C95.0803 61.5098 95.1988 61.534 95.3072 61.6066C95.4156 61.6827 95.49 61.7831 95.5273 61.9145C95.5645 62.046 95.5375 62.1671 95.446 62.2778C95.446 62.2951 95.209 62.6826 94.7315 63.4403C94.2575 64.1979 93.6615 65.2012 92.9504 66.4536C92.4763 67.2943 92.0903 68.0381 91.7991 68.6816C91.5079 69.3251 91.2912 69.8855 91.1557 70.363C91.0169 70.8404 90.939 71.2279 90.9221 71.5254C90.9051 71.8229 90.939 72.0409 91.0304 72.1689C91.0474 72.2069 91.088 72.2588 91.1523 72.3246C91.2167 72.3903 91.3589 72.4214 91.579 72.4214C91.6704 72.4214 91.8363 72.3592 92.0734 72.2381C92.3104 72.117 92.6592 71.8333 93.1163 71.3835C93.4448 71.0653 93.7733 70.7055 94.1051 70.3041C94.4336 69.9028 94.7552 69.5154 95.0634 69.1417C95.1176 69.0864 95.1684 69.031 95.2158 68.9722C95.2598 68.9168 95.3038 68.8615 95.3377 68.8027C95.4291 68.7093 95.5375 68.6539 95.6661 68.6331C95.7948 68.6228 95.9133 68.6608 96.0217 68.7542ZM89.4152 70.4633C89.8723 69.9028 90.2381 69.3943 90.5123 68.9376C90.7866 68.4809 90.9322 68.2422 90.9525 68.2214C90.9525 68.2041 90.9559 68.1938 90.9661 68.1938C90.9762 68.1938 90.9796 68.1834 90.9796 68.1661C91.2539 67.533 91.6366 66.7926 92.1309 65.9519C92.2224 65.7824 92.3172 65.6164 92.4188 65.4468C92.5204 65.2773 92.6152 65.1216 92.7066 64.9694V64.914C92.7235 64.8206 92.7506 64.6857 92.7879 64.5093C92.8251 64.3328 92.8454 64.146 92.8556 63.9488C92.8658 63.7516 92.8556 63.5579 92.8285 63.3607C92.8014 63.1635 92.7337 62.9905 92.6219 62.8417C92.4222 62.5788 92.1106 62.4508 91.6907 62.4508C91.4334 62.4508 91.0948 62.5304 90.6749 62.6895C90.255 62.8486 89.7978 63.1081 89.3035 63.4748C88.8091 63.8381 88.2876 64.3051 87.739 64.876C87.1905 65.4468 86.6589 66.1422 86.1475 66.9622C85.5075 67.9897 85.0877 68.9687 84.8845 69.9028C84.7186 70.7816 84.7558 71.4424 84.9928 71.8921C85.2129 72.3419 85.6498 72.5633 86.3101 72.5633C87.2277 72.5633 88.2605 71.8644 89.4152 70.4633Z" fill="#767676"/>
<path d="M104.826 68.7539C104.917 68.8473 104.971 68.958 104.992 69.0895C105.009 69.2209 104.975 69.342 104.883 69.4527C104.846 69.4908 104.802 69.5357 104.744 69.5911C104.69 69.6465 104.643 69.7018 104.609 69.7606C103.769 70.8054 103.001 71.6772 102.306 72.3656C101.612 73.0576 100.972 73.4035 100.386 73.4035C99.8752 73.4035 99.4993 73.1994 99.2623 72.7877C99.0252 72.338 99.0252 71.6876 99.2623 70.8262C99.4993 69.9855 100.011 68.8646 100.8 67.4635C100.945 67.2006 100.955 66.7785 100.827 66.1904C100.698 65.6023 100.444 64.9069 100.058 64.1043C99.5636 64.8135 98.9914 65.6092 98.3446 66.4844C97.6945 67.3632 96.9427 68.3422 96.0827 69.425C95.9912 69.5358 95.8829 69.6015 95.7542 69.6222C95.6255 69.6395 95.5172 69.6049 95.4257 69.5115C95.3174 69.4181 95.253 69.3074 95.2327 69.1759C95.2158 69.0445 95.2497 68.9234 95.3411 68.8127C97.1696 66.4775 98.5681 64.5921 99.5365 63.1529C99.3706 62.8 99.3266 62.3745 99.3977 61.8798C99.4722 61.3851 99.5535 60.9803 99.6449 60.6621C99.6822 60.5686 99.733 60.4233 99.7973 60.2262C99.8616 60.029 99.9497 59.8214 100.058 59.5965C100.166 59.3716 100.292 59.1468 100.427 58.9254C100.566 58.7005 100.725 58.5137 100.908 58.3649C101.108 58.1954 101.321 58.1089 101.538 58.0986C101.758 58.0882 101.958 58.1677 102.141 58.3373C102.523 58.6728 102.608 59.2264 102.388 59.9909C102.188 60.5894 101.812 61.347 101.264 62.2604C101.172 62.4091 101.077 62.5648 100.976 62.7239C100.874 62.8831 100.769 63.0457 100.661 63.2152C101.849 65.4397 102.168 67.0241 101.619 67.979C101.145 68.8196 100.793 69.5115 100.563 70.0512C100.332 70.5944 100.183 71.0268 100.109 71.3554C100.034 71.6841 100.007 71.9159 100.028 72.0543C100.044 72.1961 100.065 72.2826 100.082 72.3207C100.099 72.338 100.126 72.3622 100.163 72.3899C100.2 72.4175 100.271 72.4314 100.383 72.4314C100.475 72.4314 100.64 72.3691 100.877 72.248C101.115 72.1269 101.453 71.8433 101.893 71.3935C102.239 71.0752 102.577 70.7155 102.909 70.3141C103.238 69.9128 103.559 69.5254 103.867 69.1517C103.905 69.0964 103.949 69.041 104.006 68.9822C104.06 68.9269 104.108 68.8715 104.145 68.8127C104.237 68.7193 104.345 68.6639 104.474 68.6432C104.599 68.6224 104.717 68.6605 104.826 68.7539ZM100.383 61.8591C100.4 61.821 100.414 61.8002 100.424 61.7899C100.434 61.7795 100.447 61.7587 100.464 61.7207C100.756 61.2363 100.976 60.835 101.121 60.5168C101.267 60.1985 101.379 59.939 101.45 59.7314C101.524 59.5273 101.558 59.3786 101.558 59.2817C101.558 59.1883 101.548 59.1226 101.531 59.0845C101.457 59.1399 101.352 59.2609 101.216 59.4478C101.077 59.6346 100.938 59.9148 100.789 60.2884C100.681 60.5686 100.593 60.8454 100.529 61.1153C100.471 61.3886 100.42 61.6342 100.383 61.8591Z" fill="#767676"/>
<path d="M115.932 68.7542C116.023 68.8476 116.077 68.9583 116.098 69.0898C116.115 69.2213 116.081 69.3424 115.989 69.4531C115.952 69.4911 115.911 69.5361 115.867 69.5915C115.823 69.6468 115.773 69.7022 115.715 69.761C114.875 70.8058 114.107 71.6776 113.412 72.3661C112.718 73.058 112.078 73.404 111.492 73.404C111.073 73.404 110.758 73.3244 110.548 73.1653C110.338 73.0061 110.185 72.8435 110.094 72.674C109.894 72.3004 109.82 71.8437 109.874 71.3005C108.611 72.7951 107.395 73.5424 106.227 73.5424C105.587 73.5424 105.103 73.4109 104.774 73.1514C104.446 72.8885 104.209 72.629 104.06 72.3661C103.677 71.6569 103.613 70.7677 103.867 69.7056C103.975 69.1832 104.151 68.647 104.388 68.0934C104.625 67.5434 104.92 66.9864 105.265 66.4259C106.254 64.8552 107.368 63.6132 108.611 62.6999C109.159 62.309 109.691 62.0045 110.202 61.79C110.714 61.5755 111.181 61.4683 111.601 61.4683C112.075 61.4683 112.447 61.5513 112.712 61.7208C112.976 61.8903 113.172 62.0668 113.301 62.2536C113.501 62.5165 113.629 62.8244 113.683 63.1773C113.829 62.9524 113.947 62.7552 114.039 62.5892C114.13 62.4197 114.222 62.2709 114.313 62.1394C114.388 61.9907 114.469 61.8592 114.56 61.7485C114.635 61.6378 114.733 61.5651 114.862 61.5375C114.99 61.5098 115.109 61.534 115.217 61.6066C115.326 61.6827 115.4 61.7831 115.437 61.9145C115.475 62.046 115.448 62.1671 115.356 62.2778C115.356 62.2951 115.119 62.6826 114.642 63.4403C114.168 64.1979 113.572 65.2012 112.861 66.4536C112.386 67.2943 112 68.0381 111.709 68.6816C111.418 69.3251 111.201 69.8855 111.066 70.363C110.93 70.8404 110.849 71.2279 110.832 71.5254C110.815 71.8229 110.849 72.0409 110.941 72.1689C110.957 72.2069 110.998 72.2588 111.062 72.3246C111.127 72.3903 111.269 72.4214 111.489 72.4214C111.581 72.4214 111.746 72.3592 111.983 72.2381C112.221 72.117 112.569 71.8333 113.026 71.3835C113.355 71.0653 113.683 70.7055 114.015 70.3041C114.344 69.9028 114.665 69.5154 114.973 69.1417C115.028 69.0864 115.078 69.031 115.126 68.9722C115.17 68.9168 115.214 68.8615 115.248 68.8027C115.339 68.7093 115.448 68.6539 115.576 68.6331C115.705 68.6228 115.823 68.6608 115.932 68.7542ZM109.322 70.4633C109.779 69.9028 110.145 69.3943 110.419 68.9376C110.693 68.4809 110.839 68.2422 110.859 68.2214C110.859 68.2041 110.863 68.1938 110.873 68.1938C110.883 68.1938 110.886 68.1834 110.886 68.1661C111.161 67.533 111.543 66.7926 112.038 65.9519C112.129 65.7824 112.224 65.6164 112.325 65.4468C112.427 65.2773 112.522 65.1216 112.613 64.9694V64.914C112.63 64.8206 112.657 64.6857 112.695 64.5093C112.732 64.3328 112.752 64.146 112.762 63.9488C112.772 63.7516 112.762 63.5579 112.735 63.3607C112.708 63.1635 112.64 62.9905 112.529 62.8417C112.329 62.5788 112.017 62.4508 111.597 62.4508C111.34 62.4508 111.001 62.5304 110.582 62.6895C110.162 62.8486 109.705 63.1081 109.21 63.4748C108.716 63.8381 108.194 64.3051 107.646 64.876C107.097 65.4468 106.566 66.1422 106.054 66.9622C105.414 67.9897 104.994 68.9687 104.791 69.9028C104.625 70.7816 104.663 71.4424 104.9 71.8921C105.12 72.3419 105.557 72.5633 106.217 72.5633C107.138 72.5633 108.171 71.8644 109.322 70.4633Z" fill="#767676"/>
<path d="M127.284 68.7538C127.392 68.8472 127.457 68.9579 127.477 69.0894C127.494 69.2209 127.46 69.3419 127.369 69.4526C127.331 69.4907 127.301 69.5288 127.274 69.5634C127.247 69.6014 127.213 69.6395 127.179 69.6741C126.996 69.8989 126.762 70.1792 126.478 70.5147C126.194 70.8503 125.865 71.1998 125.489 71.5665C125.113 71.9297 124.707 72.2895 124.27 72.6459C123.83 73.0022 123.356 73.2997 122.845 73.5419C122.496 73.7114 122.14 73.8602 121.775 73.9917C121.409 74.1231 121.043 74.2546 120.678 74.3826C120.183 75.2786 119.645 76.0536 119.059 76.7074C118.219 77.6415 117.43 78.1536 116.699 78.247C116.661 78.247 116.624 78.2504 116.59 78.2608C116.553 78.2712 116.516 78.2746 116.482 78.2746C116.008 78.2746 115.632 78.0878 115.358 77.7142C115.138 77.472 115.073 77.126 115.165 76.6763C115.256 76.2646 115.476 75.8771 115.822 75.5139C116.17 75.1506 116.607 74.8358 117.139 74.5763C117.484 74.4276 117.86 74.2857 118.263 74.1542C118.666 74.0228 119.076 73.8844 119.496 73.7356C119.587 73.6976 119.675 73.6699 119.756 73.6526C119.838 73.6353 119.926 73.6042 120.017 73.5696C120.092 73.4208 120.159 73.2721 120.224 73.1198C120.288 72.9711 120.356 72.8223 120.43 72.6701C120.447 72.632 120.495 72.5144 120.566 72.3207C120.64 72.1235 120.749 71.8571 120.894 71.5215C119.577 72.8673 118.388 73.5385 117.329 73.5385C116.689 73.5385 116.204 73.407 115.876 73.1475C115.547 72.8846 115.31 72.6251 115.161 72.3622C114.779 71.653 114.714 70.7638 114.968 69.7017C115.077 69.1793 115.253 68.6431 115.49 68.0896C115.727 67.5395 116.021 66.9825 116.367 66.422C117.356 64.8514 118.47 63.6094 119.712 62.6961C120.261 62.3051 120.789 62.0007 121.304 61.7862C121.815 61.5717 122.283 61.4644 122.702 61.4644C123.177 61.4644 123.549 61.5475 123.813 61.717C124.077 61.8865 124.274 62.063 124.402 62.2498C124.511 62.3812 124.612 62.5577 124.704 62.7825C124.795 62.5784 124.887 62.3812 124.978 62.1944C125.069 62.0076 125.161 61.8104 125.252 61.6063C125.398 61.326 125.618 61.2499 125.909 61.3814C126.018 61.4368 126.095 61.5302 126.143 61.6616C126.187 61.7931 126.183 61.9142 126.129 62.0249C125.872 62.568 125.621 63.1043 125.374 63.6371C125.127 64.1698 124.876 64.7061 124.619 65.2492L124.592 65.3046C124.135 66.3321 123.705 67.3077 123.302 68.2314C122.899 69.1551 122.553 69.9785 122.259 70.6981C121.968 71.4177 121.734 71.9885 121.558 72.4072C121.385 72.8258 121.297 73.0472 121.297 73.0645C121.297 73.1025 121.287 73.1198 121.27 73.1198C121.47 73.0437 121.663 72.9711 121.846 72.8949C122.029 72.8188 122.211 72.7358 122.394 72.6424C122.851 72.4175 123.285 72.1477 123.698 71.8294C124.108 71.5111 124.487 71.179 124.836 70.833C125.181 70.4871 125.489 70.155 125.753 69.8401C126.018 69.5219 126.241 69.252 126.424 69.0271C126.461 68.9891 126.492 68.951 126.519 68.9164C126.546 68.8784 126.576 68.8438 126.614 68.8057C126.705 68.7123 126.813 68.6569 126.942 68.6362C127.084 68.6223 127.193 68.6604 127.284 68.7538ZM120.62 70.404C121.077 69.8816 121.46 69.4008 121.771 68.9614C122.083 68.522 122.255 68.2556 122.293 68.1622C122.513 67.6571 122.746 67.1312 122.994 66.5777C123.241 66.0276 123.491 65.4603 123.749 64.8825C123.766 64.7718 123.793 64.63 123.83 64.4639C123.867 64.2944 123.884 64.1145 123.884 63.9173C123.884 63.7201 123.871 63.5264 123.844 63.3292C123.817 63.132 123.749 62.9694 123.637 62.8379C123.437 62.575 123.126 62.4469 122.706 62.4469C122.448 62.4469 122.11 62.5265 121.69 62.6857C121.27 62.8448 120.813 63.1043 120.319 63.471C119.824 63.8343 119.303 64.3013 118.754 64.8721C118.206 65.443 117.674 66.1384 117.163 66.9583C116.523 67.9858 116.103 68.9649 115.9 69.8989C115.734 70.7777 115.771 71.4385 116.008 71.8882C116.228 72.338 116.665 72.5594 117.325 72.5594C117.782 72.5594 118.283 72.376 118.832 72.0128C119.387 71.653 119.98 71.1167 120.62 70.404ZM118.344 76.0363C118.51 75.8668 118.669 75.6799 118.825 75.4758C118.981 75.2717 119.13 75.0538 119.279 74.8323C118.622 75.0365 118.046 75.2544 117.552 75.4758C117.112 75.6799 116.77 75.9186 116.523 76.192C116.275 76.4618 116.133 76.7005 116.096 76.9081C116.079 77.0188 116.079 77.0845 116.096 77.1053C116.133 77.1607 116.187 77.2125 116.262 77.261C116.336 77.3059 116.445 77.3129 116.59 77.2748C117.102 77.216 117.687 76.8043 118.344 76.0363Z" fill="#767676"/>
<path d="M136.228 68.6952C136.319 68.7886 136.37 68.8993 136.38 69.0307C136.39 69.1622 136.35 69.2729 136.258 69.3663C136.241 69.4044 136.038 69.6292 135.655 70.0375C135.273 70.4492 134.758 70.9058 134.118 71.4109C132.344 72.774 130.735 73.4556 129.293 73.4556C128.524 73.4556 127.945 73.3172 127.552 73.037C127.159 72.7567 126.872 72.4661 126.689 72.1686C126.34 71.5528 126.242 70.7813 126.387 69.8576C126.533 68.9339 126.926 67.9098 127.566 66.7889C128.46 65.1629 129.435 63.8379 130.488 62.8104C131.538 61.7828 132.53 61.1843 133.464 61.0183C134.179 60.9076 134.772 61.0459 135.246 61.4403C135.611 61.7586 135.811 62.1876 135.848 62.7308C135.865 63.2912 135.693 63.914 135.327 64.5955C134.961 65.277 134.43 65.9724 133.735 66.6817C132.967 67.4843 132.154 68.0724 131.294 68.4461C130.579 68.7643 129.895 68.9235 129.238 68.9235C128.91 68.9235 128.615 68.8958 128.361 68.8405C128.104 68.7851 127.894 68.7194 127.732 68.6433C127.64 68.8854 127.562 69.1138 127.498 69.3282C127.434 69.5427 127.383 69.7538 127.346 69.9579C127.237 70.7052 127.298 71.276 127.539 71.6669C127.83 72.2101 128.416 72.4799 129.293 72.4799C130.041 72.4799 130.786 72.2897 131.528 71.9057C132.269 71.5216 132.936 71.0996 133.529 70.6325C134.121 70.1655 134.606 69.7365 134.981 69.3421C135.357 68.9512 135.544 68.7436 135.544 68.7263C135.635 68.6329 135.743 68.581 135.872 68.5706C135.997 68.5602 136.116 68.6017 136.228 68.6952ZM128.382 67.2663C128.345 67.3597 128.301 67.4428 128.246 67.5189C128.192 67.595 128.145 67.678 128.107 67.7714C128.253 67.8095 128.422 67.8475 128.615 67.8821C128.808 67.9202 129.032 67.9375 129.286 67.9375C130.549 67.9202 131.809 67.2732 133.072 66.0036C133.657 65.4051 134.108 64.8238 134.43 64.253C134.748 63.6822 134.9 63.1944 134.883 62.7827C134.846 62.5405 134.765 62.3433 134.636 62.1945C134.379 61.9697 134.04 61.9039 133.62 61.9973C133.255 62.0527 132.862 62.2188 132.442 62.4886C132.022 62.7585 131.592 63.1113 131.152 63.5403C130.166 64.5125 129.242 65.7545 128.382 67.2663Z" fill="#767676"/>
<path d="M46.321 93.2165C46.2601 93.2165 46.1991 93.1889 46.1585 93.1335C46.0908 93.0401 46.1077 92.9086 46.1991 92.8394C47.5333 91.8155 48.925 90.6808 50.4556 89.3697C50.5436 89.2971 50.6723 89.3075 50.7434 89.3974C50.8145 89.4874 50.8043 89.6188 50.7163 89.6915C49.179 91.006 47.7805 92.1442 46.4429 93.175C46.4057 93.2027 46.3617 93.2165 46.321 93.2165Z" fill="#767676"/>
<path d="M42.7483 96.123C42.6874 96.123 42.6298 96.0953 42.5892 96.0434C42.5181 95.9535 42.535 95.822 42.623 95.7494L43.5238 95.016C43.6118 94.9434 43.7405 94.9572 43.8116 95.0506C43.8827 95.1405 43.8692 95.272 43.7777 95.3447L42.877 96.078C42.8364 96.1092 42.7924 96.123 42.7483 96.123Z" fill="#767676"/>
<path d="M42.636 90.1795C42.5412 90.1795 42.4565 90.1103 42.4362 90.0135C42.4125 89.8993 42.4836 89.7886 42.5953 89.7678C43.7805 89.5187 45.0402 89.2108 46.4489 88.8302C46.5572 88.7991 46.669 88.8683 46.6995 88.979C46.7299 89.0897 46.6622 89.2039 46.5538 89.235C45.1418 89.6156 43.872 89.927 42.68 90.1761C42.6631 90.1795 42.6495 90.1795 42.636 90.1795Z" fill="#767676"/>
<path d="M39.4011 90.9648C39.3096 90.9648 39.225 90.8991 39.2013 90.8057C39.1742 90.695 39.2419 90.5809 39.3537 90.5532L40.1697 90.3561C40.2781 90.3319 40.3898 90.3976 40.4169 90.5117C40.444 90.6224 40.3763 90.7365 40.2645 90.7642L39.4485 90.9614C39.4315 90.9648 39.4146 90.9648 39.4011 90.9648Z" fill="#767676"/>
<path d="M108.32 90.9055C108.306 90.9055 108.293 90.9055 108.279 90.902C106.85 90.6183 105.58 90.3311 104.395 90.0266C104.287 89.999 104.219 89.8848 104.246 89.7741C104.273 89.6633 104.385 89.5941 104.493 89.6218C105.672 89.9263 106.938 90.21 108.357 90.4937C108.469 90.5145 108.54 90.6252 108.52 90.7394C108.503 90.8363 108.415 90.9055 108.32 90.9055Z" fill="#767676"/>
<path d="M102.019 89.4837C102.005 89.4837 101.988 89.4837 101.975 89.4802L101.159 89.2968C101.047 89.2726 100.979 89.1618 101.003 89.0476C101.026 88.9369 101.135 88.8642 101.247 88.8885L102.063 89.0719C102.174 89.0961 102.242 89.2068 102.218 89.321C102.198 89.4179 102.113 89.4837 102.019 89.4837Z" fill="#767676"/>
<path d="M61.5909 91.8258C61.557 91.8258 61.5198 91.8154 61.4893 91.7981C61.3911 91.7393 61.3572 91.6113 61.4148 91.5109L62.1902 90.1478C62.2478 90.0474 62.3731 90.0129 62.4713 90.0717C62.5695 90.1305 62.6033 90.2585 62.5458 90.3588L61.7703 91.722C61.7297 91.7877 61.6586 91.8258 61.5909 91.8258Z" fill="#767676"/>
<path d="M52.5779 105.709C52.5406 105.709 52.5 105.699 52.4661 105.675C52.3713 105.612 52.3476 105.481 52.4086 105.384L60.1967 93.3758C60.2611 93.279 60.3864 93.2547 60.4812 93.317C60.576 93.3793 60.5997 93.5108 60.5387 93.6076L52.7506 105.616C52.7099 105.678 52.6456 105.709 52.5779 105.709Z" fill="#767676"/>
<path d="M64.4799 110.982C64.4663 110.982 64.4494 110.982 64.4359 110.979C64.3241 110.954 64.2564 110.844 64.2801 110.73C65.2282 106.353 66.3829 101.967 67.5004 97.7252C68.2047 95.0544 68.9293 92.2937 69.5964 89.5641C69.6235 89.4534 69.7353 89.3842 69.8436 89.4119C69.952 89.4395 70.0197 89.5537 69.9926 89.6644C69.3255 92.3975 68.5975 95.1582 67.8932 97.8324C66.7757 102.07 65.6244 106.45 64.6763 110.816C64.6594 110.916 64.5747 110.982 64.4799 110.982Z" fill="#767676"/>
<path d="M47.6366 101.845C47.5892 101.845 47.5418 101.828 47.5045 101.794C47.4199 101.717 47.4097 101.586 47.4808 101.499L54.2431 93.4319C54.3176 93.3454 54.4462 93.335 54.5309 93.4076C54.6156 93.4837 54.6257 93.6152 54.5546 93.7017L47.7924 101.769C47.7517 101.821 47.6942 101.845 47.6366 101.845Z" fill="#767676"/>
<path d="M58.6423 108.225C58.6186 108.225 58.5949 108.221 58.5711 108.211C58.4662 108.169 58.412 108.052 58.4493 107.941C59.9493 103.807 61.7372 99.7176 63.4642 95.7633C64.0161 94.5041 64.5647 93.2413 65.1099 91.9785C65.1539 91.8747 65.2758 91.8263 65.3808 91.8713C65.4857 91.9163 65.5298 92.0408 65.4857 92.1481C64.944 93.4143 64.392 94.6736 63.8401 95.9363C62.1165 99.8837 60.332 103.969 58.8353 108.09C58.8048 108.173 58.7269 108.225 58.6423 108.225Z" fill="#767676"/>
<path d="M55.8487 91.7325C55.8013 91.7325 55.7573 91.7152 55.7166 91.684C55.6286 91.6114 55.6184 91.4799 55.6895 91.39L57.342 89.3764C57.4131 89.2865 57.5452 89.2761 57.6298 89.3488C57.7179 89.4214 57.728 89.5529 57.6569 89.6428L56.0045 91.6564C55.9638 91.7083 55.9063 91.7325 55.8487 91.7325Z" fill="#767676"/>
<path d="M58.6423 108.225C58.6186 108.225 58.5949 108.221 58.5711 108.211C58.4662 108.169 58.412 108.052 58.4493 107.941C59.9493 103.807 61.7372 99.7176 63.4642 95.7633C64.0161 94.5041 64.5647 93.2413 65.1099 91.9785C65.1539 91.8747 65.2758 91.8263 65.3808 91.8713C65.4857 91.9163 65.5298 92.0408 65.4857 92.1481C64.944 93.4143 64.392 94.6736 63.8401 95.9363C62.1165 99.8837 60.332 103.969 58.8353 108.09C58.8048 108.173 58.7269 108.225 58.6423 108.225Z" fill="#767676"/>
<path d="M79.2515 112.632C79.1499 112.632 79.0618 112.552 79.0483 112.449C78.5742 108.359 78.2356 104.187 77.9072 100.153C77.6261 96.7007 77.3349 93.1269 76.9624 89.6258C76.9489 89.5117 77.0301 89.4079 77.1419 89.3975C77.2536 89.3837 77.3552 89.4667 77.3688 89.5809C77.7412 93.0889 78.0324 96.6626 78.3135 100.119C78.642 104.149 78.9806 108.318 79.4546 112.4C79.4682 112.514 79.3869 112.618 79.2752 112.632C79.2684 112.632 79.2616 112.632 79.2515 112.632Z" fill="#767676"/>
<path d="M86.5017 111.366C86.4103 111.366 86.3257 111.303 86.302 111.207C85.2116 106.706 83.8842 102.184 82.6008 97.8145C82.0218 95.8426 81.4224 93.8049 80.8535 91.7914C80.8231 91.6807 80.884 91.5631 80.9924 91.5319C81.1007 91.5008 81.2159 91.5631 81.2463 91.6738C81.8152 93.6838 82.4146 95.7215 82.9902 97.69C84.2736 102.066 85.6044 106.588 86.6948 111.103C86.7218 111.213 86.6541 111.328 86.5458 111.355C86.5356 111.362 86.5187 111.366 86.5017 111.366Z" fill="#767676"/>
<path d="M94.8817 107.975C94.8072 107.975 94.7361 107.934 94.6988 107.861C93.5136 105.495 92.3285 103.08 91.184 100.745C89.5214 97.3544 87.8046 93.8498 86.0539 90.4386C86.0031 90.3349 86.0404 90.2103 86.1386 90.1584C86.2402 90.1065 86.3621 90.1446 86.4129 90.2449C88.1669 93.663 89.8837 97.1675 91.5463 100.558C92.6908 102.893 93.876 105.308 95.0577 107.671C95.1085 107.775 95.0679 107.899 94.9697 107.951C94.946 107.968 94.9155 107.975 94.8817 107.975Z" fill="#767676"/>
<path d="M99.7133 92.653C99.6625 92.653 99.6117 92.6357 99.5745 92.5941L96.5709 89.6882C96.4897 89.6086 96.4863 89.4771 96.5642 89.3941C96.6421 89.311 96.7707 89.3076 96.852 89.3872L99.8556 92.2932C99.9368 92.3727 99.9402 92.5042 99.8623 92.5872C99.8217 92.6322 99.7675 92.653 99.7133 92.653Z" fill="#767676"/>
<path d="M104.761 97.9981C104.707 97.9981 104.653 97.9774 104.616 97.9359L103.261 96.5035C103.183 96.4204 103.183 96.2889 103.265 96.2094C103.346 96.1298 103.474 96.1332 103.552 96.2128L104.907 97.6452C104.985 97.7282 104.985 97.8598 104.903 97.9393C104.863 97.9809 104.812 97.9981 104.761 97.9981Z" fill="#767676"/>
<path d="M71.702 106.577C71.6953 106.577 71.6919 106.577 71.6851 106.577C71.5734 106.567 71.4887 106.467 71.4989 106.353C71.868 101.63 72.1964 97.4995 72.5079 93.7251C72.5181 93.6109 72.6197 93.5313 72.728 93.5348C72.8398 93.5452 72.9244 93.6455 72.9143 93.7597C72.6061 97.5341 72.2743 101.665 71.9052 106.387C71.8984 106.494 71.8104 106.577 71.702 106.577Z" fill="#767676"/>
<path d="M71.2216 112.677C71.2148 112.677 71.2114 112.677 71.2046 112.677C71.0929 112.667 71.0082 112.566 71.0184 112.452L71.4484 107.263C71.4586 107.149 71.5602 107.066 71.6686 107.073C71.7803 107.083 71.865 107.183 71.8548 107.298L71.4248 112.487C71.418 112.594 71.3266 112.677 71.2216 112.677Z" fill="#767676"/>
<path d="M100.263 103.744C100.198 103.744 100.137 103.713 100.097 103.658C96.7037 98.8594 93.3412 94.1474 90.1006 89.6465C90.0329 89.5531 90.0532 89.4216 90.1447 89.3559C90.2361 89.2867 90.3648 89.3075 90.4291 89.4009C93.6663 93.9018 97.0288 98.6172 100.425 103.416C100.493 103.509 100.473 103.641 100.378 103.706C100.347 103.731 100.303 103.744 100.263 103.744Z" fill="#767676"/>
<path d="M94.5423 55.4625C94.4847 55.4625 94.4272 55.4383 94.3865 55.3898C94.312 55.3033 94.3256 55.1684 94.4102 55.0957L107.484 43.8002C107.572 43.7241 107.701 43.7379 107.772 43.8244C107.847 43.9109 107.833 44.0458 107.748 44.1185L94.6744 55.414C94.6371 55.4452 94.5897 55.4625 94.5423 55.4625Z" fill="#767676"/>
<path d="M87.2725 50.6362C87.2387 50.6362 87.2014 50.6258 87.171 50.6085C87.0728 50.5497 87.0389 50.4217 87.0965 50.3214L87.8787 48.9514C87.9363 48.8511 88.0615 48.82 88.1597 48.8753C88.258 48.9341 88.2918 49.0621 88.2342 49.1625L87.452 50.5324C87.4114 50.5982 87.3403 50.6362 87.2725 50.6362Z" fill="#767676"/>
<path d="M89.2771 47.3877C89.2399 47.3877 89.1992 47.3773 89.1654 47.3531C89.0705 47.2909 89.0468 47.1594 89.1078 47.0625L96.896 35.0541C96.9604 34.9572 97.0857 34.933 97.1805 34.9952C97.2753 35.0575 97.299 35.189 97.238 35.2859L89.4498 47.2943C89.4058 47.3531 89.3414 47.3877 89.2771 47.3877Z" fill="#767676"/>
<path d="M80.7878 47.9478C80.7709 47.9478 80.7539 47.9444 80.737 47.9409C80.6286 47.9132 80.5609 47.7991 80.588 47.6884C80.9571 46.1973 81.3296 44.7097 81.7021 43.2221C82.7992 38.8458 83.9302 34.3242 84.9596 29.8545C84.9867 29.7438 85.095 29.6711 85.2068 29.6988C85.3152 29.7264 85.3863 29.8371 85.3592 29.9513C84.3298 34.4245 83.1954 38.953 82.0983 43.3294C81.7258 44.817 81.3533 46.308 80.9842 47.7956C80.9605 47.8856 80.8792 47.9478 80.7878 47.9478Z" fill="#767676"/>
<path d="M99.2499 42.5341C99.2025 42.5341 99.1551 42.5169 99.1178 42.4823C99.0332 42.4062 99.023 42.2747 99.0941 42.1882L101.85 38.8982C101.925 38.8117 102.054 38.8013 102.138 38.874C102.223 38.9501 102.233 39.0815 102.162 39.168L99.4056 42.458C99.365 42.5099 99.3075 42.5341 99.2499 42.5341Z" fill="#767676"/>
<path d="M89.0903 37.5451C89.0666 37.5451 89.0395 37.5417 89.0158 37.5313C88.9109 37.4898 88.8601 37.3687 88.9007 37.2614C89.1648 36.5799 89.456 35.9053 89.7337 35.2515C90.1231 34.3416 90.4922 33.4836 90.8071 32.5876C90.8444 32.4804 90.9629 32.4216 91.0678 32.4631C91.1728 32.5011 91.2304 32.6222 91.1897 32.7295C90.8681 33.6393 90.482 34.5457 90.1062 35.421C89.8285 36.0679 89.5407 36.739 89.2766 37.4171C89.2461 37.4967 89.1716 37.5451 89.0903 37.5451Z" fill="#767676"/>
<path d="M98.9111 55.7181C98.8366 55.7181 98.7655 55.6766 98.7317 55.6074C98.6809 55.5036 98.7181 55.3791 98.8163 55.3272L107.81 50.508C107.912 50.4561 108.034 50.4942 108.084 50.5945C108.135 50.6983 108.098 50.8228 108 50.8747L99.0059 55.6939C98.9755 55.7112 98.945 55.7181 98.9111 55.7181Z" fill="#767676"/>
<path d="M108.454 50.5911C108.379 50.5911 108.308 50.5495 108.274 50.4804C108.22 50.3766 108.261 50.252 108.359 50.2001L110.584 49.01C110.685 48.9581 110.807 48.9961 110.858 49.0965C110.912 49.2003 110.871 49.3248 110.773 49.3767L108.548 50.5703C108.521 50.5841 108.487 50.5911 108.454 50.5911Z" fill="#767676"/>
<path d="M103.513 57.2163C103.428 57.2163 103.347 57.1609 103.32 57.0744C103.283 56.9637 103.34 56.8461 103.449 56.8081L110.973 54.1963C111.078 54.1617 111.196 54.217 111.233 54.3277C111.271 54.4384 111.213 54.5561 111.105 54.5941L103.581 57.2059C103.557 57.2128 103.537 57.2163 103.513 57.2163Z" fill="#767676"/>
<path d="M88.7178 55.5488C88.6704 55.5488 88.6264 55.5315 88.5858 55.5004C88.4977 55.4277 88.4876 55.2962 88.5587 55.2063L96.3436 45.7099C96.4181 45.62 96.5467 45.6096 96.6314 45.6822C96.7194 45.7549 96.7296 45.8863 96.6585 45.9763L88.8736 55.4727C88.8363 55.5211 88.7788 55.5488 88.7178 55.5488Z" fill="#767676"/>
<path d="M84.5489 48.8164C84.5218 48.8164 84.4947 48.8095 84.4676 48.7991C84.3627 48.7542 84.3186 48.6296 84.3627 48.5224C85.7645 45.2566 87.0107 42.3022 88.0942 39.2336C88.1315 39.1264 88.25 39.0676 88.355 39.1091C88.4599 39.1471 88.5175 39.2682 88.4769 39.3755C87.3933 42.4544 86.1404 45.4158 84.7351 48.6884C84.7013 48.7715 84.6268 48.8164 84.5489 48.8164Z" fill="#767676"/>
<path d="M72.4551 50.1996C72.3535 50.1996 72.2655 50.1201 72.2519 50.0128C71.788 45.7541 71.3952 41.4123 71.0194 37.2158C70.7553 34.282 70.481 31.248 70.1864 28.2658C70.1762 28.1517 70.2575 28.0479 70.3692 28.0375C70.481 28.0271 70.5826 28.1101 70.5927 28.2243C70.8907 31.2065 71.1616 34.244 71.4257 37.1777C71.8016 41.3708 72.1944 45.7091 72.6583 49.9644C72.6718 50.0786 72.5905 50.1823 72.4788 50.1962C72.472 50.1996 72.4653 50.1996 72.4551 50.1996Z" fill="#767676"/>
<path d="M68.9887 51.1415C68.9007 51.1415 68.816 51.0792 68.7923 50.9893L65.3689 38.4586C65.3384 38.3479 65.4028 38.2337 65.5111 38.2026C65.6195 38.1714 65.7312 38.2372 65.7617 38.3479L69.1851 50.8786C69.2156 50.9893 69.1513 51.1035 69.0429 51.1346C69.0226 51.1415 69.0057 51.1415 68.9887 51.1415Z" fill="#767676"/>
<path d="M64.6401 35.2065C64.5521 35.2065 64.4674 35.1442 64.4437 35.0542L62.947 29.5709C62.9166 29.4602 62.9809 29.346 63.0892 29.3149C63.1976 29.2837 63.3093 29.3495 63.3398 29.4602L64.8365 34.9435C64.867 35.0542 64.8026 35.1684 64.6943 35.1995C64.674 35.203 64.657 35.2065 64.6401 35.2065Z" fill="#767676"/>
<path d="M65.0903 53.3108C65.0158 53.3108 64.9447 53.2693 64.9075 53.1967C61.291 45.9211 57.9116 39.3167 54.5796 33.0064C54.5254 32.9061 54.5627 32.7781 54.6609 32.7227C54.7591 32.6674 54.8844 32.7054 54.9386 32.8058C58.2706 39.1195 61.65 45.7274 65.2698 53.0064C65.3206 53.1102 65.28 53.2347 65.1818 53.2866C65.1513 53.3039 65.1208 53.3108 65.0903 53.3108Z" fill="#767676"/>
<path d="M57.2582 55.5244C57.2074 55.5244 57.1566 55.5071 57.1193 55.4656L49.7916 48.3805C49.7104 48.301 49.707 48.1695 49.7849 48.0865C49.8628 48.0034 49.9914 48 50.0727 48.0795L57.4004 55.1646C57.4817 55.2442 57.485 55.3757 57.4072 55.4587C57.3665 55.5002 57.3124 55.5244 57.2582 55.5244Z" fill="#767676"/>
<path d="M47.6029 46.0695C47.5488 46.0695 47.4946 46.0487 47.4573 46.0072L43.1501 41.4439C43.0722 41.3609 43.0756 41.2294 43.1569 41.1499C43.2381 41.0703 43.3668 41.0738 43.4447 41.1568L47.7519 45.72C47.8298 45.8031 47.8264 45.9345 47.7452 46.0141C47.7045 46.0487 47.6537 46.0695 47.6029 46.0695Z" fill="#767676"/>
<path d="M43.6451 55.2719C43.6146 55.2719 43.5841 55.2649 43.557 55.2511L36.2801 51.6878C36.1785 51.6394 36.1345 51.5148 36.1852 51.4076C36.2327 51.3038 36.3579 51.2588 36.4595 51.3107L43.7365 54.874C43.8381 54.9225 43.8821 55.047 43.8313 55.1543C43.7974 55.2269 43.7229 55.2719 43.6451 55.2719Z" fill="#767676"/>
<path d="M76.7602 48.5294C76.7568 48.5294 76.75 48.5294 76.7466 48.5294C76.6349 48.5225 76.5502 48.4221 76.557 48.308C76.5909 47.7787 76.6247 47.2528 76.6552 46.7235C76.8381 43.7587 77.0277 40.6969 77.3832 37.694C77.3968 37.5799 77.4984 37.5003 77.6101 37.5107C77.7218 37.5245 77.8031 37.6283 77.7896 37.7425C77.434 40.7315 77.2444 43.7898 77.0616 46.7477C77.0277 47.277 76.9972 47.8063 76.9633 48.3322C76.9566 48.4429 76.8651 48.5294 76.7602 48.5294Z" fill="#767676"/>
<path d="M77.9911 33.6048C77.9843 33.6048 77.981 33.6048 77.9742 33.6048C77.8624 33.5944 77.7778 33.4941 77.7879 33.3799L78.218 28.1904C78.2281 28.0762 78.3331 27.9966 78.4381 28.0001C78.5498 28.0105 78.6345 28.1108 78.6243 28.225L78.1943 33.4145C78.1841 33.5217 78.0961 33.6048 77.9911 33.6048Z" fill="#767676"/>
<path d="M50.5459 38.9287C50.485 38.9287 50.424 38.9011 50.3834 38.8457C49.8281 38.0985 49.2693 37.3166 48.7275 36.559L48.4092 36.1162C48.3415 36.0228 48.3618 35.8913 48.4533 35.8256C48.5447 35.7599 48.6734 35.7772 48.7377 35.8706L49.056 36.3134C49.5978 37.0675 50.1531 37.8494 50.7085 38.5932C50.7762 38.6866 50.7593 38.8146 50.6678 38.8872C50.634 38.9149 50.59 38.9287 50.5459 38.9287Z" fill="#767676"/>
<path d="M62.0113 54.8257C61.9503 54.8257 61.8894 54.7981 61.8488 54.7427C59.5665 51.643 57.2909 48.4602 55.0899 45.3812L53.5323 43.2017C53.4646 43.1083 53.4849 42.9768 53.5763 42.9111C53.6677 42.8419 53.7964 42.8626 53.8607 42.9561L55.4184 45.1356C57.6194 48.2145 59.8915 51.3939 62.1738 54.4936C62.2416 54.587 62.2246 54.7185 62.1332 54.7877C62.096 54.8119 62.0519 54.8257 62.0113 54.8257Z" fill="#767676"/>
<path d="M50.6676 55.4763C50.627 55.4763 50.5863 55.466 50.5525 55.4383L44.884 51.4421C44.7926 51.3764 44.7689 51.2449 44.8332 51.1515C44.8975 51.0581 45.0262 51.0339 45.1176 51.0996L50.7861 55.0957C50.8775 55.1615 50.9012 55.293 50.8369 55.3864C50.7963 55.4452 50.7319 55.4763 50.6676 55.4763Z" fill="#767676"/>
<path d="M43.296 50.2592C43.2554 50.2592 43.2147 50.2488 43.1809 50.2211L39.7981 47.8342C39.7066 47.7684 39.6829 47.637 39.7473 47.5436C39.8116 47.4502 39.9403 47.426 40.0317 47.4917L43.4145 49.8787C43.5059 49.9444 43.5296 50.0758 43.4653 50.1692C43.4247 50.2281 43.3603 50.2592 43.296 50.2592Z" fill="#767676"/>
<path d="M38.7524 82.8883V83.7602C38.7524 84.4106 38.2377 84.9434 37.6011 84.9434H36.2263C36.1248 84.9434 36.0469 84.8604 36.0469 84.7601V79.9578C36.0469 79.854 36.1248 79.7744 36.2263 79.7744H37.486C38.1226 79.7744 38.6373 80.3072 38.6373 80.9577V81.4386C38.6373 81.6808 38.573 81.9022 38.4409 82.0891C38.6373 82.2967 38.7524 82.5804 38.7524 82.8883ZM36.9171 81.7154H37.4894C37.6418 81.7154 37.7704 81.5839 37.7704 81.4282V80.9196C37.7704 80.757 37.6418 80.6255 37.4894 80.6255H36.9171V81.7154ZM37.8856 82.8468C37.8856 82.6842 37.7569 82.5527 37.6045 82.5527H36.9171V84.0889H37.6045C37.7569 84.0889 37.8856 83.9574 37.8856 83.7844V82.8468Z" fill="#767676"/>
<path d="M40.4244 80.6137V81.7139H41.061C41.1626 81.7139 41.2405 81.7935 41.2405 81.8972V82.3539C41.2405 82.4577 41.1626 82.5373 41.061 82.5373H40.4244V84.0976H41.4301C41.5317 84.0976 41.6096 84.1772 41.6096 84.281V84.7549C41.6096 84.8587 41.5317 84.9383 41.4301 84.9383H39.7302C39.6287 84.9383 39.5508 84.8553 39.5508 84.7549V79.9529C39.5508 79.8491 39.6287 79.7695 39.7302 79.7695H41.4301C41.5317 79.7695 41.6096 79.8526 41.6096 79.9529V80.4269C41.6096 80.5307 41.5317 80.6102 41.4301 80.6102H40.4244V80.6137Z" fill="#767676"/>
<path d="M44.1107 81.0773V80.9216C44.1107 80.759 43.982 80.6344 43.8229 80.6344H43.491C43.3319 80.6344 43.2032 80.759 43.2032 80.9216V81.3713C43.2032 81.5339 43.3319 81.6585 43.491 81.6654H43.8229C44.4662 81.6654 44.9809 82.1912 44.9809 82.8485V83.7584C44.9809 84.4088 44.4595 84.9415 43.8229 84.9415H43.491C42.8544 84.9415 42.3329 84.4088 42.3329 83.7584V83.153C42.3329 83.0492 42.4108 82.9696 42.5124 82.9696H43.017C43.1185 82.9696 43.1964 83.0526 43.1964 83.153V83.7964C43.1964 83.959 43.3251 84.0905 43.4842 84.0905H43.8161C43.9752 84.0905 44.1039 83.959 44.1039 83.7964V82.8347C44.1039 82.6721 43.9752 82.5475 43.8161 82.5475H43.4842C42.8476 82.5406 42.3262 82.0217 42.3262 81.3713V80.9493C42.3262 80.2989 42.8476 79.7661 43.4842 79.7661H43.8161C44.4595 79.7661 44.9742 80.2989 44.9742 80.9493V81.0738C44.9742 81.1776 44.8929 81.2572 44.7947 81.2572H44.2902C44.1886 81.2641 44.1107 81.181 44.1107 81.0773Z" fill="#767676"/>
<path d="M48.0608 79.9559V80.4437C48.0608 80.5475 47.9728 80.6271 47.8814 80.6271H47.2583V84.7579C47.2583 84.8617 47.1804 84.9412 47.0788 84.9412H46.5709C46.4761 84.9412 46.3915 84.8582 46.3915 84.7579V80.6271H45.7752C45.6736 80.6271 45.5957 80.5441 45.5957 80.4437V79.9559C45.5957 79.8521 45.6736 79.7726 45.7752 79.7726H47.878C47.9728 79.7691 48.0608 79.8521 48.0608 79.9559Z" fill="#767676"/>
<path d="M52.8038 84.0906H53.0916C53.1796 84.0906 53.2643 84.1736 53.2643 84.274V84.7548C53.2643 84.8586 53.1762 84.9382 53.0747 84.9382H51.6423C51.0768 84.9382 50.623 84.4712 50.623 83.9038V80.8074C50.623 80.2297 51.0802 79.7661 51.6423 79.7661H52.2484C52.8139 79.7661 53.2677 80.2331 53.2677 80.8074V83.3572C53.2744 83.6858 53.078 83.9661 52.8038 84.0906ZM52.4042 80.8109C52.4042 80.7071 52.3161 80.6206 52.2146 80.6206H51.6795C51.578 80.6206 51.4933 80.7106 51.4933 80.8109V83.9072C51.4933 84.0041 51.5813 84.0906 51.6795 84.0906H52.4042V80.8109Z" fill="#767676"/>
<path d="M56.1032 79.7695H56.6078C56.7094 79.7695 56.7872 79.8595 56.7872 79.9633V83.9972C56.7872 84.5126 56.3673 84.9416 55.8628 84.9416H55.067C54.5591 84.9416 54.1426 84.5126 54.1426 83.9972V79.9633C54.1426 79.8595 54.2205 79.7695 54.322 79.7695H54.83C54.9316 79.7695 55.0095 79.8595 55.0095 79.9633V83.9072C55.0095 84.011 55.0975 84.0906 55.1991 84.0906H55.7341C55.8357 84.0906 55.9237 84.011 55.9237 83.9072V79.9633C55.9204 79.8595 56.0016 79.7695 56.1032 79.7695Z" fill="#767676"/>
<path d="M60.2178 84.1079V84.7583C60.2178 84.8621 60.1365 84.9416 60.0383 84.9416H59.5236C59.4288 84.9416 59.3509 84.8586 59.3509 84.7583V84.0871H58.3825V84.7583C58.3825 84.8621 58.3046 84.9416 58.203 84.9416H57.6951C57.5935 84.9416 57.5156 84.8586 57.5156 84.7583V84.1079C57.5156 84.0767 57.5156 84.056 57.5224 84.011L58.1455 79.9321C58.159 79.8353 58.2403 79.7695 58.3351 79.7695H59.4187C59.5135 79.7695 59.5846 79.8526 59.5981 79.9321L60.211 84.011C60.2178 84.056 60.2178 84.0767 60.2178 84.1079ZM59.2494 83.2499L58.8667 80.6414L58.4841 83.2499H59.2494Z" fill="#767676"/>
<path d="M61.8083 79.9559V84.1005H62.8207C62.9223 84.1005 63.0002 84.1801 63.0002 84.2839V84.7579C63.0002 84.8617 62.9223 84.9412 62.8207 84.9412H61.1209C61.0193 84.9412 60.9414 84.8582 60.9414 84.7579V79.9559C60.9414 79.8521 61.0193 79.7726 61.1209 79.7726H61.6288C61.7304 79.7691 61.8083 79.8521 61.8083 79.9559Z" fill="#767676"/>
<path d="M64.3754 84.9416H63.8709C63.7693 84.9416 63.6914 84.8586 63.6914 84.7583V79.9633C63.6914 79.8595 63.7727 79.7695 63.8709 79.7695H64.3754C64.477 79.7695 64.5549 79.8595 64.5549 79.9633V84.7583C64.5583 84.8621 64.477 84.9416 64.3754 84.9416Z" fill="#767676"/>
<path d="M67.7093 79.9559V80.4437C67.7093 80.5475 67.6212 80.6271 67.5298 80.6271H66.9068V84.7579C66.9068 84.8617 66.8289 84.9412 66.7273 84.9412H66.2194C66.1245 84.9412 66.0399 84.8582 66.0399 84.7579V80.6271H65.4236C65.322 80.6271 65.2441 80.5441 65.2441 80.4437V79.9559C65.2441 79.8521 65.322 79.7726 65.4236 79.7726H67.5264C67.6212 79.7691 67.7093 79.8521 67.7093 79.9559Z" fill="#767676"/>
<path d="M70.3419 79.7695H70.8464C70.948 79.7695 71.0259 79.8526 71.0259 79.9529V80.6829C71.0259 80.7625 71.0124 80.8455 70.9751 80.9182L70.0575 82.8453V84.7516C70.0575 84.8554 69.9762 84.935 69.878 84.935H69.3734C69.2719 84.935 69.194 84.8519 69.194 84.7516V82.8453L68.2695 80.9182C68.2391 80.8455 68.2188 80.7625 68.2188 80.6829V79.9529C68.2188 79.8491 68.2966 79.7695 68.3982 79.7695H68.9061C69.0077 79.7695 69.0856 79.8526 69.0856 79.9529V80.5134C69.0856 80.5722 69.0992 80.631 69.1296 80.6829L69.6274 81.7312L70.1252 80.6829C70.1455 80.631 70.1624 80.5722 70.1624 80.5134V79.9529C70.1624 79.8526 70.2403 79.7695 70.3419 79.7695Z" fill="#767676"/>
<path d="M75.5368 82.3572C75.5368 82.9246 75.0898 83.3848 74.5311 83.3848C73.9825 83.3848 73.5254 82.9281 73.5254 82.3572C73.5254 81.7967 73.9825 81.3296 74.5311 81.3296C75.0864 81.3296 75.5368 81.7932 75.5368 82.3572Z" fill="#767676"/>
<path d="M80.9165 82.8865V83.7583C80.9165 84.4087 80.4018 84.9414 79.7652 84.9414H78.3904C78.2888 84.9414 78.2109 84.8584 78.2109 84.7581V79.9563C78.2109 79.8525 78.2922 79.7729 78.3904 79.7729H79.6501C80.2867 79.7729 80.8014 80.3057 80.8014 80.9561V81.437C80.8014 81.6791 80.737 81.9005 80.605 82.0874C80.798 82.2949 80.9165 82.5786 80.9165 82.8865ZM79.0778 81.7137H79.6501C79.8024 81.7137 79.9311 81.5823 79.9311 81.4266V80.918C79.9311 80.7554 79.8024 80.624 79.6501 80.624H79.0778V81.7137ZM80.0462 82.845C80.0462 82.6824 79.9176 82.5509 79.7652 82.5509H79.0778V84.0869H79.7652C79.9176 84.0869 80.0462 83.9555 80.0462 83.7825V82.845Z" fill="#767676"/>
<path d="M82.5865 80.6137V81.7139H83.2231C83.3247 81.7139 83.4026 81.7935 83.4026 81.8972V82.3539C83.4026 82.4577 83.3247 82.5373 83.2231 82.5373H82.5865V84.0976H83.5922C83.6938 84.0976 83.7717 84.1772 83.7717 84.281V84.7549C83.7717 84.8587 83.6938 84.9383 83.5922 84.9383H81.8924C81.7908 84.9383 81.7129 84.8553 81.7129 84.7549V79.9529C81.7129 79.8491 81.7908 79.7695 81.8924 79.7695H83.5922C83.6938 79.7695 83.7717 79.8526 83.7717 79.9529V80.4269C83.7717 80.5307 83.6938 80.6102 83.5922 80.6102H82.5865V80.6137Z" fill="#767676"/>
<path d="M86.2748 81.0773V80.9216C86.2748 80.759 86.1461 80.6344 85.9869 80.6344H85.6551C85.4959 80.6344 85.3673 80.759 85.3673 80.9216V81.3713C85.3673 81.5339 85.4959 81.6585 85.6551 81.6654H85.9869C86.6303 81.6654 87.145 82.1912 87.145 82.8485V83.7584C87.145 84.4088 86.6235 84.9415 85.9869 84.9415H85.6551C85.0185 84.9415 84.497 84.4088 84.497 83.7584V83.153C84.497 83.0492 84.5749 82.9696 84.6765 82.9696H85.181C85.2826 82.9696 85.3605 83.0526 85.3605 83.153V83.7964C85.3605 83.959 85.4892 84.0905 85.6483 84.0905H85.9802C86.1393 84.0905 86.268 83.959 86.268 83.7964V82.8347C86.268 82.6721 86.1393 82.5475 85.9802 82.5475H85.6483C85.0117 82.5406 84.4902 82.0217 84.4902 81.3713V80.9493C84.4902 80.2989 85.0117 79.7661 85.6483 79.7661H85.9802C86.6235 79.7661 87.1382 80.2989 87.1382 80.9493V81.0738C87.1382 81.1776 87.057 81.2572 86.9588 81.2572H86.4542C86.356 81.2641 86.2748 81.181 86.2748 81.0773Z" fill="#767676"/>
<path d="M90.2211 79.9559V80.4437C90.2211 80.5475 90.133 80.6271 90.0416 80.6271H89.4185V84.7579C89.4185 84.8617 89.3406 84.9412 89.239 84.9412H88.7311C88.6363 84.9412 88.5516 84.8582 88.5516 84.7579V80.6271H87.9353C87.8337 80.6271 87.7559 80.5441 87.7559 80.4437V79.9559C87.7559 79.8521 87.8337 79.7726 87.9353 79.7726H90.0382C90.1364 79.7691 90.2211 79.8521 90.2211 79.9559Z" fill="#767676"/>
<path d="M95.365 80.9527V81.4266C95.365 82.077 94.8436 82.6097 94.2137 82.6097H93.6584V84.7581C93.6584 84.8619 93.5771 84.9414 93.4789 84.9414H92.9744C92.8728 84.9414 92.7949 84.8584 92.7949 84.7581V79.9563C92.7949 79.8525 92.8762 79.773 92.9744 79.773H94.2171C94.8436 79.7695 95.365 80.3023 95.365 80.9527ZM94.4982 80.9146C94.4982 80.752 94.3763 80.6205 94.2171 80.6205H93.6618V81.7137H94.2171C94.3763 81.7137 94.4982 81.5823 94.4982 81.4266V80.9146Z" fill="#767676"/>
<path d="M97.944 82.5267L98.5941 83.7687C98.6314 83.8413 98.6449 83.9313 98.6449 84.0108V84.7512C98.6449 84.8549 98.5738 84.9345 98.4722 84.9345H97.9677C97.8661 84.9345 97.7781 84.8549 97.7781 84.7512V84.2357C97.7781 84.1527 97.7645 84.0731 97.7273 83.9831L96.9553 82.5198V84.7581C96.9553 84.8619 96.874 84.9414 96.7758 84.9414H96.2713C96.1764 84.9414 96.0918 84.8584 96.0918 84.7581V79.9563C96.0918 79.8525 96.1798 79.7729 96.2713 79.7729H97.5207C98.1573 79.7729 98.6686 80.3057 98.6686 80.9561V81.4231C98.6686 81.9213 98.3639 82.3468 97.944 82.5267ZM97.5174 80.6205H96.9519V81.7206H97.5174C97.6697 81.7206 97.7984 81.5892 97.7984 81.4162V80.9077C97.8018 80.7451 97.6697 80.6205 97.5174 80.6205Z" fill="#767676"/>
<path d="M100.079 84.9416H99.574C99.4724 84.9416 99.3945 84.8586 99.3945 84.7583V79.9633C99.3945 79.8595 99.4758 79.7695 99.574 79.7695H100.079C100.18 79.7695 100.258 79.8595 100.258 79.9633V84.7583C100.261 84.8621 100.18 84.9416 100.079 84.9416Z" fill="#767676"/>
<path d="M103.013 82.5477H103.518C103.619 82.5477 103.697 82.6376 103.697 82.7379V83.9938C103.697 84.5093 103.284 84.9383 102.773 84.9383H101.977C101.469 84.9383 101.053 84.5093 101.053 83.9938V80.714C101.053 80.1882 101.466 79.7695 101.977 79.7695H102.773C103.288 79.7695 103.697 80.1916 103.697 80.714V81.5271C103.697 81.6308 103.616 81.7208 103.518 81.7208H103.013C102.912 81.7208 102.834 81.6308 102.834 81.5271V80.7971C102.834 80.6933 102.746 80.6137 102.654 80.6137H102.113C102.011 80.6137 101.923 80.6967 101.923 80.7971V83.9004C101.923 84.0042 102.011 84.0838 102.113 84.0838H102.654C102.749 84.0838 102.834 84.0042 102.834 83.9004V82.7414C102.834 82.6376 102.915 82.5477 103.013 82.5477Z" fill="#767676"/>
<path d="M105.376 80.6137V81.7139H106.012C106.114 81.7139 106.192 81.7935 106.192 81.8972V82.3539C106.192 82.4577 106.114 82.5373 106.012 82.5373H105.376V84.0976H106.381C106.483 84.0976 106.561 84.1772 106.561 84.281V84.7549C106.561 84.8587 106.483 84.9383 106.381 84.9383H104.681C104.58 84.9383 104.502 84.8553 104.502 84.7549V79.9529C104.502 79.8491 104.58 79.7695 104.681 79.7695H106.381C106.483 79.7695 106.561 79.8526 106.561 79.9529V80.4269C106.561 80.5307 106.483 80.6102 106.381 80.6102H105.376V80.6137Z" fill="#767676"/>
<path d="M109.254 80.5718C114.479 80.5718 119.704 80.5718 124.929 80.5718C125.589 80.5718 125.589 79.5273 124.929 79.5273C119.704 79.5273 114.479 79.5273 109.254 79.5273C108.597 79.5273 108.597 80.5718 109.254 80.5718Z" fill="#767676"/>
<path d="M109.254 82.8001C112.661 82.8001 116.067 82.8001 119.477 82.8001C120.138 82.8001 120.138 81.7554 119.477 81.7554C116.071 81.7554 112.664 81.7554 109.254 81.7554C108.597 81.7554 108.597 82.8001 109.254 82.8001Z" fill="#767676"/>
<path d="M109.254 84.8898C110.799 84.8898 112.343 84.8898 113.887 84.8898C114.547 84.8898 114.547 83.8447 113.887 83.8447C112.343 83.8447 110.799 83.8447 109.254 83.8447C108.597 83.8447 108.597 84.8898 109.254 84.8898Z" fill="#767676"/>
<path d="M32.7949 79.5273C27.57 79.5273 22.3451 79.5273 17.1202 79.5273C16.4599 79.5273 16.4599 80.5718 17.1202 80.5718C22.3451 80.5718 27.57 80.5718 32.7949 80.5718C33.4552 80.5718 33.4552 79.5273 32.7949 79.5273Z" fill="#767676"/>
<path d="M32.7962 81.7554C29.3897 81.7554 25.9832 81.7554 22.5734 81.7554C21.913 81.7554 21.913 82.8001 22.5734 82.8001C25.9799 82.8001 29.3864 82.8001 32.7962 82.8001C33.4566 82.8001 33.4566 81.7554 32.7962 81.7554Z" fill="#767676"/>
<path d="M32.7955 83.8447C31.2514 83.8447 29.7073 83.8447 28.1632 83.8447C27.5029 83.8447 27.5029 84.8898 28.1632 84.8898C29.7073 84.8898 31.2514 84.8898 32.7955 84.8898C33.4558 84.8898 33.4558 83.8447 32.7955 83.8447Z" fill="#767676"/>
</g>
<defs>
<clipPath id="clip0_202_3157">
<rect width="140" height="140" fill="white"/>
</clipPath>
</defs>
</svg>
